G04 #@! TF.FileFunction,Legend,Top*
%FSLAX46Y46*%
G04 Gerber Fmt 4.6, Leading zero omitted, Abs format (unit mm)*
G04 Created by KiCad (PCBNEW 4.0.2-stable) date 28.03.2016 14:36:11*
%MOMM*%
G01*
G04 APERTURE LIST*
%ADD10C,0.100000*%
%ADD11C,0.150000*%
%ADD12C,0.200000*%
%ADD13R,2.127200X2.432000*%
%ADD14O,2.127200X2.432000*%
%ADD15C,3.800000*%
%ADD16C,2.150000*%
%ADD17O,4.400000X4.400000*%
%ADD18R,1.797000X0.831800*%
%ADD19R,2.000000X1.400000*%
G04 APERTURE END LIST*
D10*
X113558857Y-111860000D02*
X113844571Y-111860000D01*
X113501714Y-112031429D02*
X113701714Y-111431429D01*
X113901714Y-112031429D01*
X114016000Y-111431429D02*
X114358857Y-111431429D01*
X114187428Y-112031429D02*
X114187428Y-111431429D01*
X114473143Y-111631429D02*
X114701714Y-111631429D01*
X114558857Y-111431429D02*
X114558857Y-111945714D01*
X114587429Y-112002857D01*
X114644571Y-112031429D01*
X114701714Y-112031429D01*
X114901714Y-112031429D02*
X114901714Y-111631429D01*
X114901714Y-111431429D02*
X114873143Y-111460000D01*
X114901714Y-111488571D01*
X114930286Y-111460000D01*
X114901714Y-111431429D01*
X114901714Y-111488571D01*
X115187428Y-111631429D02*
X115187428Y-112031429D01*
X115187428Y-111688571D02*
X115216000Y-111660000D01*
X115273142Y-111631429D01*
X115358857Y-111631429D01*
X115416000Y-111660000D01*
X115444571Y-111717143D01*
X115444571Y-112031429D01*
X115673142Y-111631429D02*
X115815999Y-112031429D01*
X115958857Y-111631429D02*
X115815999Y-112031429D01*
X115758857Y-112174286D01*
X115730285Y-112202857D01*
X115673142Y-112231429D01*
X116158857Y-111488571D02*
X116187428Y-111460000D01*
X116244571Y-111431429D01*
X116387428Y-111431429D01*
X116444571Y-111460000D01*
X116473142Y-111488571D01*
X116501714Y-111545714D01*
X116501714Y-111602857D01*
X116473142Y-111688571D01*
X116130285Y-112031429D01*
X116501714Y-112031429D01*
X116873143Y-111431429D02*
X116930286Y-111431429D01*
X116987429Y-111460000D01*
X117016000Y-111488571D01*
X117044571Y-111545714D01*
X117073143Y-111660000D01*
X117073143Y-111802857D01*
X117044571Y-111917143D01*
X117016000Y-111974286D01*
X116987429Y-112002857D01*
X116930286Y-112031429D01*
X116873143Y-112031429D01*
X116816000Y-112002857D01*
X116787429Y-111974286D01*
X116758857Y-111917143D01*
X116730286Y-111802857D01*
X116730286Y-111660000D01*
X116758857Y-111545714D01*
X116787429Y-111488571D01*
X116816000Y-111460000D01*
X116873143Y-111431429D01*
D11*
X131531522Y-91644453D02*
X131912474Y-91644453D01*
X131455331Y-91873025D02*
X131721998Y-91073025D01*
X131988665Y-91873025D01*
X132636284Y-91873025D02*
X132255331Y-91873025D01*
X132255331Y-91073025D01*
X132902950Y-91873025D02*
X132902950Y-91073025D01*
X133207712Y-91073025D01*
X133283903Y-91111120D01*
X133321998Y-91149215D01*
X133360093Y-91225406D01*
X133360093Y-91339691D01*
X133321998Y-91415882D01*
X133283903Y-91453977D01*
X133207712Y-91492072D01*
X132902950Y-91492072D01*
X133664855Y-91834930D02*
X133779141Y-91873025D01*
X133969617Y-91873025D01*
X134045807Y-91834930D01*
X134083903Y-91796834D01*
X134121998Y-91720644D01*
X134121998Y-91644453D01*
X134083903Y-91568263D01*
X134045807Y-91530168D01*
X133969617Y-91492072D01*
X133817236Y-91453977D01*
X133741045Y-91415882D01*
X133702950Y-91377787D01*
X133664855Y-91301596D01*
X133664855Y-91225406D01*
X133702950Y-91149215D01*
X133741045Y-91111120D01*
X133817236Y-91073025D01*
X134007712Y-91073025D01*
X134121998Y-91111120D01*
X129645807Y-93104930D02*
X129760093Y-93143025D01*
X129950569Y-93143025D01*
X130026759Y-93104930D01*
X130064855Y-93066834D01*
X130102950Y-92990644D01*
X130102950Y-92914453D01*
X130064855Y-92838263D01*
X130026759Y-92800168D01*
X129950569Y-92762072D01*
X129798188Y-92723977D01*
X129721997Y-92685882D01*
X129683902Y-92647787D01*
X129645807Y-92571596D01*
X129645807Y-92495406D01*
X129683902Y-92419215D01*
X129721997Y-92381120D01*
X129798188Y-92343025D01*
X129988664Y-92343025D01*
X130102950Y-92381120D01*
X130331521Y-92343025D02*
X130788664Y-92343025D01*
X130560093Y-93143025D02*
X130560093Y-92343025D01*
X131055331Y-92723977D02*
X131321998Y-92723977D01*
X131436284Y-93143025D02*
X131055331Y-93143025D01*
X131055331Y-92343025D01*
X131436284Y-92343025D01*
X132236284Y-93066834D02*
X132198189Y-93104930D01*
X132083903Y-93143025D01*
X132007713Y-93143025D01*
X131893427Y-93104930D01*
X131817236Y-93028739D01*
X131779141Y-92952549D01*
X131741046Y-92800168D01*
X131741046Y-92685882D01*
X131779141Y-92533501D01*
X131817236Y-92457310D01*
X131893427Y-92381120D01*
X132007713Y-92343025D01*
X132083903Y-92343025D01*
X132198189Y-92381120D01*
X132236284Y-92419215D01*
X132998189Y-93143025D02*
X132541046Y-93143025D01*
X132769617Y-93143025D02*
X132769617Y-92343025D01*
X132693427Y-92457310D01*
X132617236Y-92533501D01*
X132541046Y-92571596D01*
X133302951Y-92419215D02*
X133341046Y-92381120D01*
X133417237Y-92343025D01*
X133607713Y-92343025D01*
X133683903Y-92381120D01*
X133721999Y-92419215D01*
X133760094Y-92495406D01*
X133760094Y-92571596D01*
X133721999Y-92685882D01*
X133264856Y-93143025D01*
X133760094Y-93143025D01*
X134102951Y-92723977D02*
X134369618Y-92723977D01*
X134483904Y-93143025D02*
X134102951Y-93143025D01*
X134102951Y-92343025D01*
X134483904Y-92343025D01*
X134979142Y-92343025D02*
X135055333Y-92343025D01*
X135131523Y-92381120D01*
X135169618Y-92419215D01*
X135207714Y-92495406D01*
X135245809Y-92647787D01*
X135245809Y-92838263D01*
X135207714Y-92990644D01*
X135169618Y-93066834D01*
X135131523Y-93104930D01*
X135055333Y-93143025D01*
X134979142Y-93143025D01*
X134902952Y-93104930D01*
X134864856Y-93066834D01*
X134826761Y-92990644D01*
X134788666Y-92838263D01*
X134788666Y-92647787D01*
X134826761Y-92495406D01*
X134864856Y-92419215D01*
X134902952Y-92381120D01*
X134979142Y-92343025D01*
X135702952Y-92685882D02*
X135626761Y-92647787D01*
X135588666Y-92609691D01*
X135550571Y-92533501D01*
X135550571Y-92495406D01*
X135588666Y-92419215D01*
X135626761Y-92381120D01*
X135702952Y-92343025D01*
X135855333Y-92343025D01*
X135931523Y-92381120D01*
X135969619Y-92419215D01*
X136007714Y-92495406D01*
X136007714Y-92533501D01*
X135969619Y-92609691D01*
X135931523Y-92647787D01*
X135855333Y-92685882D01*
X135702952Y-92685882D01*
X135626761Y-92723977D01*
X135588666Y-92762072D01*
X135550571Y-92838263D01*
X135550571Y-92990644D01*
X135588666Y-93066834D01*
X135626761Y-93104930D01*
X135702952Y-93143025D01*
X135855333Y-93143025D01*
X135931523Y-93104930D01*
X135969619Y-93066834D01*
X136007714Y-92990644D01*
X136007714Y-92838263D01*
X135969619Y-92762072D01*
X135931523Y-92723977D01*
X135855333Y-92685882D01*
X95270482Y-92035613D02*
X95651434Y-92035613D01*
X95194291Y-92264185D02*
X95460958Y-91464185D01*
X95727625Y-92264185D01*
X96375244Y-92264185D02*
X95994291Y-92264185D01*
X95994291Y-91464185D01*
X96641910Y-92264185D02*
X96641910Y-91464185D01*
X96946672Y-91464185D01*
X97022863Y-91502280D01*
X97060958Y-91540375D01*
X97099053Y-91616566D01*
X97099053Y-91730851D01*
X97060958Y-91807042D01*
X97022863Y-91845137D01*
X96946672Y-91883232D01*
X96641910Y-91883232D01*
X97403815Y-92226090D02*
X97518101Y-92264185D01*
X97708577Y-92264185D01*
X97784767Y-92226090D01*
X97822863Y-92187994D01*
X97860958Y-92111804D01*
X97860958Y-92035613D01*
X97822863Y-91959423D01*
X97784767Y-91921328D01*
X97708577Y-91883232D01*
X97556196Y-91845137D01*
X97480005Y-91807042D01*
X97441910Y-91768947D01*
X97403815Y-91692756D01*
X97403815Y-91616566D01*
X97441910Y-91540375D01*
X97480005Y-91502280D01*
X97556196Y-91464185D01*
X97746672Y-91464185D01*
X97860958Y-91502280D01*
X93384767Y-93496090D02*
X93499053Y-93534185D01*
X93689529Y-93534185D01*
X93765719Y-93496090D01*
X93803815Y-93457994D01*
X93841910Y-93381804D01*
X93841910Y-93305613D01*
X93803815Y-93229423D01*
X93765719Y-93191328D01*
X93689529Y-93153232D01*
X93537148Y-93115137D01*
X93460957Y-93077042D01*
X93422862Y-93038947D01*
X93384767Y-92962756D01*
X93384767Y-92886566D01*
X93422862Y-92810375D01*
X93460957Y-92772280D01*
X93537148Y-92734185D01*
X93727624Y-92734185D01*
X93841910Y-92772280D01*
X94070481Y-92734185D02*
X94527624Y-92734185D01*
X94299053Y-93534185D02*
X94299053Y-92734185D01*
X94794291Y-93115137D02*
X95060958Y-93115137D01*
X95175244Y-93534185D02*
X94794291Y-93534185D01*
X94794291Y-92734185D01*
X95175244Y-92734185D01*
X95975244Y-93457994D02*
X95937149Y-93496090D01*
X95822863Y-93534185D01*
X95746673Y-93534185D01*
X95632387Y-93496090D01*
X95556196Y-93419899D01*
X95518101Y-93343709D01*
X95480006Y-93191328D01*
X95480006Y-93077042D01*
X95518101Y-92924661D01*
X95556196Y-92848470D01*
X95632387Y-92772280D01*
X95746673Y-92734185D01*
X95822863Y-92734185D01*
X95937149Y-92772280D01*
X95975244Y-92810375D01*
X96737149Y-93534185D02*
X96280006Y-93534185D01*
X96508577Y-93534185D02*
X96508577Y-92734185D01*
X96432387Y-92848470D01*
X96356196Y-92924661D01*
X96280006Y-92962756D01*
X97041911Y-92810375D02*
X97080006Y-92772280D01*
X97156197Y-92734185D01*
X97346673Y-92734185D01*
X97422863Y-92772280D01*
X97460959Y-92810375D01*
X97499054Y-92886566D01*
X97499054Y-92962756D01*
X97460959Y-93077042D01*
X97003816Y-93534185D01*
X97499054Y-93534185D01*
X97841911Y-93115137D02*
X98108578Y-93115137D01*
X98222864Y-93534185D02*
X97841911Y-93534185D01*
X97841911Y-92734185D01*
X98222864Y-92734185D01*
X98718102Y-92734185D02*
X98794293Y-92734185D01*
X98870483Y-92772280D01*
X98908578Y-92810375D01*
X98946674Y-92886566D01*
X98984769Y-93038947D01*
X98984769Y-93229423D01*
X98946674Y-93381804D01*
X98908578Y-93457994D01*
X98870483Y-93496090D01*
X98794293Y-93534185D01*
X98718102Y-93534185D01*
X98641912Y-93496090D01*
X98603816Y-93457994D01*
X98565721Y-93381804D01*
X98527626Y-93229423D01*
X98527626Y-93038947D01*
X98565721Y-92886566D01*
X98603816Y-92810375D01*
X98641912Y-92772280D01*
X98718102Y-92734185D01*
X99441912Y-93077042D02*
X99365721Y-93038947D01*
X99327626Y-93000851D01*
X99289531Y-92924661D01*
X99289531Y-92886566D01*
X99327626Y-92810375D01*
X99365721Y-92772280D01*
X99441912Y-92734185D01*
X99594293Y-92734185D01*
X99670483Y-92772280D01*
X99708579Y-92810375D01*
X99746674Y-92886566D01*
X99746674Y-92924661D01*
X99708579Y-93000851D01*
X99670483Y-93038947D01*
X99594293Y-93077042D01*
X99441912Y-93077042D01*
X99365721Y-93115137D01*
X99327626Y-93153232D01*
X99289531Y-93229423D01*
X99289531Y-93381804D01*
X99327626Y-93457994D01*
X99365721Y-93496090D01*
X99441912Y-93534185D01*
X99594293Y-93534185D01*
X99670483Y-93496090D01*
X99708579Y-93457994D01*
X99746674Y-93381804D01*
X99746674Y-93229423D01*
X99708579Y-93153232D01*
X99670483Y-93115137D01*
X99594293Y-93077042D01*
X109397200Y-82859400D02*
X110947200Y-82859400D01*
X109397200Y-81559400D02*
X109397200Y-82859400D01*
X149709200Y-112422000D02*
G75*
G03X149709200Y-112422000I-2286000J0D01*
G01*
X149709200Y-82573800D02*
G75*
G03X149709200Y-82573800I-2286000J0D01*
G01*
X84859800Y-112422000D02*
G75*
G03X84859800Y-112422000I-2286000J0D01*
G01*
X124028800Y-112263400D02*
X122478800Y-112263400D01*
X124028800Y-113563400D02*
X124028800Y-112263400D01*
X127379836Y-104189223D02*
X121939814Y-108594466D01*
X124107370Y-100148064D02*
X118667348Y-104553307D01*
X118667348Y-104553307D02*
X119296669Y-105330453D01*
X138121530Y-104419073D02*
X140687039Y-110931996D01*
X133283359Y-106324880D02*
X135848868Y-112837803D01*
X135848868Y-112837803D02*
X136779285Y-112471301D01*
X123865705Y-99539807D02*
X116869969Y-99295511D01*
X124047183Y-94342975D02*
X117051447Y-94098679D01*
X117051447Y-94098679D02*
X117016547Y-95098069D01*
X132677501Y-106383300D02*
X130111992Y-112896223D01*
X127839330Y-104477493D02*
X125273821Y-110990416D01*
X125273821Y-110990416D02*
X126204239Y-111356918D01*
X124233057Y-93741189D02*
X118569938Y-89626692D01*
X127289540Y-89534300D02*
X121626421Y-85419803D01*
X121626421Y-85419803D02*
X121038636Y-86228820D01*
X141810704Y-100016192D02*
X147250726Y-104421435D01*
X138538238Y-104057351D02*
X143978260Y-108462594D01*
X143978260Y-108462594D02*
X144607580Y-107685448D01*
X127767954Y-89157712D02*
X125145708Y-82667425D01*
X132589310Y-87209757D02*
X129967064Y-80719470D01*
X129967064Y-80719470D02*
X129039880Y-81094077D01*
X133198830Y-87209757D02*
X135821076Y-80719470D01*
X138020186Y-89157712D02*
X140642432Y-82667425D01*
X140642432Y-82667425D02*
X139715248Y-82292818D01*
X141824777Y-94256615D02*
X148820513Y-94012319D01*
X142006255Y-99453447D02*
X149001991Y-99209151D01*
X149001991Y-99209151D02*
X148967091Y-98209760D01*
X138506220Y-89498740D02*
X144169339Y-85384243D01*
X141562703Y-93705629D02*
X147225822Y-89591132D01*
X147225822Y-89591132D02*
X146638037Y-88782115D01*
D12*
X129302320Y-101896680D02*
G75*
G03X129302320Y-101896680I-500000J0D01*
G01*
X137502320Y-101896680D02*
G75*
G03X137502320Y-101896680I-500000J0D01*
G01*
X137502320Y-91696680D02*
G75*
G03X137502320Y-91696680I-500000J0D01*
G01*
X129302320Y-91696680D02*
G75*
G03X129302320Y-91696680I-500000J0D01*
G01*
X126702320Y-102546680D02*
X126702320Y-90946680D01*
X139102320Y-90946680D02*
X139102320Y-102546680D01*
X127502320Y-90146680D02*
X138302320Y-90146680D01*
X127502320Y-103346680D02*
X138302320Y-103346680D01*
X127502320Y-90146680D02*
G75*
G03X126702320Y-90946680I0J-800000D01*
G01*
X126702320Y-102546680D02*
G75*
G03X127502320Y-103346680I800000J0D01*
G01*
X138302320Y-103346680D02*
G75*
G03X139102320Y-102546680I0J800000D01*
G01*
X139102320Y-90946680D02*
G75*
G03X138302320Y-90146680I-800000J0D01*
G01*
X130302320Y-95246680D02*
X135502320Y-95246680D01*
X135902320Y-96746680D02*
G75*
G03X135902320Y-96746680I-3000000J0D01*
G01*
D11*
X96408841Y-106639840D02*
X93843332Y-113152763D01*
X91570670Y-104734033D02*
X89005161Y-111246956D01*
X89005161Y-111246956D02*
X89935579Y-111613458D01*
X91111176Y-104445763D02*
X85671154Y-108851006D01*
X87838710Y-100404604D02*
X82398688Y-104809847D01*
X82398688Y-104809847D02*
X83028009Y-105586993D01*
X87597045Y-99796347D02*
X80601309Y-99552051D01*
X87778523Y-94599515D02*
X80782787Y-94355219D01*
X80782787Y-94355219D02*
X80747887Y-95354609D01*
X87964397Y-93997729D02*
X82301278Y-89883232D01*
X91020880Y-89790840D02*
X85357761Y-85676343D01*
X85357761Y-85676343D02*
X84769976Y-86485360D01*
X91499294Y-89414252D02*
X88877048Y-82923965D01*
X96320650Y-87466297D02*
X93698404Y-80976010D01*
X93698404Y-80976010D02*
X92771220Y-81350617D01*
X96930170Y-87466297D02*
X99552416Y-80976010D01*
X101751526Y-89414252D02*
X104373772Y-82923965D01*
X104373772Y-82923965D02*
X103446588Y-82549358D01*
X102237560Y-89755280D02*
X107900679Y-85640783D01*
X105294043Y-93962169D02*
X110957162Y-89847672D01*
X110957162Y-89847672D02*
X110369377Y-89038655D01*
X105556117Y-94513155D02*
X112551853Y-94268859D01*
X105737595Y-99709987D02*
X112733331Y-99465691D01*
X112733331Y-99465691D02*
X112698431Y-98466300D01*
X105542044Y-100272732D02*
X110982066Y-104677975D01*
X102269578Y-104313891D02*
X107709600Y-108719134D01*
X107709600Y-108719134D02*
X108338920Y-107941988D01*
X101852870Y-104675613D02*
X104418379Y-111188536D01*
X97014699Y-106581420D02*
X99580208Y-113094343D01*
X99580208Y-113094343D02*
X100510625Y-112727841D01*
D12*
X93033660Y-102153220D02*
G75*
G03X93033660Y-102153220I-500000J0D01*
G01*
X101233660Y-102153220D02*
G75*
G03X101233660Y-102153220I-500000J0D01*
G01*
X101233660Y-91953220D02*
G75*
G03X101233660Y-91953220I-500000J0D01*
G01*
X93033660Y-91953220D02*
G75*
G03X93033660Y-91953220I-500000J0D01*
G01*
X90433660Y-102803220D02*
X90433660Y-91203220D01*
X102833660Y-91203220D02*
X102833660Y-102803220D01*
X91233660Y-90403220D02*
X102033660Y-90403220D01*
X91233660Y-103603220D02*
X102033660Y-103603220D01*
X91233660Y-90403220D02*
G75*
G03X90433660Y-91203220I0J-800000D01*
G01*
X90433660Y-102803220D02*
G75*
G03X91233660Y-103603220I800000J0D01*
G01*
X102033660Y-103603220D02*
G75*
G03X102833660Y-102803220I0J800000D01*
G01*
X102833660Y-91203220D02*
G75*
G03X102033660Y-90403220I-800000J0D01*
G01*
X94033660Y-95503220D02*
X99233660Y-95503220D01*
X99633660Y-97003220D02*
G75*
G03X99633660Y-97003220I-3000000J0D01*
G01*
D11*
X117024000Y-106104400D02*
X117024000Y-110930400D01*
X117024000Y-110930400D02*
X113468000Y-110930400D01*
X113468000Y-110930400D02*
X113468000Y-106104400D01*
X113468000Y-106104400D02*
X117024000Y-106104400D01*
X114484000Y-106739400D02*
G75*
G03X114484000Y-106739400I-381000J0D01*
G01*
X119218600Y-108943900D02*
X119218600Y-110943900D01*
X121268600Y-110943900D02*
X121268600Y-108943900D01*
X94860837Y-112253670D02*
X95626204Y-110405911D01*
X97612545Y-111228680D02*
X96847178Y-113076439D01*
X131055837Y-111999670D02*
X131821204Y-110151911D01*
X133807545Y-110974680D02*
X133042178Y-112822439D01*
X84859800Y-82573800D02*
G75*
G03X84859800Y-82573800I-2286000J0D01*
G01*
D10*
X103257495Y-114001505D02*
X103257495Y-113201505D01*
X103600352Y-113963410D02*
X103714638Y-114001505D01*
X103905114Y-114001505D01*
X103981304Y-113963410D01*
X104019400Y-113925314D01*
X104057495Y-113849124D01*
X104057495Y-113772933D01*
X104019400Y-113696743D01*
X103981304Y-113658648D01*
X103905114Y-113620552D01*
X103752733Y-113582457D01*
X103676542Y-113544362D01*
X103638447Y-113506267D01*
X103600352Y-113430076D01*
X103600352Y-113353886D01*
X103638447Y-113277695D01*
X103676542Y-113239600D01*
X103752733Y-113201505D01*
X103943209Y-113201505D01*
X104057495Y-113239600D01*
X104400352Y-114001505D02*
X104400352Y-113201505D01*
X104705114Y-113201505D01*
X104781305Y-113239600D01*
X104819400Y-113277695D01*
X104857495Y-113353886D01*
X104857495Y-113468171D01*
X104819400Y-113544362D01*
X104781305Y-113582457D01*
X104705114Y-113620552D01*
X104400352Y-113620552D01*
X105619400Y-114001505D02*
X105162257Y-114001505D01*
X105390828Y-114001505D02*
X105390828Y-113201505D01*
X105314638Y-113315790D01*
X105238447Y-113391981D01*
X105162257Y-113430076D01*
X119136918Y-103509753D02*
X118689937Y-103381516D01*
X118781651Y-103797442D02*
X118278194Y-103175726D01*
X118515039Y-102983933D01*
X118598224Y-102965589D01*
X118651804Y-102971221D01*
X118729358Y-103006458D01*
X118801280Y-103095275D01*
X118819623Y-103178460D01*
X118813991Y-103232039D01*
X118778754Y-103309593D01*
X118541909Y-103501386D01*
X119249547Y-102438159D02*
X119166361Y-102456502D01*
X119077545Y-102528424D01*
X119012702Y-102629952D01*
X119001438Y-102737111D01*
X119019782Y-102820297D01*
X119086073Y-102962693D01*
X119157995Y-103051510D01*
X119283497Y-103145958D01*
X119361050Y-103181195D01*
X119468210Y-103192458D01*
X119581001Y-103150141D01*
X119640212Y-103102193D01*
X119705055Y-103000665D01*
X119710686Y-102947085D01*
X119542867Y-102739847D01*
X119424445Y-102835743D01*
X119968608Y-102297049D02*
X120081399Y-102254732D01*
X120134979Y-102260364D01*
X120212532Y-102295601D01*
X120284455Y-102384418D01*
X120302797Y-102467603D01*
X120297166Y-102521183D01*
X120261929Y-102598737D01*
X120025084Y-102790530D01*
X119521628Y-102168813D01*
X119728867Y-102000994D01*
X119812052Y-101982651D01*
X119865632Y-101988282D01*
X119943186Y-102023520D01*
X119991134Y-102082731D01*
X120009477Y-102165916D01*
X120003845Y-102219496D01*
X119968608Y-102297049D01*
X119761369Y-102464868D01*
X120161687Y-101748541D02*
X120167319Y-101694962D01*
X120202556Y-101617408D01*
X120350584Y-101497538D01*
X120433769Y-101479195D01*
X120487349Y-101484826D01*
X120564903Y-101520063D01*
X120612851Y-101579274D01*
X120655168Y-101692065D01*
X120587590Y-102335021D01*
X120972463Y-102023358D01*
X121138833Y-101986672D02*
X121612522Y-101603086D01*
X121227488Y-100885473D02*
X121233119Y-100831894D01*
X121268357Y-100754340D01*
X121416384Y-100634469D01*
X121499569Y-100616127D01*
X121553149Y-100621758D01*
X121630703Y-100656995D01*
X121678651Y-100716206D01*
X121720968Y-100828997D01*
X121653391Y-101471953D01*
X122038263Y-101160290D01*
X139595475Y-106704403D02*
X139852186Y-106316672D01*
X139427931Y-106279070D02*
X140172265Y-105985869D01*
X140283961Y-106269425D01*
X140276441Y-106354276D01*
X140254958Y-106403682D01*
X140198031Y-106467050D01*
X140091698Y-106508936D01*
X140006847Y-106501416D01*
X139957441Y-106479933D01*
X139894072Y-106423006D01*
X139782377Y-106139450D01*
X140583604Y-107134054D02*
X140591124Y-107049203D01*
X140549238Y-106942870D01*
X140471908Y-106850498D01*
X140373095Y-106807533D01*
X140288244Y-106800012D01*
X140132504Y-106820416D01*
X140026171Y-106862302D01*
X139898355Y-106953594D01*
X139841428Y-107016962D01*
X139798463Y-107115776D01*
X139804904Y-107236071D01*
X139832828Y-107306960D01*
X139910158Y-107399331D01*
X139959565Y-107420813D01*
X140207676Y-107323080D01*
X140151828Y-107181302D01*
X140501957Y-107862268D02*
X140508398Y-107982563D01*
X140486915Y-108031970D01*
X140429988Y-108095338D01*
X140323655Y-108137224D01*
X140238804Y-108129703D01*
X140189397Y-108108221D01*
X140126029Y-108051294D01*
X140014333Y-107767738D01*
X140758667Y-107474537D01*
X140856401Y-107722648D01*
X140848881Y-107807499D01*
X140827399Y-107856906D01*
X140770471Y-107920274D01*
X140699582Y-107948198D01*
X140614731Y-107940678D01*
X140565325Y-107919194D01*
X140501957Y-107862268D01*
X140404223Y-107614156D01*
X140967018Y-108211350D02*
X141016424Y-108232833D01*
X141079792Y-108289760D01*
X141149602Y-108466982D01*
X141142082Y-108551833D01*
X141120600Y-108601240D01*
X141063672Y-108664608D01*
X140992783Y-108692532D01*
X140872488Y-108698974D01*
X140279611Y-108441183D01*
X140461116Y-108901961D01*
X140446075Y-109071663D02*
X140669466Y-109638775D01*
X140963746Y-110177963D02*
X140796203Y-109752629D01*
X140879974Y-109965296D02*
X141624308Y-109672095D01*
X141490052Y-109643092D01*
X141391238Y-109600126D01*
X141327870Y-109543200D01*
X141889586Y-110345540D02*
X141917510Y-110416430D01*
X141909989Y-110501280D01*
X141888507Y-110550686D01*
X141831580Y-110614055D01*
X141703764Y-110705347D01*
X141526541Y-110775157D01*
X141370801Y-110795561D01*
X141285951Y-110788039D01*
X141236544Y-110766557D01*
X141173176Y-110709631D01*
X141145252Y-110638741D01*
X141152772Y-110553891D01*
X141174255Y-110504483D01*
X141231182Y-110441115D01*
X141358998Y-110349823D01*
X141536220Y-110280014D01*
X141691960Y-110259610D01*
X141776811Y-110267130D01*
X141826218Y-110288614D01*
X141889586Y-110345540D01*
X117495308Y-93573981D02*
X117242098Y-93183953D01*
X117038443Y-93558027D02*
X117066363Y-92758514D01*
X117370939Y-92769150D01*
X117445754Y-92809881D01*
X117482497Y-92849282D01*
X117517910Y-92926756D01*
X117513921Y-93040971D01*
X117473190Y-93115787D01*
X117433789Y-93152529D01*
X117356315Y-93187942D01*
X117051739Y-93177306D01*
X118283339Y-92839130D02*
X118208524Y-92798399D01*
X118094308Y-92794410D01*
X117978763Y-92828494D01*
X117899959Y-92901978D01*
X117859228Y-92976793D01*
X117815838Y-93127752D01*
X117811850Y-93241968D01*
X117844604Y-93395586D01*
X117880016Y-93473059D01*
X117953502Y-93551863D01*
X118066389Y-93593923D01*
X118142532Y-93596582D01*
X118258078Y-93562499D01*
X118297480Y-93525756D01*
X118306786Y-93259252D01*
X118154498Y-93253934D01*
X118918598Y-93204380D02*
X119031485Y-93246440D01*
X119068227Y-93285842D01*
X119103640Y-93363315D01*
X119099651Y-93477532D01*
X119058921Y-93552346D01*
X119019519Y-93589089D01*
X118942045Y-93624502D01*
X118637469Y-93613866D01*
X118665388Y-92814353D01*
X118931893Y-92823660D01*
X119006707Y-92864390D01*
X119043450Y-92903792D01*
X119078863Y-92981266D01*
X119076204Y-93057409D01*
X119035473Y-93132224D01*
X118996071Y-93168967D01*
X118918598Y-93204380D01*
X118652093Y-93195073D01*
X119424170Y-92917087D02*
X119463572Y-92880344D01*
X119541046Y-92844932D01*
X119731406Y-92851579D01*
X119806220Y-92892310D01*
X119842963Y-92931711D01*
X119878376Y-93009185D01*
X119875717Y-93085329D01*
X119833656Y-93198216D01*
X119360838Y-93639126D01*
X119855774Y-93656410D01*
X120005403Y-93737871D02*
X120614556Y-93759144D01*
X120759351Y-92887476D02*
X121254287Y-92904759D01*
X120977147Y-93200029D01*
X121091363Y-93204018D01*
X121166177Y-93244749D01*
X121202921Y-93284150D01*
X121238333Y-93361624D01*
X121231686Y-93551984D01*
X121190955Y-93626798D01*
X121151553Y-93663541D01*
X121074080Y-93698954D01*
X120845647Y-93690977D01*
X120770833Y-93650246D01*
X120734090Y-93610844D01*
X124889140Y-110478029D02*
X124436961Y-110586521D01*
X124721596Y-110903363D02*
X123977262Y-110610162D01*
X124088958Y-110326606D01*
X124152326Y-110269679D01*
X124201732Y-110248196D01*
X124286584Y-110240676D01*
X124392916Y-110282562D01*
X124449844Y-110345930D01*
X124471326Y-110395336D01*
X124478847Y-110480188D01*
X124367151Y-110763743D01*
X124459489Y-109489900D02*
X124396121Y-109546828D01*
X124354235Y-109653161D01*
X124347793Y-109773456D01*
X124390758Y-109872270D01*
X124447685Y-109935638D01*
X124575501Y-110026930D01*
X124681835Y-110068816D01*
X124837575Y-110089219D01*
X124922425Y-110081699D01*
X125021239Y-110038734D01*
X125098569Y-109946362D01*
X125126493Y-109875473D01*
X125132935Y-109755178D01*
X125111451Y-109705771D01*
X124863340Y-109608038D01*
X124807493Y-109749816D01*
X125015842Y-109013002D02*
X125093173Y-108920630D01*
X125142580Y-108899148D01*
X125227430Y-108891627D01*
X125333764Y-108933513D01*
X125390690Y-108996881D01*
X125412174Y-109046288D01*
X125419694Y-109131139D01*
X125307998Y-109414695D01*
X124563664Y-109121494D01*
X124661398Y-108873382D01*
X124724766Y-108816456D01*
X124774172Y-108794972D01*
X124859024Y-108787452D01*
X124929912Y-108815376D01*
X124986840Y-108878744D01*
X125008322Y-108928151D01*
X125015842Y-109013002D01*
X124918109Y-109261113D01*
X124913792Y-108440528D02*
X124892309Y-108391122D01*
X124884789Y-108306271D01*
X124954599Y-108129048D01*
X125017967Y-108072122D01*
X125067373Y-108050638D01*
X125152225Y-108043118D01*
X125223113Y-108071042D01*
X125315485Y-108148372D01*
X125573275Y-108741250D01*
X125754781Y-108280471D01*
X125881517Y-108166617D02*
X126104908Y-107599505D01*
X126257411Y-107004470D02*
X126089868Y-107429804D01*
X126173639Y-107217137D02*
X125429305Y-106923936D01*
X125507714Y-107036710D01*
X125550680Y-107135524D01*
X125558200Y-107220374D01*
X122378640Y-85370935D02*
X122386821Y-84905994D01*
X122008804Y-85102233D02*
X122479032Y-84455019D01*
X122725590Y-84634154D01*
X122764838Y-84709757D01*
X122773266Y-84762968D01*
X122759301Y-84847000D01*
X122692126Y-84939458D01*
X122616523Y-84978707D01*
X122563311Y-84987134D01*
X122479280Y-84973170D01*
X122232722Y-84794035D01*
X123442871Y-85202377D02*
X123403623Y-85126774D01*
X123311164Y-85059599D01*
X123196313Y-85023243D01*
X123089890Y-85040098D01*
X123014287Y-85079346D01*
X122893900Y-85180233D01*
X122826724Y-85272692D01*
X122767976Y-85418363D01*
X122754012Y-85502393D01*
X122770868Y-85608817D01*
X122840936Y-85706812D01*
X122902575Y-85751596D01*
X123017426Y-85787952D01*
X123070638Y-85779523D01*
X123227380Y-85563786D01*
X123104101Y-85474219D01*
X123765279Y-85860415D02*
X123835347Y-85958410D01*
X123843774Y-86011622D01*
X123829810Y-86095653D01*
X123762635Y-86188112D01*
X123687032Y-86227360D01*
X123633820Y-86235788D01*
X123549789Y-86221824D01*
X123303231Y-86042689D01*
X123773459Y-85395476D01*
X123989197Y-85552219D01*
X124028445Y-85627821D01*
X124036873Y-85681033D01*
X124022909Y-85765065D01*
X123978125Y-85826704D01*
X123902522Y-85865952D01*
X123849310Y-85874379D01*
X123765279Y-85860415D01*
X123549541Y-85703672D01*
X124345070Y-85904951D02*
X124398281Y-85896523D01*
X124482313Y-85910488D01*
X124636411Y-86022447D01*
X124675658Y-86098050D01*
X124684087Y-86151261D01*
X124670122Y-86235293D01*
X124625339Y-86296932D01*
X124527344Y-86367000D01*
X123888806Y-86468134D01*
X124289462Y-86759228D01*
X124367957Y-86910434D02*
X124861072Y-87268703D01*
X125650817Y-87089073D02*
X125337331Y-87520549D01*
X125675853Y-86730557D02*
X125185877Y-87080893D01*
X125586533Y-87371987D01*
X144792609Y-101827553D02*
X144825111Y-101363678D01*
X144437342Y-101539864D02*
X144940799Y-100918147D01*
X145177643Y-101109940D01*
X145212881Y-101187494D01*
X145218512Y-101241073D01*
X145200169Y-101324259D01*
X145128247Y-101413075D01*
X145050693Y-101448312D01*
X144997114Y-101453944D01*
X144913928Y-101435601D01*
X144677084Y-101243808D01*
X145864203Y-101714924D02*
X145828965Y-101637370D01*
X145740149Y-101565448D01*
X145627358Y-101523131D01*
X145520199Y-101534393D01*
X145442645Y-101569631D01*
X145317143Y-101664079D01*
X145245221Y-101752896D01*
X145178930Y-101895292D01*
X145160587Y-101978477D01*
X145171850Y-102085637D01*
X145236693Y-102187165D01*
X145295904Y-102235113D01*
X145408695Y-102277430D01*
X145462275Y-102271798D01*
X145630093Y-102064559D01*
X145511671Y-101968663D01*
X146151731Y-102388934D02*
X146216573Y-102490462D01*
X146222204Y-102544042D01*
X146203862Y-102627227D01*
X146131939Y-102716043D01*
X146054386Y-102751280D01*
X146000806Y-102756912D01*
X145917620Y-102738569D01*
X145680776Y-102546776D01*
X146184232Y-101925060D01*
X146391471Y-102092879D01*
X146426708Y-102170432D01*
X146432340Y-102224012D01*
X146413997Y-102307197D01*
X146366049Y-102366408D01*
X146288495Y-102401646D01*
X146234915Y-102407276D01*
X146151731Y-102388934D01*
X145944491Y-102221115D01*
X146728396Y-102463753D02*
X146781975Y-102458121D01*
X146865161Y-102476464D01*
X147013188Y-102596335D01*
X147048425Y-102673888D01*
X147054057Y-102727468D01*
X147035714Y-102810654D01*
X146987766Y-102869864D01*
X146886238Y-102934707D01*
X146243282Y-103002285D01*
X146628154Y-103313948D01*
X146698628Y-103469055D02*
X147172318Y-103852641D01*
X147397899Y-103937275D02*
X147516321Y-104033171D01*
X147599506Y-104051514D01*
X147653086Y-104045882D01*
X147784220Y-104005015D01*
X147909722Y-103910566D01*
X148101514Y-103673722D01*
X148119858Y-103590536D01*
X148114225Y-103536956D01*
X148078989Y-103459403D01*
X147960566Y-103363507D01*
X147877381Y-103345163D01*
X147823802Y-103350795D01*
X147746248Y-103386032D01*
X147626377Y-103534060D01*
X147608035Y-103617245D01*
X147613665Y-103670825D01*
X147648903Y-103748379D01*
X147767325Y-103844275D01*
X147850510Y-103862618D01*
X147904091Y-103856986D01*
X147981644Y-103821749D01*
X130706141Y-81159017D02*
X130959460Y-80769060D01*
X130534893Y-80735161D02*
X131276640Y-80435476D01*
X131390806Y-80718046D01*
X131384026Y-80802960D01*
X131362976Y-80852552D01*
X131306603Y-80916414D01*
X131200640Y-80959226D01*
X131115726Y-80952447D01*
X131066135Y-80931397D01*
X131002272Y-80875024D01*
X130888106Y-80592454D01*
X131697982Y-81580028D02*
X131704762Y-81495115D01*
X131661950Y-81389151D01*
X131583816Y-81297458D01*
X131484632Y-81255356D01*
X131399719Y-81248577D01*
X131244163Y-81270338D01*
X131138199Y-81313151D01*
X131011184Y-81405555D01*
X130954813Y-81469417D01*
X130912711Y-81568602D01*
X130920203Y-81688837D01*
X130948744Y-81759479D01*
X131026877Y-81851172D01*
X131076470Y-81872222D01*
X131323718Y-81772327D01*
X131266635Y-81631042D01*
X131622693Y-82308927D02*
X131630184Y-82429161D01*
X131609133Y-82478753D01*
X131552761Y-82542616D01*
X131446797Y-82585428D01*
X131361884Y-82578648D01*
X131312292Y-82557598D01*
X131248429Y-82501226D01*
X131134263Y-82218655D01*
X131876010Y-81918970D01*
X131975906Y-82166219D01*
X131969126Y-82251132D01*
X131948076Y-82300725D01*
X131891703Y-82364588D01*
X131821061Y-82393129D01*
X131736147Y-82386349D01*
X131686555Y-82365298D01*
X131622693Y-82308927D01*
X131522798Y-82061677D01*
X132090783Y-82653937D02*
X132140375Y-82674988D01*
X132204237Y-82731360D01*
X132275591Y-82907967D01*
X132268811Y-82992879D01*
X132247761Y-83042472D01*
X132191389Y-83106335D01*
X132120746Y-83134876D01*
X132000512Y-83142367D01*
X131405407Y-82889760D01*
X131590927Y-83348937D01*
X131577367Y-83518763D02*
X131805699Y-84083904D01*
X132832149Y-84285497D02*
X132689442Y-83932284D01*
X132321959Y-84039670D01*
X132371550Y-84060721D01*
X132435413Y-84117093D01*
X132506767Y-84293699D01*
X132499987Y-84378612D01*
X132478937Y-84428205D01*
X132422564Y-84492067D01*
X132245958Y-84563421D01*
X132161045Y-84556641D01*
X132111452Y-84535590D01*
X132047590Y-84479219D01*
X131976237Y-84302612D01*
X131983016Y-84217699D01*
X132004067Y-84168107D01*
X133917246Y-84008927D02*
X133464138Y-84113469D01*
X133745998Y-84432783D02*
X133004251Y-84133097D01*
X133118416Y-83850527D01*
X133182279Y-83794155D01*
X133231871Y-83773104D01*
X133316785Y-83766325D01*
X133422748Y-83809137D01*
X133479120Y-83872999D01*
X133500171Y-83922591D01*
X133506950Y-84007505D01*
X133392784Y-84290075D01*
X133496235Y-83017087D02*
X133432372Y-83073459D01*
X133389560Y-83179422D01*
X133382069Y-83299657D01*
X133424170Y-83398841D01*
X133480542Y-83462704D01*
X133607557Y-83555108D01*
X133713521Y-83597920D01*
X133869077Y-83619682D01*
X133953989Y-83612902D01*
X134053174Y-83570801D01*
X134131307Y-83479107D01*
X134159849Y-83408465D01*
X134167340Y-83288231D01*
X134146289Y-83238638D01*
X133899040Y-83138744D01*
X133841957Y-83280029D01*
X134056729Y-82545061D02*
X134134862Y-82453368D01*
X134184455Y-82432318D01*
X134269368Y-82425538D01*
X134375332Y-82468350D01*
X134431703Y-82532212D01*
X134452755Y-82581804D01*
X134459534Y-82666718D01*
X134345368Y-82949289D01*
X133603621Y-82649603D01*
X133703516Y-82402354D01*
X133767379Y-82345982D01*
X133816971Y-82324931D01*
X133901884Y-82318152D01*
X133972527Y-82346693D01*
X134028899Y-82410556D01*
X134049949Y-82460148D01*
X134056729Y-82545061D01*
X133956834Y-82792310D01*
X133959678Y-81971719D02*
X133938627Y-81922127D01*
X133931848Y-81837213D01*
X134003202Y-81660607D01*
X134067064Y-81604235D01*
X134116656Y-81583184D01*
X134201570Y-81576405D01*
X134272212Y-81604946D01*
X134363905Y-81683079D01*
X134616512Y-82278184D01*
X134802032Y-81819007D01*
X134929757Y-81706263D02*
X135158088Y-81141122D01*
X134545489Y-80318398D02*
X134488406Y-80459683D01*
X134495186Y-80544596D01*
X134516237Y-80594188D01*
X134593659Y-80707643D01*
X134720674Y-80800047D01*
X135003244Y-80914213D01*
X135088157Y-80907433D01*
X135137749Y-80886383D01*
X135201612Y-80830011D01*
X135258695Y-80688725D01*
X135251915Y-80603813D01*
X135230864Y-80554220D01*
X135174493Y-80490357D01*
X134997886Y-80419004D01*
X134912973Y-80425783D01*
X134863381Y-80446834D01*
X134799518Y-80503206D01*
X134742435Y-80644491D01*
X134749215Y-80729405D01*
X134770265Y-80778997D01*
X134826638Y-80842859D01*
X145054169Y-93559988D02*
X144774369Y-93188574D01*
X144597304Y-93575943D02*
X144569384Y-92776430D01*
X144873961Y-92765794D01*
X144951435Y-92801207D01*
X144990836Y-92837949D01*
X145031567Y-92912764D01*
X145035555Y-93026979D01*
X145000143Y-93104453D01*
X144963400Y-93143855D01*
X144888585Y-93184586D01*
X144584009Y-93195222D01*
X145789019Y-92771958D02*
X145711545Y-92736545D01*
X145597330Y-92740533D01*
X145484443Y-92782594D01*
X145410957Y-92861396D01*
X145375545Y-92938870D01*
X145342791Y-93092488D01*
X145346779Y-93206704D01*
X145390169Y-93357663D01*
X145430900Y-93432477D01*
X145509704Y-93505963D01*
X145625249Y-93540046D01*
X145701393Y-93537387D01*
X145814280Y-93495327D01*
X145851022Y-93455924D01*
X145841716Y-93189421D01*
X145689428Y-93194739D01*
X146448209Y-93092004D02*
X146563755Y-93126087D01*
X146603157Y-93162831D01*
X146643887Y-93237645D01*
X146647876Y-93351861D01*
X146612463Y-93429334D01*
X146575721Y-93468737D01*
X146500906Y-93509467D01*
X146196329Y-93520103D01*
X146168410Y-92720591D01*
X146434914Y-92711284D01*
X146512387Y-92746697D01*
X146551790Y-92783439D01*
X146592521Y-92858254D01*
X146595180Y-92934398D01*
X146559767Y-93011872D01*
X146523023Y-93051273D01*
X146448209Y-93092004D01*
X146181705Y-93101311D01*
X146932510Y-92770144D02*
X146969252Y-92730743D01*
X147044067Y-92690012D01*
X147234427Y-92683365D01*
X147311900Y-92718777D01*
X147351302Y-92755520D01*
X147392033Y-92830335D01*
X147394692Y-92906478D01*
X147360609Y-93022024D01*
X146919698Y-93494843D01*
X147414635Y-93477559D01*
X147569582Y-93548385D02*
X148178735Y-93527113D01*
X148464698Y-92983469D02*
X148387224Y-92948056D01*
X148347823Y-92911312D01*
X148307092Y-92836498D01*
X148305762Y-92798427D01*
X148341175Y-92720953D01*
X148377917Y-92681551D01*
X148452732Y-92640820D01*
X148605021Y-92635502D01*
X148682494Y-92670915D01*
X148721896Y-92707657D01*
X148762627Y-92782473D01*
X148763956Y-92820544D01*
X148728543Y-92898017D01*
X148691800Y-92937420D01*
X148616986Y-92978151D01*
X148464698Y-92983469D01*
X148389883Y-93024199D01*
X148353141Y-93063601D01*
X148317728Y-93141075D01*
X148323046Y-93293363D01*
X148363777Y-93368177D01*
X148403178Y-93404920D01*
X148480652Y-93440333D01*
X148632940Y-93435015D01*
X148707754Y-93394284D01*
X148744498Y-93354882D01*
X148779910Y-93277409D01*
X148774592Y-93125121D01*
X148733861Y-93050306D01*
X148694459Y-93013563D01*
X148616986Y-92978151D01*
X141142885Y-86893240D02*
X140703228Y-86741785D01*
X140773049Y-87161942D02*
X140302820Y-86514728D01*
X140549378Y-86335594D01*
X140633410Y-86321629D01*
X140686621Y-86330057D01*
X140762224Y-86369305D01*
X140829399Y-86461764D01*
X140843364Y-86545795D01*
X140834936Y-86599006D01*
X140795688Y-86674610D01*
X140549130Y-86853744D01*
X141311443Y-85829009D02*
X141227411Y-85842974D01*
X141134953Y-85910149D01*
X141064885Y-86008144D01*
X141048029Y-86114567D01*
X141061993Y-86198598D01*
X141120741Y-86344269D01*
X141187916Y-86436728D01*
X141308303Y-86537615D01*
X141383906Y-86576863D01*
X141490330Y-86593718D01*
X141605181Y-86557362D01*
X141666820Y-86512579D01*
X141736887Y-86414584D01*
X141745315Y-86361372D01*
X141588572Y-86145634D01*
X141465294Y-86235202D01*
X142036904Y-85725725D02*
X142151755Y-85689369D01*
X142204966Y-85697798D01*
X142280569Y-85737045D01*
X142347745Y-85829505D01*
X142361709Y-85913535D01*
X142353282Y-85966747D01*
X142314033Y-86042351D01*
X142067476Y-86221485D01*
X141597248Y-85574272D01*
X141812986Y-85417529D01*
X141897016Y-85403565D01*
X141950228Y-85411992D01*
X142025832Y-85451240D01*
X142070615Y-85512879D01*
X142084580Y-85596911D01*
X142076151Y-85650123D01*
X142036904Y-85725725D01*
X141821166Y-85882468D01*
X142258425Y-85188074D02*
X142266853Y-85134863D01*
X142306101Y-85059260D01*
X142460199Y-84947301D01*
X142544230Y-84933337D01*
X142597442Y-84941764D01*
X142673045Y-84981012D01*
X142717829Y-85042651D01*
X142754185Y-85157502D01*
X142653050Y-85796040D01*
X143053706Y-85504947D01*
X143221769Y-85477019D02*
X143714884Y-85118749D01*
X143292332Y-84342721D02*
X143723807Y-84029236D01*
X143916658Y-84877976D01*
X131122643Y-102454665D02*
X130855976Y-102073712D01*
X130665500Y-102454665D02*
X130665500Y-101654665D01*
X130970262Y-101654665D01*
X131046453Y-101692760D01*
X131084548Y-101730855D01*
X131122643Y-101807046D01*
X131122643Y-101921331D01*
X131084548Y-101997522D01*
X131046453Y-102035617D01*
X130970262Y-102073712D01*
X130665500Y-102073712D01*
X131579786Y-102454665D02*
X131503595Y-102416570D01*
X131465500Y-102378474D01*
X131427405Y-102302284D01*
X131427405Y-102073712D01*
X131465500Y-101997522D01*
X131503595Y-101959427D01*
X131579786Y-101921331D01*
X131694072Y-101921331D01*
X131770262Y-101959427D01*
X131808357Y-101997522D01*
X131846453Y-102073712D01*
X131846453Y-102302284D01*
X131808357Y-102378474D01*
X131770262Y-102416570D01*
X131694072Y-102454665D01*
X131579786Y-102454665D01*
X132075024Y-101921331D02*
X132379786Y-101921331D01*
X132189310Y-101654665D02*
X132189310Y-102340379D01*
X132227405Y-102416570D01*
X132303596Y-102454665D01*
X132379786Y-102454665D01*
X132646453Y-102035617D02*
X132913120Y-102035617D01*
X133027406Y-102454665D02*
X132646453Y-102454665D01*
X132646453Y-101654665D01*
X133027406Y-101654665D01*
X133370263Y-101921331D02*
X133370263Y-102454665D01*
X133370263Y-101997522D02*
X133408358Y-101959427D01*
X133484549Y-101921331D01*
X133598835Y-101921331D01*
X133675025Y-101959427D01*
X133713120Y-102035617D01*
X133713120Y-102454665D01*
X134436930Y-102416570D02*
X134360740Y-102454665D01*
X134208359Y-102454665D01*
X134132168Y-102416570D01*
X134094073Y-102378474D01*
X134055978Y-102302284D01*
X134055978Y-102073712D01*
X134094073Y-101997522D01*
X134132168Y-101959427D01*
X134208359Y-101921331D01*
X134360740Y-101921331D01*
X134436930Y-101959427D01*
X134741692Y-101730855D02*
X134779787Y-101692760D01*
X134855978Y-101654665D01*
X135046454Y-101654665D01*
X135122644Y-101692760D01*
X135160740Y-101730855D01*
X135198835Y-101807046D01*
X135198835Y-101883236D01*
X135160740Y-101997522D01*
X134703597Y-102454665D01*
X135198835Y-102454665D01*
X88694140Y-110630429D02*
X88241961Y-110738921D01*
X88526596Y-111055763D02*
X87782262Y-110762562D01*
X87893958Y-110479006D01*
X87957326Y-110422079D01*
X88006732Y-110400596D01*
X88091584Y-110393076D01*
X88197916Y-110434962D01*
X88254844Y-110498330D01*
X88276326Y-110547736D01*
X88283847Y-110632588D01*
X88172151Y-110916143D01*
X88264489Y-109642300D02*
X88201121Y-109699228D01*
X88159235Y-109805561D01*
X88152793Y-109925856D01*
X88195758Y-110024670D01*
X88252685Y-110088038D01*
X88380501Y-110179330D01*
X88486835Y-110221216D01*
X88642575Y-110241619D01*
X88727425Y-110234099D01*
X88826239Y-110191134D01*
X88903569Y-110098762D01*
X88931493Y-110027873D01*
X88937935Y-109907578D01*
X88916451Y-109858171D01*
X88668340Y-109760438D01*
X88612493Y-109902216D01*
X88820842Y-109165402D02*
X88898173Y-109073030D01*
X88947580Y-109051548D01*
X89032430Y-109044027D01*
X89138764Y-109085913D01*
X89195690Y-109149281D01*
X89217174Y-109198688D01*
X89224694Y-109283539D01*
X89112998Y-109567095D01*
X88368664Y-109273894D01*
X88466398Y-109025782D01*
X88529766Y-108968856D01*
X88579172Y-108947372D01*
X88664024Y-108939852D01*
X88734912Y-108967776D01*
X88791840Y-109031144D01*
X88813322Y-109080551D01*
X88820842Y-109165402D01*
X88723109Y-109413513D01*
X89559781Y-108432871D02*
X89392237Y-108858205D01*
X89476009Y-108645539D02*
X88731675Y-108352338D01*
X88810084Y-108465112D01*
X88853049Y-108563925D01*
X88860570Y-108648776D01*
X89686517Y-108319017D02*
X89909908Y-107751905D01*
X90062411Y-107156870D02*
X89894868Y-107582204D01*
X89978639Y-107369537D02*
X89234305Y-107076336D01*
X89312714Y-107189110D01*
X89355680Y-107287924D01*
X89363200Y-107372774D01*
X82433918Y-104220953D02*
X81986937Y-104092716D01*
X82078651Y-104508642D02*
X81575194Y-103886926D01*
X81812039Y-103695133D01*
X81895224Y-103676789D01*
X81948804Y-103682421D01*
X82026358Y-103717658D01*
X82098280Y-103806475D01*
X82116623Y-103889660D01*
X82110991Y-103943239D01*
X82075754Y-104020793D01*
X81838909Y-104212586D01*
X82546547Y-103149359D02*
X82463361Y-103167702D01*
X82374545Y-103239624D01*
X82309702Y-103341152D01*
X82298438Y-103448311D01*
X82316782Y-103531497D01*
X82383073Y-103673893D01*
X82454995Y-103762710D01*
X82580497Y-103857158D01*
X82658050Y-103892395D01*
X82765210Y-103903658D01*
X82878001Y-103861341D01*
X82937212Y-103813393D01*
X83002055Y-103711865D01*
X83007686Y-103658285D01*
X82839867Y-103451047D01*
X82721445Y-103546943D01*
X83265608Y-103008249D02*
X83378399Y-102965932D01*
X83431979Y-102971564D01*
X83509532Y-103006801D01*
X83581455Y-103095618D01*
X83599797Y-103178803D01*
X83594166Y-103232383D01*
X83558929Y-103309937D01*
X83322084Y-103501730D01*
X82818628Y-102880013D01*
X83025867Y-102712194D01*
X83109052Y-102693851D01*
X83162632Y-102699482D01*
X83240186Y-102734720D01*
X83288134Y-102793931D01*
X83306477Y-102877116D01*
X83300845Y-102930696D01*
X83265608Y-103008249D01*
X83058369Y-103176068D01*
X84269463Y-102734558D02*
X83914196Y-103022247D01*
X84091829Y-102878403D02*
X83588372Y-102256686D01*
X83601084Y-102393450D01*
X83589821Y-102500610D01*
X83554584Y-102578164D01*
X84435833Y-102697872D02*
X84909522Y-102314286D01*
X84524488Y-101596673D02*
X84530119Y-101543094D01*
X84565357Y-101465540D01*
X84713384Y-101345669D01*
X84796569Y-101327327D01*
X84850149Y-101332958D01*
X84927703Y-101368195D01*
X84975651Y-101427406D01*
X85017968Y-101540197D01*
X84950391Y-102183153D01*
X85335263Y-101871490D01*
X81071708Y-93878781D02*
X80818498Y-93488753D01*
X80614843Y-93862827D02*
X80642763Y-93063314D01*
X80947339Y-93073950D01*
X81022154Y-93114681D01*
X81058897Y-93154082D01*
X81094310Y-93231556D01*
X81090321Y-93345771D01*
X81049590Y-93420587D01*
X81010189Y-93457329D01*
X80932715Y-93492742D01*
X80628139Y-93482106D01*
X81859739Y-93143930D02*
X81784924Y-93103199D01*
X81670708Y-93099210D01*
X81555163Y-93133294D01*
X81476359Y-93206778D01*
X81435628Y-93281593D01*
X81392238Y-93432552D01*
X81388250Y-93546768D01*
X81421004Y-93700386D01*
X81456416Y-93777859D01*
X81529902Y-93856663D01*
X81642789Y-93898723D01*
X81718932Y-93901382D01*
X81834478Y-93867299D01*
X81873880Y-93830556D01*
X81883186Y-93564052D01*
X81730898Y-93558734D01*
X82494998Y-93509180D02*
X82607885Y-93551240D01*
X82644627Y-93590642D01*
X82680040Y-93668115D01*
X82676051Y-93782332D01*
X82635321Y-93857146D01*
X82595919Y-93893889D01*
X82518445Y-93929302D01*
X82213869Y-93918666D01*
X82241788Y-93119153D01*
X82508293Y-93128460D01*
X82583107Y-93169190D01*
X82619850Y-93208592D01*
X82655263Y-93286066D01*
X82652604Y-93362209D01*
X82611873Y-93437024D01*
X82572471Y-93473767D01*
X82494998Y-93509180D01*
X82228493Y-93499873D01*
X83432174Y-93961210D02*
X82975310Y-93945256D01*
X83203741Y-93953233D02*
X83231661Y-93153720D01*
X83151529Y-93265277D01*
X83072725Y-93338762D01*
X82995252Y-93374175D01*
X83581803Y-94042671D02*
X84190956Y-94063944D01*
X84335751Y-93192276D02*
X84830687Y-93209559D01*
X84553547Y-93504829D01*
X84667763Y-93508818D01*
X84742577Y-93549549D01*
X84779321Y-93588950D01*
X84814733Y-93666424D01*
X84808086Y-93856784D01*
X84767355Y-93931598D01*
X84727953Y-93968341D01*
X84650480Y-94003754D01*
X84422047Y-93995777D01*
X84347233Y-93955046D01*
X84310490Y-93915644D01*
X85878840Y-85523335D02*
X85887021Y-85058394D01*
X85509004Y-85254633D02*
X85979232Y-84607419D01*
X86225790Y-84786554D01*
X86265038Y-84862157D01*
X86273466Y-84915368D01*
X86259501Y-84999400D01*
X86192326Y-85091858D01*
X86116723Y-85131107D01*
X86063511Y-85139534D01*
X85979480Y-85125570D01*
X85732922Y-84946435D01*
X86943071Y-85354777D02*
X86903823Y-85279174D01*
X86811364Y-85211999D01*
X86696513Y-85175643D01*
X86590090Y-85192498D01*
X86514487Y-85231746D01*
X86394100Y-85332633D01*
X86326924Y-85425092D01*
X86268176Y-85570763D01*
X86254212Y-85654793D01*
X86271068Y-85761217D01*
X86341136Y-85859212D01*
X86402775Y-85903996D01*
X86517626Y-85940352D01*
X86570838Y-85931923D01*
X86727580Y-85716186D01*
X86604301Y-85626619D01*
X87265479Y-86012815D02*
X87335547Y-86110810D01*
X87343974Y-86164022D01*
X87330010Y-86248053D01*
X87262835Y-86340512D01*
X87187232Y-86379760D01*
X87134020Y-86388188D01*
X87049989Y-86374224D01*
X86803431Y-86195089D01*
X87273659Y-85547876D01*
X87489397Y-85704619D01*
X87528645Y-85780221D01*
X87537073Y-85833433D01*
X87523109Y-85917465D01*
X87478325Y-85979104D01*
X87402722Y-86018352D01*
X87349510Y-86026779D01*
X87265479Y-86012815D01*
X87049741Y-85856072D01*
X87789662Y-86911628D02*
X87419825Y-86642926D01*
X87604743Y-86777276D02*
X88074971Y-86130063D01*
X87946157Y-86177738D01*
X87839733Y-86194594D01*
X87755703Y-86180630D01*
X87868157Y-87062834D02*
X88361272Y-87421103D01*
X89151017Y-87241473D02*
X88837531Y-87672949D01*
X89176053Y-86882957D02*
X88686077Y-87233293D01*
X89086733Y-87524387D01*
X94257141Y-81286017D02*
X94510460Y-80896060D01*
X94085893Y-80862161D02*
X94827640Y-80562476D01*
X94941806Y-80845046D01*
X94935026Y-80929960D01*
X94913976Y-80979552D01*
X94857603Y-81043414D01*
X94751640Y-81086226D01*
X94666726Y-81079447D01*
X94617135Y-81058397D01*
X94553272Y-81002024D01*
X94439106Y-80719454D01*
X95248982Y-81707028D02*
X95255762Y-81622115D01*
X95212950Y-81516151D01*
X95134816Y-81424458D01*
X95035632Y-81382356D01*
X94950719Y-81375577D01*
X94795163Y-81397338D01*
X94689199Y-81440151D01*
X94562184Y-81532555D01*
X94505813Y-81596417D01*
X94463711Y-81695602D01*
X94471203Y-81815837D01*
X94499744Y-81886479D01*
X94577877Y-81978172D01*
X94627470Y-81999222D01*
X94874718Y-81899327D01*
X94817635Y-81758042D01*
X95173693Y-82435927D02*
X95181184Y-82556161D01*
X95160133Y-82605753D01*
X95103761Y-82669616D01*
X94997797Y-82712428D01*
X94912884Y-82705648D01*
X94863292Y-82684598D01*
X94799429Y-82628226D01*
X94685263Y-82345655D01*
X95427010Y-82045970D01*
X95526906Y-82293219D01*
X95520126Y-82378132D01*
X95499076Y-82427725D01*
X95442703Y-82491588D01*
X95372061Y-82520129D01*
X95287147Y-82513349D01*
X95237555Y-82492298D01*
X95173693Y-82435927D01*
X95073798Y-82188677D01*
X95141927Y-83475937D02*
X94970678Y-83052081D01*
X95056302Y-83264009D02*
X95798049Y-82964323D01*
X95663545Y-82936493D01*
X95564360Y-82894392D01*
X95500498Y-82838020D01*
X95128367Y-83645763D02*
X95356699Y-84210904D01*
X96383149Y-84412497D02*
X96240442Y-84059284D01*
X95872959Y-84166670D01*
X95922550Y-84187721D01*
X95986413Y-84244093D01*
X96057767Y-84420699D01*
X96050987Y-84505612D01*
X96029937Y-84555205D01*
X95973564Y-84619067D01*
X95796958Y-84690421D01*
X95712045Y-84683641D01*
X95662452Y-84662590D01*
X95598590Y-84606219D01*
X95527237Y-84429612D01*
X95534016Y-84344699D01*
X95555067Y-84295107D01*
X97722246Y-84135927D02*
X97269138Y-84240469D01*
X97550998Y-84559783D02*
X96809251Y-84260097D01*
X96923416Y-83977527D01*
X96987279Y-83921155D01*
X97036871Y-83900104D01*
X97121785Y-83893325D01*
X97227748Y-83936137D01*
X97284120Y-83999999D01*
X97305171Y-84049591D01*
X97311950Y-84134505D01*
X97197784Y-84417075D01*
X97301235Y-83144087D02*
X97237372Y-83200459D01*
X97194560Y-83306422D01*
X97187069Y-83426657D01*
X97229170Y-83525841D01*
X97285542Y-83589704D01*
X97412557Y-83682108D01*
X97518521Y-83724920D01*
X97674077Y-83746682D01*
X97758989Y-83739902D01*
X97858174Y-83697801D01*
X97936307Y-83606107D01*
X97964849Y-83535465D01*
X97972340Y-83415231D01*
X97951289Y-83365638D01*
X97704040Y-83265744D01*
X97646957Y-83407029D01*
X97861729Y-82672061D02*
X97939862Y-82580368D01*
X97989455Y-82559318D01*
X98074368Y-82552538D01*
X98180332Y-82595350D01*
X98236703Y-82659212D01*
X98257755Y-82708804D01*
X98264534Y-82793718D01*
X98150368Y-83076289D01*
X97408621Y-82776603D01*
X97508516Y-82529354D01*
X97572379Y-82472982D01*
X97621971Y-82451931D01*
X97706884Y-82445152D01*
X97777527Y-82473693D01*
X97833899Y-82537556D01*
X97854949Y-82587148D01*
X97861729Y-82672061D01*
X97761834Y-82919310D01*
X98607032Y-81946007D02*
X98435783Y-82369863D01*
X98521407Y-82157935D02*
X97779660Y-81858250D01*
X97857082Y-81971704D01*
X97899183Y-82070889D01*
X97905963Y-82155802D01*
X98734757Y-81833263D02*
X98963088Y-81268122D01*
X98350489Y-80445398D02*
X98293406Y-80586683D01*
X98300186Y-80671596D01*
X98321237Y-80721188D01*
X98398659Y-80834643D01*
X98525674Y-80927047D01*
X98808244Y-81041213D01*
X98893157Y-81034433D01*
X98942749Y-81013383D01*
X99006612Y-80957011D01*
X99063695Y-80815725D01*
X99056915Y-80730813D01*
X99035864Y-80681220D01*
X98979493Y-80617357D01*
X98802886Y-80546004D01*
X98717973Y-80552783D01*
X98668381Y-80573834D01*
X98604518Y-80630206D01*
X98547435Y-80771491D01*
X98554215Y-80856405D01*
X98575265Y-80905997D01*
X98631638Y-80969859D01*
X104719284Y-87121840D02*
X104279627Y-86970385D01*
X104349448Y-87390542D02*
X103879219Y-86743328D01*
X104125777Y-86564194D01*
X104209809Y-86550229D01*
X104263020Y-86558657D01*
X104338623Y-86597905D01*
X104405798Y-86690364D01*
X104419763Y-86774395D01*
X104411335Y-86827606D01*
X104372087Y-86903210D01*
X104125529Y-87082344D01*
X104887842Y-86057609D02*
X104803810Y-86071574D01*
X104711352Y-86138749D01*
X104641284Y-86236744D01*
X104624428Y-86343167D01*
X104638392Y-86427198D01*
X104697140Y-86572869D01*
X104764315Y-86665328D01*
X104884702Y-86766215D01*
X104960305Y-86805463D01*
X105066729Y-86822318D01*
X105181580Y-86785962D01*
X105243219Y-86741179D01*
X105313286Y-86643184D01*
X105321714Y-86589972D01*
X105164971Y-86374234D01*
X105041693Y-86463802D01*
X105613303Y-85954325D02*
X105728154Y-85917969D01*
X105781365Y-85926398D01*
X105856968Y-85965645D01*
X105924144Y-86058105D01*
X105938108Y-86142135D01*
X105929681Y-86195347D01*
X105890432Y-86270951D01*
X105643875Y-86450085D01*
X105173647Y-85802872D01*
X105389385Y-85646129D01*
X105473415Y-85632165D01*
X105526627Y-85640592D01*
X105602231Y-85679840D01*
X105647014Y-85741479D01*
X105660979Y-85825511D01*
X105652550Y-85878723D01*
X105613303Y-85954325D01*
X105397565Y-86111068D01*
X106630105Y-85733547D02*
X106260269Y-86002249D01*
X106445187Y-85867898D02*
X105974959Y-85220685D01*
X105980495Y-85357926D01*
X105963639Y-85464350D01*
X105924391Y-85539953D01*
X106798168Y-85705619D02*
X107291283Y-85347349D01*
X106868731Y-84571321D02*
X107300206Y-84257836D01*
X107493057Y-85106576D01*
X108782969Y-93813988D02*
X108503169Y-93442574D01*
X108326104Y-93829943D02*
X108298184Y-93030430D01*
X108602761Y-93019794D01*
X108680235Y-93055207D01*
X108719636Y-93091949D01*
X108760367Y-93166764D01*
X108764355Y-93280979D01*
X108728943Y-93358453D01*
X108692200Y-93397855D01*
X108617385Y-93438586D01*
X108312809Y-93449222D01*
X109517819Y-93025958D02*
X109440345Y-92990545D01*
X109326130Y-92994533D01*
X109213243Y-93036594D01*
X109139757Y-93115396D01*
X109104345Y-93192870D01*
X109071591Y-93346488D01*
X109075579Y-93460704D01*
X109118969Y-93611663D01*
X109159700Y-93686477D01*
X109238504Y-93759963D01*
X109354049Y-93794046D01*
X109430193Y-93791387D01*
X109543080Y-93749327D01*
X109579822Y-93709924D01*
X109570516Y-93443421D01*
X109418228Y-93448739D01*
X110177009Y-93346004D02*
X110292555Y-93380087D01*
X110331957Y-93416831D01*
X110372687Y-93491645D01*
X110376676Y-93605861D01*
X110341263Y-93683334D01*
X110304521Y-93722737D01*
X110229706Y-93763467D01*
X109925129Y-93774103D01*
X109897210Y-92974591D01*
X110163714Y-92965284D01*
X110241187Y-93000697D01*
X110280590Y-93037439D01*
X110321321Y-93112254D01*
X110323980Y-93188398D01*
X110288567Y-93265872D01*
X110251823Y-93305273D01*
X110177009Y-93346004D01*
X109910505Y-93355311D01*
X111143435Y-93731559D02*
X110686570Y-93747513D01*
X110915002Y-93739536D02*
X110887082Y-92940024D01*
X110814927Y-93056898D01*
X110741442Y-93135702D01*
X110666628Y-93176432D01*
X111298382Y-93802385D02*
X111907535Y-93781113D01*
X112193498Y-93237469D02*
X112116024Y-93202056D01*
X112076623Y-93165312D01*
X112035892Y-93090498D01*
X112034562Y-93052427D01*
X112069975Y-92974953D01*
X112106717Y-92935551D01*
X112181532Y-92894820D01*
X112333821Y-92889502D01*
X112411294Y-92924915D01*
X112450696Y-92961657D01*
X112491427Y-93036473D01*
X112492756Y-93074544D01*
X112457343Y-93152017D01*
X112420600Y-93191420D01*
X112345786Y-93232151D01*
X112193498Y-93237469D01*
X112118683Y-93278199D01*
X112081941Y-93317601D01*
X112046528Y-93395075D01*
X112051846Y-93547363D01*
X112092577Y-93622177D01*
X112131978Y-93658920D01*
X112209452Y-93694333D01*
X112361740Y-93689015D01*
X112436554Y-93648284D01*
X112473298Y-93608882D01*
X112508710Y-93531409D01*
X112503392Y-93379121D01*
X112462661Y-93304306D01*
X112423259Y-93267563D01*
X112345786Y-93232151D01*
X108521409Y-102030753D02*
X108553911Y-101566878D01*
X108166142Y-101743064D02*
X108669599Y-101121347D01*
X108906443Y-101313140D01*
X108941681Y-101390694D01*
X108947312Y-101444273D01*
X108928969Y-101527459D01*
X108857047Y-101616275D01*
X108779493Y-101651512D01*
X108725914Y-101657144D01*
X108642728Y-101638801D01*
X108405884Y-101447008D01*
X109593003Y-101918124D02*
X109557765Y-101840570D01*
X109468949Y-101768648D01*
X109356158Y-101726331D01*
X109248999Y-101737593D01*
X109171445Y-101772831D01*
X109045943Y-101867279D01*
X108974021Y-101956096D01*
X108907730Y-102098492D01*
X108889387Y-102181677D01*
X108900650Y-102288837D01*
X108965493Y-102390365D01*
X109024704Y-102438313D01*
X109137495Y-102480630D01*
X109191075Y-102474998D01*
X109358893Y-102267759D01*
X109240471Y-102171863D01*
X109880531Y-102592134D02*
X109945373Y-102693662D01*
X109951004Y-102747242D01*
X109932662Y-102830427D01*
X109860739Y-102919243D01*
X109783186Y-102954480D01*
X109729606Y-102960112D01*
X109646420Y-102941769D01*
X109409576Y-102749976D01*
X109913032Y-102128260D01*
X110120271Y-102296079D01*
X110155508Y-102373632D01*
X110161140Y-102427212D01*
X110142797Y-102510397D01*
X110094849Y-102569608D01*
X110017295Y-102604846D01*
X109963715Y-102610476D01*
X109880531Y-102592134D01*
X109673291Y-102424315D01*
X110356954Y-103517148D02*
X110001687Y-103229459D01*
X110179320Y-103373303D02*
X110682777Y-102751586D01*
X110551644Y-102792454D01*
X110444484Y-102803717D01*
X110361299Y-102785375D01*
X110427428Y-103672255D02*
X110901118Y-104055841D01*
X111126699Y-104140475D02*
X111245121Y-104236371D01*
X111328306Y-104254714D01*
X111381886Y-104249082D01*
X111513020Y-104208215D01*
X111638522Y-104113766D01*
X111830314Y-103876922D01*
X111848658Y-103793736D01*
X111843025Y-103740156D01*
X111807789Y-103662603D01*
X111689366Y-103566707D01*
X111606181Y-103548363D01*
X111552602Y-103553995D01*
X111475048Y-103589232D01*
X111355177Y-103737260D01*
X111336835Y-103820445D01*
X111342465Y-103874025D01*
X111377703Y-103951579D01*
X111496125Y-104047475D01*
X111579310Y-104065818D01*
X111632891Y-104060186D01*
X111710444Y-104024949D01*
X103248075Y-106806003D02*
X103504786Y-106418272D01*
X103080531Y-106380670D02*
X103824865Y-106087469D01*
X103936561Y-106371025D01*
X103929041Y-106455876D01*
X103907558Y-106505282D01*
X103850631Y-106568650D01*
X103744298Y-106610536D01*
X103659447Y-106603016D01*
X103610041Y-106581533D01*
X103546672Y-106524606D01*
X103434977Y-106241050D01*
X104236204Y-107235654D02*
X104243724Y-107150803D01*
X104201838Y-107044470D01*
X104124508Y-106952098D01*
X104025695Y-106909133D01*
X103940844Y-106901612D01*
X103785104Y-106922016D01*
X103678771Y-106963902D01*
X103550955Y-107055194D01*
X103494028Y-107118562D01*
X103451063Y-107217376D01*
X103457504Y-107337671D01*
X103485428Y-107408560D01*
X103562758Y-107500931D01*
X103612165Y-107522413D01*
X103860276Y-107424680D01*
X103804428Y-107282902D01*
X104154557Y-107963868D02*
X104160998Y-108084163D01*
X104139515Y-108133570D01*
X104082588Y-108196938D01*
X103976255Y-108238824D01*
X103891404Y-108231303D01*
X103841997Y-108209821D01*
X103778629Y-108152894D01*
X103666933Y-107869338D01*
X104411267Y-107576137D01*
X104509001Y-107824248D01*
X104501481Y-107909099D01*
X104479999Y-107958506D01*
X104423071Y-108021874D01*
X104352182Y-108049798D01*
X104267331Y-108042278D01*
X104217925Y-108020794D01*
X104154557Y-107963868D01*
X104056823Y-107715756D01*
X104113716Y-109003561D02*
X103946172Y-108578228D01*
X104029944Y-108790894D02*
X104774278Y-108497693D01*
X104640021Y-108468690D01*
X104541208Y-108425725D01*
X104477840Y-108368798D01*
X104098675Y-109173263D02*
X104322066Y-109740375D01*
X104616346Y-110279563D02*
X104448803Y-109854229D01*
X104532574Y-110066896D02*
X105276908Y-109773695D01*
X105142652Y-109744692D01*
X105043838Y-109701726D01*
X104980470Y-109644800D01*
X105542186Y-110447140D02*
X105570110Y-110518030D01*
X105562589Y-110602880D01*
X105541107Y-110652286D01*
X105484180Y-110715655D01*
X105356364Y-110806947D01*
X105179141Y-110876757D01*
X105023401Y-110897161D01*
X104938551Y-110889639D01*
X104889144Y-110868157D01*
X104825776Y-110811231D01*
X104797852Y-110740341D01*
X104805372Y-110655491D01*
X104826855Y-110606083D01*
X104883782Y-110542715D01*
X105011598Y-110451423D01*
X105188820Y-110381614D01*
X105344560Y-110361210D01*
X105429411Y-110368730D01*
X105478818Y-110390214D01*
X105542186Y-110447140D01*
X94729523Y-102718825D02*
X94462856Y-102337872D01*
X94272380Y-102718825D02*
X94272380Y-101918825D01*
X94577142Y-101918825D01*
X94653333Y-101956920D01*
X94691428Y-101995015D01*
X94729523Y-102071206D01*
X94729523Y-102185491D01*
X94691428Y-102261682D01*
X94653333Y-102299777D01*
X94577142Y-102337872D01*
X94272380Y-102337872D01*
X95186666Y-102718825D02*
X95110475Y-102680730D01*
X95072380Y-102642634D01*
X95034285Y-102566444D01*
X95034285Y-102337872D01*
X95072380Y-102261682D01*
X95110475Y-102223587D01*
X95186666Y-102185491D01*
X95300952Y-102185491D01*
X95377142Y-102223587D01*
X95415237Y-102261682D01*
X95453333Y-102337872D01*
X95453333Y-102566444D01*
X95415237Y-102642634D01*
X95377142Y-102680730D01*
X95300952Y-102718825D01*
X95186666Y-102718825D01*
X95681904Y-102185491D02*
X95986666Y-102185491D01*
X95796190Y-101918825D02*
X95796190Y-102604539D01*
X95834285Y-102680730D01*
X95910476Y-102718825D01*
X95986666Y-102718825D01*
X96253333Y-102299777D02*
X96520000Y-102299777D01*
X96634286Y-102718825D02*
X96253333Y-102718825D01*
X96253333Y-101918825D01*
X96634286Y-101918825D01*
X96977143Y-102185491D02*
X96977143Y-102718825D01*
X96977143Y-102261682D02*
X97015238Y-102223587D01*
X97091429Y-102185491D01*
X97205715Y-102185491D01*
X97281905Y-102223587D01*
X97320000Y-102299777D01*
X97320000Y-102718825D01*
X98043810Y-102680730D02*
X97967620Y-102718825D01*
X97815239Y-102718825D01*
X97739048Y-102680730D01*
X97700953Y-102642634D01*
X97662858Y-102566444D01*
X97662858Y-102337872D01*
X97700953Y-102261682D01*
X97739048Y-102223587D01*
X97815239Y-102185491D01*
X97967620Y-102185491D01*
X98043810Y-102223587D01*
X98805715Y-102718825D02*
X98348572Y-102718825D01*
X98577143Y-102718825D02*
X98577143Y-101918825D01*
X98500953Y-102033110D01*
X98424762Y-102109301D01*
X98348572Y-102147396D01*
X116369905Y-109298352D02*
X115569905Y-109298352D01*
X116293714Y-108460257D02*
X116331810Y-108498352D01*
X116369905Y-108612638D01*
X116369905Y-108688828D01*
X116331810Y-108803114D01*
X116255619Y-108879305D01*
X116179429Y-108917400D01*
X116027048Y-108955495D01*
X115912762Y-108955495D01*
X115760381Y-108917400D01*
X115684190Y-108879305D01*
X115608000Y-108803114D01*
X115569905Y-108688828D01*
X115569905Y-108612638D01*
X115608000Y-108498352D01*
X115646095Y-108460257D01*
X116369905Y-107698352D02*
X116369905Y-108155495D01*
X116369905Y-107926924D02*
X115569905Y-107926924D01*
X115684190Y-108003114D01*
X115760381Y-108079305D01*
X115798476Y-108155495D01*
X120303307Y-110206754D02*
X120265212Y-110244850D01*
X120150926Y-110282945D01*
X120074736Y-110282945D01*
X119960450Y-110244850D01*
X119884259Y-110168659D01*
X119846164Y-110092469D01*
X119808069Y-109940088D01*
X119808069Y-109825802D01*
X119846164Y-109673421D01*
X119884259Y-109597230D01*
X119960450Y-109521040D01*
X120074736Y-109482945D01*
X120150926Y-109482945D01*
X120265212Y-109521040D01*
X120303307Y-109559135D01*
X121065212Y-110282945D02*
X120608069Y-110282945D01*
X120836640Y-110282945D02*
X120836640Y-109482945D01*
X120760450Y-109597230D01*
X120684259Y-109673421D01*
X120608069Y-109711516D01*
X96004321Y-112017933D02*
X95903738Y-111563930D01*
X95581976Y-111842992D02*
X95888123Y-111103889D01*
X96169686Y-111220516D01*
X96225499Y-111284868D01*
X96246116Y-111334642D01*
X96252154Y-111419611D01*
X96208419Y-111525197D01*
X96144067Y-111581010D01*
X96094294Y-111601627D01*
X96009324Y-111607665D01*
X95727761Y-111491038D01*
X96708230Y-112309502D02*
X96285885Y-112134561D01*
X96497057Y-112222031D02*
X96803204Y-111482927D01*
X96689078Y-111559356D01*
X96589530Y-111600591D01*
X96504561Y-111606629D01*
X132053172Y-111755267D02*
X131952589Y-111301264D01*
X131630827Y-111580326D02*
X131936974Y-110841223D01*
X132218537Y-110957850D01*
X132274350Y-111022202D01*
X132294967Y-111071976D01*
X132301005Y-111156945D01*
X132257270Y-111262531D01*
X132192918Y-111318344D01*
X132143145Y-111338961D01*
X132058175Y-111344999D01*
X131776612Y-111228372D01*
X132611726Y-111203181D02*
X132661499Y-111182565D01*
X132746469Y-111176526D01*
X132922446Y-111249418D01*
X132978258Y-111313770D01*
X132998876Y-111363544D01*
X133004914Y-111448514D01*
X132975757Y-111518904D01*
X132896827Y-111609912D01*
X132299541Y-111857316D01*
X132757081Y-112046836D01*
%LPC*%
D13*
X110947200Y-81559400D03*
D14*
X113487200Y-81559400D03*
X116027200Y-81559400D03*
X118567200Y-81559400D03*
D15*
X147423200Y-112422000D03*
X147423200Y-82573800D03*
X82573800Y-112422000D03*
D13*
X122478800Y-113563400D03*
D14*
X119938800Y-113563400D03*
X117398800Y-113563400D03*
X114858800Y-113563400D03*
X112318800Y-113563400D03*
X109778800Y-113563400D03*
X107238800Y-113563400D03*
D10*
G36*
X120410436Y-103527809D02*
X121291484Y-104615814D01*
X119737192Y-105874455D01*
X118856144Y-104786450D01*
X120410436Y-103527809D01*
X120410436Y-103527809D01*
G37*
G36*
X122424262Y-106014677D02*
X123305310Y-107102682D01*
X121751018Y-108361323D01*
X120869970Y-107273318D01*
X122424262Y-106014677D01*
X122424262Y-106014677D01*
G37*
G36*
X124296166Y-100381207D02*
X125177214Y-101469212D01*
X123622922Y-102727853D01*
X122741874Y-101639848D01*
X124296166Y-100381207D01*
X124296166Y-100381207D01*
G37*
G36*
X126309992Y-102868075D02*
X127191040Y-103956080D01*
X125636748Y-105214721D01*
X124755700Y-104126716D01*
X126309992Y-102868075D01*
X126309992Y-102868075D01*
G37*
G36*
X135394990Y-110867017D02*
X136697575Y-110353916D01*
X137430578Y-112214751D01*
X136127993Y-112727852D01*
X135394990Y-110867017D01*
X135394990Y-110867017D01*
G37*
G36*
X138372326Y-109694213D02*
X139674911Y-109181112D01*
X140407914Y-111041947D01*
X139105329Y-111555048D01*
X138372326Y-109694213D01*
X138372326Y-109694213D01*
G37*
G36*
X133562484Y-106214929D02*
X134865069Y-105701828D01*
X135598072Y-107562663D01*
X134295487Y-108075764D01*
X133562484Y-106214929D01*
X133562484Y-106214929D01*
G37*
G36*
X136539820Y-105042125D02*
X137842405Y-104529024D01*
X138575408Y-106389859D01*
X137272823Y-106902960D01*
X136539820Y-105042125D01*
X136539820Y-105042125D01*
G37*
G36*
X119039758Y-94468295D02*
X118990899Y-95867442D01*
X116992118Y-95797643D01*
X117040977Y-94398496D01*
X119039758Y-94468295D01*
X119039758Y-94468295D01*
G37*
G36*
X118928080Y-97666346D02*
X118879221Y-99065493D01*
X116880440Y-98995694D01*
X116929299Y-97596547D01*
X118928080Y-97666346D01*
X118928080Y-97666346D01*
G37*
G36*
X124036712Y-94642792D02*
X123987853Y-96041939D01*
X121989072Y-95972140D01*
X122037931Y-94572993D01*
X124036712Y-94642792D01*
X124036712Y-94642792D01*
G37*
G36*
X123925034Y-97840843D02*
X123876175Y-99239990D01*
X121877394Y-99170191D01*
X121926253Y-97771044D01*
X123925034Y-97840843D01*
X123925034Y-97840843D01*
G37*
G36*
X126285949Y-109239532D02*
X127588534Y-109752633D01*
X126855531Y-111613468D01*
X125552946Y-111100367D01*
X126285949Y-109239532D01*
X126285949Y-109239532D01*
G37*
G36*
X129263285Y-110412336D02*
X130565870Y-110925437D01*
X129832867Y-112786272D01*
X128530282Y-112273171D01*
X129263285Y-110412336D01*
X129263285Y-110412336D01*
G37*
G36*
X128118455Y-104587444D02*
X129421040Y-105100545D01*
X128688037Y-106961380D01*
X127385452Y-106448279D01*
X128118455Y-104587444D01*
X128118455Y-104587444D01*
G37*
G36*
X131095791Y-105760248D02*
X132398376Y-106273349D01*
X131665373Y-108134184D01*
X130362788Y-107621083D01*
X131095791Y-105760248D01*
X131095791Y-105760248D01*
G37*
G36*
X123068120Y-86838079D02*
X122245220Y-87970703D01*
X120627186Y-86795133D01*
X121450086Y-85662509D01*
X123068120Y-86838079D01*
X123068120Y-86838079D01*
G37*
G36*
X121187207Y-89426933D02*
X120364307Y-90559557D01*
X118746273Y-89383987D01*
X119569173Y-88251363D01*
X121187207Y-89426933D01*
X121187207Y-89426933D01*
G37*
G36*
X127113205Y-89777005D02*
X126290305Y-90909629D01*
X124672271Y-89734059D01*
X125495171Y-88601435D01*
X127113205Y-89777005D01*
X127113205Y-89777005D01*
G37*
G36*
X125232292Y-92365859D02*
X124409392Y-93498483D01*
X122791358Y-92322913D01*
X123614258Y-91190289D01*
X125232292Y-92365859D01*
X125232292Y-92365859D01*
G37*
G36*
X142612764Y-106970810D02*
X143493812Y-105882805D01*
X145048104Y-107141446D01*
X144167056Y-108229451D01*
X142612764Y-106970810D01*
X142612764Y-106970810D01*
G37*
G36*
X144626590Y-104483942D02*
X145507638Y-103395937D01*
X147061930Y-104654578D01*
X146180882Y-105742583D01*
X144626590Y-104483942D01*
X144626590Y-104483942D01*
G37*
G36*
X138727034Y-103824208D02*
X139608082Y-102736203D01*
X141162374Y-103994844D01*
X140281326Y-105082849D01*
X138727034Y-103824208D01*
X138727034Y-103824208D01*
G37*
G36*
X140740860Y-101337340D02*
X141621908Y-100249335D01*
X143176200Y-101507976D01*
X142295152Y-102595981D01*
X140740860Y-101337340D01*
X140740860Y-101337340D01*
G37*
G36*
X130438122Y-82686220D02*
X129140065Y-83210669D01*
X128390852Y-81356302D01*
X129688909Y-80831853D01*
X130438122Y-82686220D01*
X130438122Y-82686220D01*
G37*
G36*
X127471133Y-83884961D02*
X126173076Y-84409410D01*
X125423863Y-82555043D01*
X126721920Y-82030594D01*
X127471133Y-83884961D01*
X127471133Y-83884961D01*
G37*
G36*
X132311155Y-87322139D02*
X131013098Y-87846588D01*
X130263885Y-85992221D01*
X131561942Y-85467772D01*
X132311155Y-87322139D01*
X132311155Y-87322139D01*
G37*
G36*
X129344166Y-88520880D02*
X128046109Y-89045329D01*
X127296896Y-87190962D01*
X128594953Y-86666513D01*
X129344166Y-88520880D01*
X129344166Y-88520880D01*
G37*
G36*
X139615064Y-84409410D02*
X138317007Y-83884961D01*
X139066220Y-82030594D01*
X140364277Y-82555043D01*
X139615064Y-84409410D01*
X139615064Y-84409410D01*
G37*
G36*
X136648075Y-83210669D02*
X135350018Y-82686220D01*
X136099231Y-80831853D01*
X137397288Y-81356302D01*
X136648075Y-83210669D01*
X136648075Y-83210669D01*
G37*
G36*
X137742031Y-89045329D02*
X136443974Y-88520880D01*
X137193187Y-86666513D01*
X138491244Y-87190962D01*
X137742031Y-89045329D01*
X137742031Y-89045329D01*
G37*
G36*
X134775042Y-87846588D02*
X133476985Y-87322139D01*
X134226198Y-85467772D01*
X135524255Y-85992221D01*
X134775042Y-87846588D01*
X134775042Y-87846588D01*
G37*
G36*
X146992739Y-98979133D02*
X146943880Y-97579986D01*
X148942661Y-97510187D01*
X148991520Y-98909334D01*
X146992739Y-98979133D01*
X146992739Y-98979133D01*
G37*
G36*
X146881061Y-95781082D02*
X146832202Y-94381935D01*
X148830983Y-94312136D01*
X148879842Y-95711283D01*
X146881061Y-95781082D01*
X146881061Y-95781082D01*
G37*
G36*
X141995785Y-99153630D02*
X141946926Y-97754483D01*
X143945707Y-97684684D01*
X143994566Y-99083831D01*
X141995785Y-99153630D01*
X141995785Y-99153630D01*
G37*
G36*
X141884107Y-95955579D02*
X141835248Y-94556432D01*
X143834029Y-94486633D01*
X143882888Y-95885780D01*
X141884107Y-95955579D01*
X141884107Y-95955579D01*
G37*
G36*
X145431453Y-90523997D02*
X144608553Y-89391373D01*
X146226587Y-88215803D01*
X147049487Y-89348427D01*
X145431453Y-90523997D01*
X145431453Y-90523997D01*
G37*
G36*
X143550540Y-87935143D02*
X142727640Y-86802519D01*
X144345674Y-85626949D01*
X145168574Y-86759573D01*
X143550540Y-87935143D01*
X143550540Y-87935143D01*
G37*
G36*
X141386368Y-93462923D02*
X140563468Y-92330299D01*
X142181502Y-91154729D01*
X143004402Y-92287353D01*
X141386368Y-93462923D01*
X141386368Y-93462923D01*
G37*
G36*
X139505455Y-90874069D02*
X138682555Y-89741445D01*
X140300589Y-88565875D01*
X141123489Y-89698499D01*
X139505455Y-90874069D01*
X139505455Y-90874069D01*
G37*
D16*
X130402320Y-104246680D03*
X135402320Y-104246680D03*
X132902320Y-104246680D03*
X135402320Y-89746680D03*
X130402320Y-89746680D03*
D17*
X139102320Y-96746680D03*
X126702320Y-96746680D03*
D10*
G36*
X90017289Y-109496072D02*
X91319874Y-110009173D01*
X90586871Y-111870008D01*
X89284286Y-111356907D01*
X90017289Y-109496072D01*
X90017289Y-109496072D01*
G37*
G36*
X92994625Y-110668876D02*
X94297210Y-111181977D01*
X93564207Y-113042812D01*
X92261622Y-112529711D01*
X92994625Y-110668876D01*
X92994625Y-110668876D01*
G37*
G36*
X91849795Y-104843984D02*
X93152380Y-105357085D01*
X92419377Y-107217920D01*
X91116792Y-106704819D01*
X91849795Y-104843984D01*
X91849795Y-104843984D01*
G37*
G36*
X94827131Y-106016788D02*
X96129716Y-106529889D01*
X95396713Y-108390724D01*
X94094128Y-107877623D01*
X94827131Y-106016788D01*
X94827131Y-106016788D01*
G37*
G36*
X84141776Y-103784349D02*
X85022824Y-104872354D01*
X83468532Y-106130995D01*
X82587484Y-105042990D01*
X84141776Y-103784349D01*
X84141776Y-103784349D01*
G37*
G36*
X86155602Y-106271217D02*
X87036650Y-107359222D01*
X85482358Y-108617863D01*
X84601310Y-107529858D01*
X86155602Y-106271217D01*
X86155602Y-106271217D01*
G37*
G36*
X88027506Y-100637747D02*
X88908554Y-101725752D01*
X87354262Y-102984393D01*
X86473214Y-101896388D01*
X88027506Y-100637747D01*
X88027506Y-100637747D01*
G37*
G36*
X90041332Y-103124615D02*
X90922380Y-104212620D01*
X89368088Y-105471261D01*
X88487040Y-104383256D01*
X90041332Y-103124615D01*
X90041332Y-103124615D01*
G37*
G36*
X82771098Y-94724835D02*
X82722239Y-96123982D01*
X80723458Y-96054183D01*
X80772317Y-94655036D01*
X82771098Y-94724835D01*
X82771098Y-94724835D01*
G37*
G36*
X82659420Y-97922886D02*
X82610561Y-99322033D01*
X80611780Y-99252234D01*
X80660639Y-97853087D01*
X82659420Y-97922886D01*
X82659420Y-97922886D01*
G37*
G36*
X87768052Y-94899332D02*
X87719193Y-96298479D01*
X85720412Y-96228680D01*
X85769271Y-94829533D01*
X87768052Y-94899332D01*
X87768052Y-94899332D01*
G37*
G36*
X87656374Y-98097383D02*
X87607515Y-99496530D01*
X85608734Y-99426731D01*
X85657593Y-98027584D01*
X87656374Y-98097383D01*
X87656374Y-98097383D01*
G37*
G36*
X86799460Y-87094619D02*
X85976560Y-88227243D01*
X84358526Y-87051673D01*
X85181426Y-85919049D01*
X86799460Y-87094619D01*
X86799460Y-87094619D01*
G37*
G36*
X84918547Y-89683473D02*
X84095647Y-90816097D01*
X82477613Y-89640527D01*
X83300513Y-88507903D01*
X84918547Y-89683473D01*
X84918547Y-89683473D01*
G37*
G36*
X90844545Y-90033545D02*
X90021645Y-91166169D01*
X88403611Y-89990599D01*
X89226511Y-88857975D01*
X90844545Y-90033545D01*
X90844545Y-90033545D01*
G37*
G36*
X88963632Y-92622399D02*
X88140732Y-93755023D01*
X86522698Y-92579453D01*
X87345598Y-91446829D01*
X88963632Y-92622399D01*
X88963632Y-92622399D01*
G37*
G36*
X94169462Y-82942760D02*
X92871405Y-83467209D01*
X92122192Y-81612842D01*
X93420249Y-81088393D01*
X94169462Y-82942760D01*
X94169462Y-82942760D01*
G37*
G36*
X91202473Y-84141501D02*
X89904416Y-84665950D01*
X89155203Y-82811583D01*
X90453260Y-82287134D01*
X91202473Y-84141501D01*
X91202473Y-84141501D01*
G37*
G36*
X96042495Y-87578679D02*
X94744438Y-88103128D01*
X93995225Y-86248761D01*
X95293282Y-85724312D01*
X96042495Y-87578679D01*
X96042495Y-87578679D01*
G37*
G36*
X93075506Y-88777420D02*
X91777449Y-89301869D01*
X91028236Y-87447502D01*
X92326293Y-86923053D01*
X93075506Y-88777420D01*
X93075506Y-88777420D01*
G37*
G36*
X103346404Y-84665950D02*
X102048347Y-84141501D01*
X102797560Y-82287134D01*
X104095617Y-82811583D01*
X103346404Y-84665950D01*
X103346404Y-84665950D01*
G37*
G36*
X100379415Y-83467209D02*
X99081358Y-82942760D01*
X99830571Y-81088393D01*
X101128628Y-81612842D01*
X100379415Y-83467209D01*
X100379415Y-83467209D01*
G37*
G36*
X101473371Y-89301869D02*
X100175314Y-88777420D01*
X100924527Y-86923053D01*
X102222584Y-87447502D01*
X101473371Y-89301869D01*
X101473371Y-89301869D01*
G37*
G36*
X98506382Y-88103128D02*
X97208325Y-87578679D01*
X97957538Y-85724312D01*
X99255595Y-86248761D01*
X98506382Y-88103128D01*
X98506382Y-88103128D01*
G37*
G36*
X109162793Y-90780537D02*
X108339893Y-89647913D01*
X109957927Y-88472343D01*
X110780827Y-89604967D01*
X109162793Y-90780537D01*
X109162793Y-90780537D01*
G37*
G36*
X107281880Y-88191683D02*
X106458980Y-87059059D01*
X108077014Y-85883489D01*
X108899914Y-87016113D01*
X107281880Y-88191683D01*
X107281880Y-88191683D01*
G37*
G36*
X105117708Y-93719463D02*
X104294808Y-92586839D01*
X105912842Y-91411269D01*
X106735742Y-92543893D01*
X105117708Y-93719463D01*
X105117708Y-93719463D01*
G37*
G36*
X103236795Y-91130609D02*
X102413895Y-89997985D01*
X104031929Y-88822415D01*
X104854829Y-89955039D01*
X103236795Y-91130609D01*
X103236795Y-91130609D01*
G37*
G36*
X110724079Y-99235673D02*
X110675220Y-97836526D01*
X112674001Y-97766727D01*
X112722860Y-99165874D01*
X110724079Y-99235673D01*
X110724079Y-99235673D01*
G37*
G36*
X110612401Y-96037622D02*
X110563542Y-94638475D01*
X112562323Y-94568676D01*
X112611182Y-95967823D01*
X110612401Y-96037622D01*
X110612401Y-96037622D01*
G37*
G36*
X105727125Y-99410170D02*
X105678266Y-98011023D01*
X107677047Y-97941224D01*
X107725906Y-99340371D01*
X105727125Y-99410170D01*
X105727125Y-99410170D01*
G37*
G36*
X105615447Y-96212119D02*
X105566588Y-94812972D01*
X107565369Y-94743173D01*
X107614228Y-96142320D01*
X105615447Y-96212119D01*
X105615447Y-96212119D01*
G37*
G36*
X106344104Y-107227350D02*
X107225152Y-106139345D01*
X108779444Y-107397986D01*
X107898396Y-108485991D01*
X106344104Y-107227350D01*
X106344104Y-107227350D01*
G37*
G36*
X108357930Y-104740482D02*
X109238978Y-103652477D01*
X110793270Y-104911118D01*
X109912222Y-105999123D01*
X108357930Y-104740482D01*
X108357930Y-104740482D01*
G37*
G36*
X102458374Y-104080748D02*
X103339422Y-102992743D01*
X104893714Y-104251384D01*
X104012666Y-105339389D01*
X102458374Y-104080748D01*
X102458374Y-104080748D01*
G37*
G36*
X104472200Y-101593880D02*
X105353248Y-100505875D01*
X106907540Y-101764516D01*
X106026492Y-102852521D01*
X104472200Y-101593880D01*
X104472200Y-101593880D01*
G37*
G36*
X99126330Y-111123557D02*
X100428915Y-110610456D01*
X101161918Y-112471291D01*
X99859333Y-112984392D01*
X99126330Y-111123557D01*
X99126330Y-111123557D01*
G37*
G36*
X102103666Y-109950753D02*
X103406251Y-109437652D01*
X104139254Y-111298487D01*
X102836669Y-111811588D01*
X102103666Y-109950753D01*
X102103666Y-109950753D01*
G37*
G36*
X97293824Y-106471469D02*
X98596409Y-105958368D01*
X99329412Y-107819203D01*
X98026827Y-108332304D01*
X97293824Y-106471469D01*
X97293824Y-106471469D01*
G37*
G36*
X100271160Y-105298665D02*
X101573745Y-104785564D01*
X102306748Y-106646399D01*
X101004163Y-107159500D01*
X100271160Y-105298665D01*
X100271160Y-105298665D01*
G37*
D16*
X94133660Y-104503220D03*
X99133660Y-104503220D03*
X96633660Y-104503220D03*
X99133660Y-90003220D03*
X94133660Y-90003220D03*
D17*
X102833660Y-97003220D03*
X90433660Y-97003220D03*
D18*
X112452000Y-106587000D03*
X112452000Y-107222000D03*
X112452000Y-107882400D03*
X112452000Y-108517400D03*
X112452000Y-109177800D03*
X112452000Y-109825500D03*
X112452000Y-110473200D03*
X118040000Y-110473200D03*
X118040000Y-109825500D03*
X118040000Y-109177800D03*
X118040000Y-108517400D03*
X118040000Y-107869700D03*
X118040000Y-107222000D03*
X118040000Y-106574300D03*
D19*
X120243600Y-111443900D03*
X120243600Y-108443900D03*
D10*
G36*
X96070253Y-109399211D02*
X98010400Y-110202846D01*
X97512911Y-111403889D01*
X95572764Y-110600254D01*
X96070253Y-109399211D01*
X96070253Y-109399211D01*
G37*
G36*
X94960471Y-112078461D02*
X96900618Y-112882096D01*
X96403129Y-114083139D01*
X94462982Y-113279504D01*
X94960471Y-112078461D01*
X94960471Y-112078461D01*
G37*
G36*
X132265253Y-109145211D02*
X134205400Y-109948846D01*
X133707911Y-111149889D01*
X131767764Y-110346254D01*
X132265253Y-109145211D01*
X132265253Y-109145211D01*
G37*
G36*
X131155471Y-111824461D02*
X133095618Y-112628096D01*
X132598129Y-113829139D01*
X130657982Y-113025504D01*
X131155471Y-111824461D01*
X131155471Y-111824461D01*
G37*
D15*
X82573800Y-82573800D03*
M02*
