G04 #@! TF.FileFunction,Soldermask,Top*
%FSLAX46Y46*%
G04 Gerber Fmt 4.6, Leading zero omitted, Abs format (unit mm)*
G04 Created by KiCad (PCBNEW 4.0.2-stable) date 28.03.2016 14:36:11*
%MOMM*%
G01*
G04 APERTURE LIST*
%ADD10C,0.100000*%
%ADD11R,2.127200X2.432000*%
%ADD12O,2.127200X2.432000*%
%ADD13C,3.800000*%
%ADD14C,2.150000*%
%ADD15O,4.400000X4.400000*%
%ADD16R,1.797000X0.831800*%
%ADD17R,2.000000X1.400000*%
G04 APERTURE END LIST*
D10*
D11*
X110947200Y-81559400D03*
D12*
X113487200Y-81559400D03*
X116027200Y-81559400D03*
X118567200Y-81559400D03*
D13*
X147423200Y-112422000D03*
X147423200Y-82573800D03*
X82573800Y-112422000D03*
D11*
X122478800Y-113563400D03*
D12*
X119938800Y-113563400D03*
X117398800Y-113563400D03*
X114858800Y-113563400D03*
X112318800Y-113563400D03*
X109778800Y-113563400D03*
X107238800Y-113563400D03*
D10*
G36*
X120410436Y-103527809D02*
X121291484Y-104615814D01*
X119737192Y-105874455D01*
X118856144Y-104786450D01*
X120410436Y-103527809D01*
X120410436Y-103527809D01*
G37*
G36*
X122424262Y-106014677D02*
X123305310Y-107102682D01*
X121751018Y-108361323D01*
X120869970Y-107273318D01*
X122424262Y-106014677D01*
X122424262Y-106014677D01*
G37*
G36*
X124296166Y-100381207D02*
X125177214Y-101469212D01*
X123622922Y-102727853D01*
X122741874Y-101639848D01*
X124296166Y-100381207D01*
X124296166Y-100381207D01*
G37*
G36*
X126309992Y-102868075D02*
X127191040Y-103956080D01*
X125636748Y-105214721D01*
X124755700Y-104126716D01*
X126309992Y-102868075D01*
X126309992Y-102868075D01*
G37*
G36*
X135394990Y-110867017D02*
X136697575Y-110353916D01*
X137430578Y-112214751D01*
X136127993Y-112727852D01*
X135394990Y-110867017D01*
X135394990Y-110867017D01*
G37*
G36*
X138372326Y-109694213D02*
X139674911Y-109181112D01*
X140407914Y-111041947D01*
X139105329Y-111555048D01*
X138372326Y-109694213D01*
X138372326Y-109694213D01*
G37*
G36*
X133562484Y-106214929D02*
X134865069Y-105701828D01*
X135598072Y-107562663D01*
X134295487Y-108075764D01*
X133562484Y-106214929D01*
X133562484Y-106214929D01*
G37*
G36*
X136539820Y-105042125D02*
X137842405Y-104529024D01*
X138575408Y-106389859D01*
X137272823Y-106902960D01*
X136539820Y-105042125D01*
X136539820Y-105042125D01*
G37*
G36*
X119039758Y-94468295D02*
X118990899Y-95867442D01*
X116992118Y-95797643D01*
X117040977Y-94398496D01*
X119039758Y-94468295D01*
X119039758Y-94468295D01*
G37*
G36*
X118928080Y-97666346D02*
X118879221Y-99065493D01*
X116880440Y-98995694D01*
X116929299Y-97596547D01*
X118928080Y-97666346D01*
X118928080Y-97666346D01*
G37*
G36*
X124036712Y-94642792D02*
X123987853Y-96041939D01*
X121989072Y-95972140D01*
X122037931Y-94572993D01*
X124036712Y-94642792D01*
X124036712Y-94642792D01*
G37*
G36*
X123925034Y-97840843D02*
X123876175Y-99239990D01*
X121877394Y-99170191D01*
X121926253Y-97771044D01*
X123925034Y-97840843D01*
X123925034Y-97840843D01*
G37*
G36*
X126285949Y-109239532D02*
X127588534Y-109752633D01*
X126855531Y-111613468D01*
X125552946Y-111100367D01*
X126285949Y-109239532D01*
X126285949Y-109239532D01*
G37*
G36*
X129263285Y-110412336D02*
X130565870Y-110925437D01*
X129832867Y-112786272D01*
X128530282Y-112273171D01*
X129263285Y-110412336D01*
X129263285Y-110412336D01*
G37*
G36*
X128118455Y-104587444D02*
X129421040Y-105100545D01*
X128688037Y-106961380D01*
X127385452Y-106448279D01*
X128118455Y-104587444D01*
X128118455Y-104587444D01*
G37*
G36*
X131095791Y-105760248D02*
X132398376Y-106273349D01*
X131665373Y-108134184D01*
X130362788Y-107621083D01*
X131095791Y-105760248D01*
X131095791Y-105760248D01*
G37*
G36*
X123068120Y-86838079D02*
X122245220Y-87970703D01*
X120627186Y-86795133D01*
X121450086Y-85662509D01*
X123068120Y-86838079D01*
X123068120Y-86838079D01*
G37*
G36*
X121187207Y-89426933D02*
X120364307Y-90559557D01*
X118746273Y-89383987D01*
X119569173Y-88251363D01*
X121187207Y-89426933D01*
X121187207Y-89426933D01*
G37*
G36*
X127113205Y-89777005D02*
X126290305Y-90909629D01*
X124672271Y-89734059D01*
X125495171Y-88601435D01*
X127113205Y-89777005D01*
X127113205Y-89777005D01*
G37*
G36*
X125232292Y-92365859D02*
X124409392Y-93498483D01*
X122791358Y-92322913D01*
X123614258Y-91190289D01*
X125232292Y-92365859D01*
X125232292Y-92365859D01*
G37*
G36*
X142612764Y-106970810D02*
X143493812Y-105882805D01*
X145048104Y-107141446D01*
X144167056Y-108229451D01*
X142612764Y-106970810D01*
X142612764Y-106970810D01*
G37*
G36*
X144626590Y-104483942D02*
X145507638Y-103395937D01*
X147061930Y-104654578D01*
X146180882Y-105742583D01*
X144626590Y-104483942D01*
X144626590Y-104483942D01*
G37*
G36*
X138727034Y-103824208D02*
X139608082Y-102736203D01*
X141162374Y-103994844D01*
X140281326Y-105082849D01*
X138727034Y-103824208D01*
X138727034Y-103824208D01*
G37*
G36*
X140740860Y-101337340D02*
X141621908Y-100249335D01*
X143176200Y-101507976D01*
X142295152Y-102595981D01*
X140740860Y-101337340D01*
X140740860Y-101337340D01*
G37*
G36*
X130438122Y-82686220D02*
X129140065Y-83210669D01*
X128390852Y-81356302D01*
X129688909Y-80831853D01*
X130438122Y-82686220D01*
X130438122Y-82686220D01*
G37*
G36*
X127471133Y-83884961D02*
X126173076Y-84409410D01*
X125423863Y-82555043D01*
X126721920Y-82030594D01*
X127471133Y-83884961D01*
X127471133Y-83884961D01*
G37*
G36*
X132311155Y-87322139D02*
X131013098Y-87846588D01*
X130263885Y-85992221D01*
X131561942Y-85467772D01*
X132311155Y-87322139D01*
X132311155Y-87322139D01*
G37*
G36*
X129344166Y-88520880D02*
X128046109Y-89045329D01*
X127296896Y-87190962D01*
X128594953Y-86666513D01*
X129344166Y-88520880D01*
X129344166Y-88520880D01*
G37*
G36*
X139615064Y-84409410D02*
X138317007Y-83884961D01*
X139066220Y-82030594D01*
X140364277Y-82555043D01*
X139615064Y-84409410D01*
X139615064Y-84409410D01*
G37*
G36*
X136648075Y-83210669D02*
X135350018Y-82686220D01*
X136099231Y-80831853D01*
X137397288Y-81356302D01*
X136648075Y-83210669D01*
X136648075Y-83210669D01*
G37*
G36*
X137742031Y-89045329D02*
X136443974Y-88520880D01*
X137193187Y-86666513D01*
X138491244Y-87190962D01*
X137742031Y-89045329D01*
X137742031Y-89045329D01*
G37*
G36*
X134775042Y-87846588D02*
X133476985Y-87322139D01*
X134226198Y-85467772D01*
X135524255Y-85992221D01*
X134775042Y-87846588D01*
X134775042Y-87846588D01*
G37*
G36*
X146992739Y-98979133D02*
X146943880Y-97579986D01*
X148942661Y-97510187D01*
X148991520Y-98909334D01*
X146992739Y-98979133D01*
X146992739Y-98979133D01*
G37*
G36*
X146881061Y-95781082D02*
X146832202Y-94381935D01*
X148830983Y-94312136D01*
X148879842Y-95711283D01*
X146881061Y-95781082D01*
X146881061Y-95781082D01*
G37*
G36*
X141995785Y-99153630D02*
X141946926Y-97754483D01*
X143945707Y-97684684D01*
X143994566Y-99083831D01*
X141995785Y-99153630D01*
X141995785Y-99153630D01*
G37*
G36*
X141884107Y-95955579D02*
X141835248Y-94556432D01*
X143834029Y-94486633D01*
X143882888Y-95885780D01*
X141884107Y-95955579D01*
X141884107Y-95955579D01*
G37*
G36*
X145431453Y-90523997D02*
X144608553Y-89391373D01*
X146226587Y-88215803D01*
X147049487Y-89348427D01*
X145431453Y-90523997D01*
X145431453Y-90523997D01*
G37*
G36*
X143550540Y-87935143D02*
X142727640Y-86802519D01*
X144345674Y-85626949D01*
X145168574Y-86759573D01*
X143550540Y-87935143D01*
X143550540Y-87935143D01*
G37*
G36*
X141386368Y-93462923D02*
X140563468Y-92330299D01*
X142181502Y-91154729D01*
X143004402Y-92287353D01*
X141386368Y-93462923D01*
X141386368Y-93462923D01*
G37*
G36*
X139505455Y-90874069D02*
X138682555Y-89741445D01*
X140300589Y-88565875D01*
X141123489Y-89698499D01*
X139505455Y-90874069D01*
X139505455Y-90874069D01*
G37*
D14*
X130402320Y-104246680D03*
X135402320Y-104246680D03*
X132902320Y-104246680D03*
X135402320Y-89746680D03*
X130402320Y-89746680D03*
D15*
X139102320Y-96746680D03*
X126702320Y-96746680D03*
D10*
G36*
X90017289Y-109496072D02*
X91319874Y-110009173D01*
X90586871Y-111870008D01*
X89284286Y-111356907D01*
X90017289Y-109496072D01*
X90017289Y-109496072D01*
G37*
G36*
X92994625Y-110668876D02*
X94297210Y-111181977D01*
X93564207Y-113042812D01*
X92261622Y-112529711D01*
X92994625Y-110668876D01*
X92994625Y-110668876D01*
G37*
G36*
X91849795Y-104843984D02*
X93152380Y-105357085D01*
X92419377Y-107217920D01*
X91116792Y-106704819D01*
X91849795Y-104843984D01*
X91849795Y-104843984D01*
G37*
G36*
X94827131Y-106016788D02*
X96129716Y-106529889D01*
X95396713Y-108390724D01*
X94094128Y-107877623D01*
X94827131Y-106016788D01*
X94827131Y-106016788D01*
G37*
G36*
X84141776Y-103784349D02*
X85022824Y-104872354D01*
X83468532Y-106130995D01*
X82587484Y-105042990D01*
X84141776Y-103784349D01*
X84141776Y-103784349D01*
G37*
G36*
X86155602Y-106271217D02*
X87036650Y-107359222D01*
X85482358Y-108617863D01*
X84601310Y-107529858D01*
X86155602Y-106271217D01*
X86155602Y-106271217D01*
G37*
G36*
X88027506Y-100637747D02*
X88908554Y-101725752D01*
X87354262Y-102984393D01*
X86473214Y-101896388D01*
X88027506Y-100637747D01*
X88027506Y-100637747D01*
G37*
G36*
X90041332Y-103124615D02*
X90922380Y-104212620D01*
X89368088Y-105471261D01*
X88487040Y-104383256D01*
X90041332Y-103124615D01*
X90041332Y-103124615D01*
G37*
G36*
X82771098Y-94724835D02*
X82722239Y-96123982D01*
X80723458Y-96054183D01*
X80772317Y-94655036D01*
X82771098Y-94724835D01*
X82771098Y-94724835D01*
G37*
G36*
X82659420Y-97922886D02*
X82610561Y-99322033D01*
X80611780Y-99252234D01*
X80660639Y-97853087D01*
X82659420Y-97922886D01*
X82659420Y-97922886D01*
G37*
G36*
X87768052Y-94899332D02*
X87719193Y-96298479D01*
X85720412Y-96228680D01*
X85769271Y-94829533D01*
X87768052Y-94899332D01*
X87768052Y-94899332D01*
G37*
G36*
X87656374Y-98097383D02*
X87607515Y-99496530D01*
X85608734Y-99426731D01*
X85657593Y-98027584D01*
X87656374Y-98097383D01*
X87656374Y-98097383D01*
G37*
G36*
X86799460Y-87094619D02*
X85976560Y-88227243D01*
X84358526Y-87051673D01*
X85181426Y-85919049D01*
X86799460Y-87094619D01*
X86799460Y-87094619D01*
G37*
G36*
X84918547Y-89683473D02*
X84095647Y-90816097D01*
X82477613Y-89640527D01*
X83300513Y-88507903D01*
X84918547Y-89683473D01*
X84918547Y-89683473D01*
G37*
G36*
X90844545Y-90033545D02*
X90021645Y-91166169D01*
X88403611Y-89990599D01*
X89226511Y-88857975D01*
X90844545Y-90033545D01*
X90844545Y-90033545D01*
G37*
G36*
X88963632Y-92622399D02*
X88140732Y-93755023D01*
X86522698Y-92579453D01*
X87345598Y-91446829D01*
X88963632Y-92622399D01*
X88963632Y-92622399D01*
G37*
G36*
X94169462Y-82942760D02*
X92871405Y-83467209D01*
X92122192Y-81612842D01*
X93420249Y-81088393D01*
X94169462Y-82942760D01*
X94169462Y-82942760D01*
G37*
G36*
X91202473Y-84141501D02*
X89904416Y-84665950D01*
X89155203Y-82811583D01*
X90453260Y-82287134D01*
X91202473Y-84141501D01*
X91202473Y-84141501D01*
G37*
G36*
X96042495Y-87578679D02*
X94744438Y-88103128D01*
X93995225Y-86248761D01*
X95293282Y-85724312D01*
X96042495Y-87578679D01*
X96042495Y-87578679D01*
G37*
G36*
X93075506Y-88777420D02*
X91777449Y-89301869D01*
X91028236Y-87447502D01*
X92326293Y-86923053D01*
X93075506Y-88777420D01*
X93075506Y-88777420D01*
G37*
G36*
X103346404Y-84665950D02*
X102048347Y-84141501D01*
X102797560Y-82287134D01*
X104095617Y-82811583D01*
X103346404Y-84665950D01*
X103346404Y-84665950D01*
G37*
G36*
X100379415Y-83467209D02*
X99081358Y-82942760D01*
X99830571Y-81088393D01*
X101128628Y-81612842D01*
X100379415Y-83467209D01*
X100379415Y-83467209D01*
G37*
G36*
X101473371Y-89301869D02*
X100175314Y-88777420D01*
X100924527Y-86923053D01*
X102222584Y-87447502D01*
X101473371Y-89301869D01*
X101473371Y-89301869D01*
G37*
G36*
X98506382Y-88103128D02*
X97208325Y-87578679D01*
X97957538Y-85724312D01*
X99255595Y-86248761D01*
X98506382Y-88103128D01*
X98506382Y-88103128D01*
G37*
G36*
X109162793Y-90780537D02*
X108339893Y-89647913D01*
X109957927Y-88472343D01*
X110780827Y-89604967D01*
X109162793Y-90780537D01*
X109162793Y-90780537D01*
G37*
G36*
X107281880Y-88191683D02*
X106458980Y-87059059D01*
X108077014Y-85883489D01*
X108899914Y-87016113D01*
X107281880Y-88191683D01*
X107281880Y-88191683D01*
G37*
G36*
X105117708Y-93719463D02*
X104294808Y-92586839D01*
X105912842Y-91411269D01*
X106735742Y-92543893D01*
X105117708Y-93719463D01*
X105117708Y-93719463D01*
G37*
G36*
X103236795Y-91130609D02*
X102413895Y-89997985D01*
X104031929Y-88822415D01*
X104854829Y-89955039D01*
X103236795Y-91130609D01*
X103236795Y-91130609D01*
G37*
G36*
X110724079Y-99235673D02*
X110675220Y-97836526D01*
X112674001Y-97766727D01*
X112722860Y-99165874D01*
X110724079Y-99235673D01*
X110724079Y-99235673D01*
G37*
G36*
X110612401Y-96037622D02*
X110563542Y-94638475D01*
X112562323Y-94568676D01*
X112611182Y-95967823D01*
X110612401Y-96037622D01*
X110612401Y-96037622D01*
G37*
G36*
X105727125Y-99410170D02*
X105678266Y-98011023D01*
X107677047Y-97941224D01*
X107725906Y-99340371D01*
X105727125Y-99410170D01*
X105727125Y-99410170D01*
G37*
G36*
X105615447Y-96212119D02*
X105566588Y-94812972D01*
X107565369Y-94743173D01*
X107614228Y-96142320D01*
X105615447Y-96212119D01*
X105615447Y-96212119D01*
G37*
G36*
X106344104Y-107227350D02*
X107225152Y-106139345D01*
X108779444Y-107397986D01*
X107898396Y-108485991D01*
X106344104Y-107227350D01*
X106344104Y-107227350D01*
G37*
G36*
X108357930Y-104740482D02*
X109238978Y-103652477D01*
X110793270Y-104911118D01*
X109912222Y-105999123D01*
X108357930Y-104740482D01*
X108357930Y-104740482D01*
G37*
G36*
X102458374Y-104080748D02*
X103339422Y-102992743D01*
X104893714Y-104251384D01*
X104012666Y-105339389D01*
X102458374Y-104080748D01*
X102458374Y-104080748D01*
G37*
G36*
X104472200Y-101593880D02*
X105353248Y-100505875D01*
X106907540Y-101764516D01*
X106026492Y-102852521D01*
X104472200Y-101593880D01*
X104472200Y-101593880D01*
G37*
G36*
X99126330Y-111123557D02*
X100428915Y-110610456D01*
X101161918Y-112471291D01*
X99859333Y-112984392D01*
X99126330Y-111123557D01*
X99126330Y-111123557D01*
G37*
G36*
X102103666Y-109950753D02*
X103406251Y-109437652D01*
X104139254Y-111298487D01*
X102836669Y-111811588D01*
X102103666Y-109950753D01*
X102103666Y-109950753D01*
G37*
G36*
X97293824Y-106471469D02*
X98596409Y-105958368D01*
X99329412Y-107819203D01*
X98026827Y-108332304D01*
X97293824Y-106471469D01*
X97293824Y-106471469D01*
G37*
G36*
X100271160Y-105298665D02*
X101573745Y-104785564D01*
X102306748Y-106646399D01*
X101004163Y-107159500D01*
X100271160Y-105298665D01*
X100271160Y-105298665D01*
G37*
D14*
X94133660Y-104503220D03*
X99133660Y-104503220D03*
X96633660Y-104503220D03*
X99133660Y-90003220D03*
X94133660Y-90003220D03*
D15*
X102833660Y-97003220D03*
X90433660Y-97003220D03*
D16*
X112452000Y-106587000D03*
X112452000Y-107222000D03*
X112452000Y-107882400D03*
X112452000Y-108517400D03*
X112452000Y-109177800D03*
X112452000Y-109825500D03*
X112452000Y-110473200D03*
X118040000Y-110473200D03*
X118040000Y-109825500D03*
X118040000Y-109177800D03*
X118040000Y-108517400D03*
X118040000Y-107869700D03*
X118040000Y-107222000D03*
X118040000Y-106574300D03*
D17*
X120243600Y-111443900D03*
X120243600Y-108443900D03*
D10*
G36*
X96070253Y-109399211D02*
X98010400Y-110202846D01*
X97512911Y-111403889D01*
X95572764Y-110600254D01*
X96070253Y-109399211D01*
X96070253Y-109399211D01*
G37*
G36*
X94960471Y-112078461D02*
X96900618Y-112882096D01*
X96403129Y-114083139D01*
X94462982Y-113279504D01*
X94960471Y-112078461D01*
X94960471Y-112078461D01*
G37*
G36*
X132265253Y-109145211D02*
X134205400Y-109948846D01*
X133707911Y-111149889D01*
X131767764Y-110346254D01*
X132265253Y-109145211D01*
X132265253Y-109145211D01*
G37*
G36*
X131155471Y-111824461D02*
X133095618Y-112628096D01*
X132598129Y-113829139D01*
X130657982Y-113025504D01*
X131155471Y-111824461D01*
X131155471Y-111824461D01*
G37*
D13*
X82573800Y-82573800D03*
M02*
