G04 #@! TF.FileFunction,Copper,L2,Bot,Signal*
%FSLAX46Y46*%
G04 Gerber Fmt 4.6, Leading zero omitted, Abs format (unit mm)*
G04 Created by KiCad (PCBNEW 4.0.2-stable) date 28.03.2016 14:36:11*
%MOMM*%
G01*
G04 APERTURE LIST*
%ADD10C,0.100000*%
%ADD11R,1.727200X2.032000*%
%ADD12O,1.727200X2.032000*%
%ADD13C,3.400000*%
%ADD14C,1.750000*%
%ADD15O,4.000000X4.000000*%
%ADD16C,0.600000*%
%ADD17C,0.400000*%
%ADD18C,0.250000*%
%ADD19C,0.254000*%
G04 APERTURE END LIST*
D10*
D11*
X110947200Y-81559400D03*
D12*
X113487200Y-81559400D03*
X116027200Y-81559400D03*
X118567200Y-81559400D03*
D13*
X147423200Y-112422000D03*
X147423200Y-82573800D03*
X82573800Y-112422000D03*
D11*
X122478800Y-113563400D03*
D12*
X119938800Y-113563400D03*
X117398800Y-113563400D03*
X114858800Y-113563400D03*
X112318800Y-113563400D03*
X109778800Y-113563400D03*
X107238800Y-113563400D03*
D14*
X130402320Y-104246680D03*
X135402320Y-104246680D03*
X132902320Y-104246680D03*
X135402320Y-89746680D03*
X130402320Y-89746680D03*
D15*
X139102320Y-96746680D03*
X126702320Y-96746680D03*
D14*
X94133660Y-104503220D03*
X99133660Y-104503220D03*
X96633660Y-104503220D03*
X99133660Y-90003220D03*
X94133660Y-90003220D03*
D15*
X102833660Y-97003220D03*
X90433660Y-97003220D03*
D13*
X82573800Y-82573800D03*
D16*
X114731800Y-106324400D03*
X130403198Y-107924600D03*
X124764800Y-103606600D03*
X136931400Y-106807000D03*
X141986000Y-102768400D03*
X143738600Y-96215200D03*
X141122400Y-90068400D03*
X135737600Y-86334600D03*
X128930400Y-86741000D03*
X123977400Y-91109800D03*
X122174000Y-97485200D03*
X100634800Y-107264200D03*
X106883200Y-102260400D03*
X107467400Y-96418400D03*
X104851200Y-90347800D03*
X99441000Y-86563200D03*
X92659200Y-86995000D03*
X87655400Y-91313000D03*
X85852000Y-97739200D03*
X88493600Y-104063800D03*
X93878400Y-107543600D03*
X114845362Y-105532501D03*
X110630018Y-105879582D03*
X114046000Y-107213400D03*
X119303800Y-110183421D03*
X130657600Y-109220000D03*
X116586000Y-109802810D03*
X115616457Y-108841171D03*
X115640789Y-105617932D03*
X116332000Y-108483400D03*
X116271329Y-105118169D03*
X116890800Y-105624390D03*
X113314480Y-103428800D03*
X111937800Y-111531400D03*
X118059200Y-103428800D03*
X114017439Y-108013914D03*
X111074200Y-109792223D03*
X114046000Y-108813406D03*
X115633818Y-110984982D03*
X114115281Y-109610403D03*
X98831400Y-109989629D03*
D17*
X122301000Y-103632000D02*
X120421400Y-101752400D01*
X120421400Y-101752400D02*
X120421400Y-103352600D01*
X114731800Y-106324400D02*
X117449600Y-106324400D01*
X120421400Y-103352600D02*
X117449600Y-106324400D01*
X114270578Y-106324400D02*
X114731800Y-106324400D01*
X102031800Y-85166200D02*
X105968800Y-89103200D01*
X136931400Y-108635800D02*
X131114398Y-108635800D01*
X131114398Y-108635800D02*
X130403198Y-107924600D01*
X114731800Y-106324400D02*
X114710610Y-106324400D01*
X114710610Y-106324400D02*
X114702726Y-106332284D01*
X122326400Y-103606600D02*
X122301000Y-103632000D01*
X124764800Y-103606600D02*
X122326400Y-103606600D01*
X138455400Y-108635800D02*
X136931400Y-108635800D01*
X136931400Y-107231264D02*
X136931400Y-108635800D01*
X136931400Y-106807000D02*
X136931400Y-107231264D01*
X145440400Y-101650800D02*
X143078200Y-104013000D01*
X143078200Y-104013000D02*
X138455400Y-108635800D01*
X141986000Y-102768400D02*
X143078200Y-103860600D01*
X143078200Y-103860600D02*
X143078200Y-104013000D01*
X145440400Y-92100400D02*
X145440400Y-96215200D01*
X144162864Y-96215200D02*
X145440400Y-96215200D01*
X145440400Y-96215200D02*
X145440400Y-101650800D01*
X143738600Y-96215200D02*
X144162864Y-96215200D01*
X138277600Y-84937600D02*
X142265400Y-88925400D01*
X142265400Y-88925400D02*
X145440400Y-92100400D01*
X141122400Y-90068400D02*
X141422399Y-89768401D01*
X141422399Y-89768401D02*
X142265400Y-88925400D01*
X128930400Y-84937600D02*
X135737600Y-84937600D01*
X135737600Y-86334600D02*
X135737600Y-85910336D01*
X135737600Y-84937600D02*
X138277600Y-84937600D01*
X135737600Y-85910336D02*
X135737600Y-84937600D01*
X127584200Y-84937600D02*
X128930400Y-84937600D01*
X128930400Y-86741000D02*
X128930400Y-86316736D01*
X128930400Y-86316736D02*
X128930400Y-84937600D01*
X120421400Y-92100400D02*
X122631200Y-89890600D01*
X122631200Y-89890600D02*
X127584200Y-84937600D01*
X123977400Y-91109800D02*
X122758200Y-89890600D01*
X122758200Y-89890600D02*
X122631200Y-89890600D01*
X120421400Y-101752400D02*
X120421400Y-97485200D01*
X122174000Y-97485200D02*
X121749736Y-97485200D01*
X120421400Y-97485200D02*
X120421400Y-92100400D01*
X121749736Y-97485200D02*
X120421400Y-97485200D01*
X109296200Y-103555800D02*
X112064800Y-106324400D01*
X112064800Y-106324400D02*
X114270578Y-106324400D01*
X109296200Y-102235000D02*
X109296200Y-103555800D01*
X100634800Y-107264200D02*
X100634800Y-107485264D01*
X107307464Y-102260400D02*
X109321600Y-102260400D01*
X109296200Y-101350022D02*
X109296200Y-102235000D01*
X109296200Y-102235000D02*
X109321600Y-102260400D01*
X106883200Y-102260400D02*
X107307464Y-102260400D01*
X109296200Y-92430600D02*
X109296200Y-96418400D01*
X109296200Y-96418400D02*
X109296200Y-101350022D01*
X107467400Y-96418400D02*
X107891664Y-96418400D01*
X107891664Y-96418400D02*
X109296200Y-96418400D01*
X105968800Y-89103200D02*
X109296200Y-92430600D01*
X105151199Y-90022401D02*
X105968800Y-89204800D01*
X105968800Y-89204800D02*
X105968800Y-89103200D01*
X104851200Y-90347800D02*
X105151199Y-90047801D01*
X105151199Y-90047801D02*
X105151199Y-90022401D01*
X92710000Y-85166200D02*
X99618800Y-85166200D01*
X99618800Y-85166200D02*
X102031800Y-85166200D01*
X99441000Y-86563200D02*
X99441000Y-85344000D01*
X99441000Y-85344000D02*
X99618800Y-85166200D01*
X92659200Y-86995000D02*
X92659200Y-85217000D01*
X92659200Y-85217000D02*
X92710000Y-85166200D01*
X84124800Y-92456000D02*
X86360000Y-90220800D01*
X86360000Y-90220800D02*
X91160600Y-85420200D01*
X87655400Y-91313000D02*
X86563200Y-90220800D01*
X86563200Y-90220800D02*
X86360000Y-90220800D01*
X84124800Y-101955600D02*
X84124800Y-97739200D01*
X84124800Y-97739200D02*
X84124800Y-97129600D01*
X85852000Y-97739200D02*
X85427736Y-97739200D01*
X85427736Y-97739200D02*
X84124800Y-97739200D01*
X91008200Y-108839000D02*
X87299800Y-105130600D01*
X87299800Y-105130600D02*
X86791800Y-104622600D01*
X88493600Y-104063800D02*
X87426800Y-105130600D01*
X87426800Y-105130600D02*
X87299800Y-105130600D01*
X100311181Y-109289619D02*
X93878400Y-109289619D01*
X93878400Y-109289619D02*
X93186019Y-109289619D01*
X93878400Y-107543600D02*
X93878400Y-107967864D01*
X93878400Y-107967864D02*
X93878400Y-109289619D01*
X93186019Y-109289619D02*
X91458819Y-109289619D01*
X91458819Y-109289619D02*
X91008200Y-108839000D01*
X92710000Y-85166200D02*
X91414600Y-85166200D01*
X91414600Y-85166200D02*
X91160600Y-85420200D01*
X84124800Y-97129600D02*
X84124800Y-92456000D01*
X86791800Y-104622600D02*
X84124800Y-101955600D01*
X100311181Y-109289619D02*
X100634800Y-109289619D01*
X100634800Y-107485264D02*
X100634800Y-109289619D01*
D18*
X110947200Y-81711800D02*
X114858800Y-85623400D01*
X114858800Y-85623400D02*
X114858800Y-93903800D01*
X114858800Y-93903800D02*
X114845362Y-93917238D01*
X114845362Y-93917238D02*
X114845362Y-105108237D01*
X110947200Y-81559400D02*
X110947200Y-81711800D01*
X114845362Y-105532501D02*
X114845362Y-105108237D01*
X111125000Y-107213400D02*
X114046000Y-107213400D01*
X104902000Y-107213400D02*
X111125000Y-107213400D01*
X111125000Y-107213400D02*
X111125000Y-106273600D01*
X111125000Y-106273600D02*
X110744000Y-105892600D01*
X97688400Y-93548200D02*
X97688400Y-99999800D01*
X98552000Y-100863400D02*
X104902000Y-107213400D01*
X97688400Y-99999800D02*
X98552000Y-100863400D01*
X94133660Y-90003220D02*
X95008659Y-90878219D01*
X95008659Y-90878219D02*
X95018419Y-90878219D01*
X95018419Y-90878219D02*
X97688400Y-93548200D01*
X119303800Y-110183421D02*
X124004579Y-110183421D01*
X124282200Y-109905800D02*
X125699520Y-108488480D01*
X124004579Y-110183421D02*
X124282200Y-109905800D01*
X129143760Y-108488480D02*
X129926080Y-108488480D01*
X129926080Y-108488480D02*
X130657600Y-109220000D01*
X125699520Y-108488480D02*
X129143760Y-108488480D01*
X135402320Y-104246680D02*
X133858000Y-105791000D01*
X123892989Y-109558411D02*
X117338399Y-109558411D01*
X117338399Y-109558411D02*
X117094000Y-109802810D01*
X133858000Y-105791000D02*
X127660400Y-105791000D01*
X127660400Y-105791000D02*
X123892989Y-109558411D01*
X117094000Y-109802810D02*
X116586000Y-109802810D01*
X123190000Y-109108401D02*
X115883687Y-109108401D01*
X128442720Y-104246680D02*
X123580999Y-109108401D01*
X123580999Y-109108401D02*
X123190000Y-109108401D01*
X130402320Y-104246680D02*
X128442720Y-104246680D01*
X115883687Y-109108401D02*
X115616457Y-108841171D01*
X113487200Y-81559400D02*
X113487200Y-82825400D01*
X113487200Y-82825400D02*
X115640789Y-84978989D01*
X115640789Y-84978989D02*
X115640789Y-86591330D01*
X115640789Y-105617932D02*
X115640789Y-86591330D01*
X130402320Y-94792800D02*
X130402320Y-95275400D01*
X130402320Y-95275400D02*
X130402320Y-101525080D01*
X130402320Y-89746680D02*
X130402320Y-94792800D01*
X128016000Y-103911400D02*
X123444000Y-108483400D01*
X123444000Y-108483400D02*
X116332000Y-108483400D01*
X130402320Y-101525080D02*
X128016000Y-103911400D01*
X116271329Y-105118169D02*
X116271329Y-81803529D01*
X116271329Y-81803529D02*
X116027200Y-81559400D01*
X118567200Y-81559400D02*
X118567200Y-82825400D01*
X118567200Y-82825400D02*
X116896330Y-84496270D01*
X116896330Y-84496270D02*
X116896330Y-105418170D01*
X116896330Y-105418170D02*
X116890800Y-105423700D01*
X116890800Y-105423700D02*
X116890800Y-105624390D01*
D17*
X114858800Y-113563400D02*
X114858800Y-108431011D01*
X114858800Y-108431011D02*
X114441703Y-108013914D01*
X114441703Y-108013914D02*
X114017439Y-108013914D01*
D18*
X114017439Y-108013914D02*
X114017439Y-108073839D01*
X104940003Y-108013403D02*
X114016928Y-108013403D01*
X114016928Y-108013403D02*
X114017439Y-108013914D01*
X104940003Y-108013403D02*
X101429820Y-104503220D01*
X101429820Y-104503220D02*
X99133660Y-104503220D01*
X99133660Y-104503220D02*
X99133660Y-105080062D01*
D17*
X111074200Y-112141000D02*
X111074200Y-109792223D01*
X112318800Y-113563400D02*
X112318800Y-113385600D01*
X112318800Y-113385600D02*
X111074200Y-112141000D01*
D18*
X113949797Y-108717203D02*
X105007393Y-108717203D01*
X114046000Y-108813406D02*
X113949797Y-108717203D01*
X105007393Y-108717203D02*
X101586595Y-105296405D01*
X95333661Y-105703221D02*
X94133660Y-104503220D01*
X101586595Y-105296405D02*
X100330416Y-105296405D01*
X100330416Y-105296405D02*
X99923600Y-105703221D01*
X99923600Y-105703221D02*
X95333661Y-105703221D01*
D17*
X115633818Y-110984982D02*
X115933817Y-111284981D01*
X115933817Y-111284981D02*
X120352781Y-111284981D01*
X120352781Y-111284981D02*
X122478800Y-113411000D01*
X122478800Y-113411000D02*
X122478800Y-113563400D01*
D18*
X113106200Y-109167213D02*
X113258600Y-109167213D01*
X114115281Y-109610403D02*
X113691017Y-109610403D01*
X113691017Y-109610403D02*
X113258600Y-109177986D01*
X113258600Y-109177986D02*
X113258600Y-109167213D01*
X98831400Y-109989629D02*
X99006400Y-109814629D01*
X99006400Y-109814629D02*
X104173577Y-109814629D01*
X104173577Y-109814629D02*
X104820993Y-109167213D01*
X104820993Y-109167213D02*
X113106200Y-109167213D01*
D19*
G36*
X109445528Y-82575400D02*
X109453592Y-82676521D01*
X109506706Y-82848034D01*
X109605500Y-82997959D01*
X109742150Y-83114425D01*
X109905837Y-83188210D01*
X110083600Y-83213472D01*
X111374070Y-83213472D01*
X114098800Y-85938202D01*
X114098800Y-93782337D01*
X114093259Y-93836887D01*
X114085436Y-93906627D01*
X114085382Y-93914432D01*
X114085366Y-93914585D01*
X114085380Y-93914728D01*
X114085362Y-93917238D01*
X114085362Y-104987419D01*
X114022051Y-105079882D01*
X113949816Y-105248417D01*
X113911693Y-105427773D01*
X113910833Y-105489400D01*
X112410668Y-105489400D01*
X110131200Y-103209932D01*
X110131200Y-102455897D01*
X110138954Y-102431154D01*
X110139112Y-102429698D01*
X110139545Y-102428300D01*
X110147918Y-102348642D01*
X110156554Y-102269144D01*
X110156427Y-102267688D01*
X110156580Y-102266229D01*
X110149318Y-102186432D01*
X110142351Y-102106800D01*
X110141943Y-102105394D01*
X110141810Y-102103937D01*
X110131200Y-102067887D01*
X110131200Y-92430600D01*
X110123671Y-92353808D01*
X110116951Y-92277000D01*
X110115727Y-92272786D01*
X110115298Y-92268414D01*
X110092992Y-92194533D01*
X110071485Y-92120507D01*
X110069466Y-92116611D01*
X110068196Y-92112406D01*
X110031966Y-92044268D01*
X109996489Y-91975826D01*
X109993751Y-91972396D01*
X109991689Y-91968518D01*
X109942928Y-91908731D01*
X109894820Y-91848466D01*
X109888799Y-91842361D01*
X109888692Y-91842230D01*
X109888571Y-91842130D01*
X109886634Y-91840166D01*
X102622234Y-84575766D01*
X102562618Y-84526796D01*
X102503547Y-84477230D01*
X102499704Y-84475117D01*
X102496307Y-84472327D01*
X102428274Y-84435848D01*
X102360741Y-84398722D01*
X102356558Y-84397395D01*
X102352686Y-84395319D01*
X102278907Y-84372763D01*
X102205406Y-84349447D01*
X102201042Y-84348958D01*
X102196844Y-84347674D01*
X102120084Y-84339876D01*
X102043458Y-84331281D01*
X102034887Y-84331221D01*
X102034715Y-84331204D01*
X102034555Y-84331219D01*
X102031800Y-84331200D01*
X91414600Y-84331200D01*
X91337808Y-84338729D01*
X91261000Y-84345449D01*
X91256786Y-84346673D01*
X91252414Y-84347102D01*
X91178533Y-84369408D01*
X91104507Y-84390915D01*
X91100611Y-84392934D01*
X91096406Y-84394204D01*
X91028268Y-84430434D01*
X90959826Y-84465911D01*
X90956396Y-84468649D01*
X90952518Y-84470711D01*
X90892731Y-84519472D01*
X90832466Y-84567580D01*
X90826361Y-84573601D01*
X90826230Y-84573708D01*
X90826130Y-84573829D01*
X90824166Y-84575766D01*
X83534366Y-91865566D01*
X83485396Y-91925182D01*
X83435830Y-91984253D01*
X83433717Y-91988096D01*
X83430927Y-91991493D01*
X83394448Y-92059526D01*
X83357322Y-92127059D01*
X83355995Y-92131242D01*
X83353919Y-92135114D01*
X83331363Y-92208893D01*
X83308047Y-92282394D01*
X83307558Y-92286758D01*
X83306274Y-92290956D01*
X83298476Y-92367716D01*
X83289881Y-92444342D01*
X83289821Y-92452913D01*
X83289804Y-92453085D01*
X83289819Y-92453245D01*
X83289800Y-92456000D01*
X83289800Y-101955600D01*
X83297325Y-102032347D01*
X83304049Y-102109200D01*
X83305273Y-102113414D01*
X83305702Y-102117786D01*
X83328012Y-102191681D01*
X83349515Y-102265692D01*
X83351534Y-102269586D01*
X83352804Y-102273794D01*
X83389023Y-102341911D01*
X83424510Y-102410374D01*
X83427251Y-102413807D01*
X83429311Y-102417682D01*
X83478069Y-102477466D01*
X83526180Y-102537733D01*
X83532200Y-102543838D01*
X83532308Y-102543970D01*
X83532431Y-102544071D01*
X83534366Y-102546034D01*
X86201366Y-105213034D01*
X86709365Y-105721034D01*
X86709371Y-105721039D01*
X90417766Y-109429434D01*
X90868385Y-109880054D01*
X90928031Y-109929048D01*
X90987072Y-109978589D01*
X90990915Y-109980702D01*
X90994312Y-109983492D01*
X91062345Y-110019971D01*
X91129878Y-110057097D01*
X91134061Y-110058424D01*
X91137933Y-110060500D01*
X91211740Y-110083065D01*
X91285213Y-110106372D01*
X91289573Y-110106861D01*
X91293776Y-110108146D01*
X91370575Y-110115947D01*
X91447161Y-110124538D01*
X91455733Y-110124598D01*
X91455905Y-110124615D01*
X91456065Y-110124600D01*
X91458819Y-110124619D01*
X97905518Y-110124619D01*
X97928272Y-110248597D01*
X97995772Y-110419083D01*
X98095101Y-110573212D01*
X98222476Y-110705113D01*
X98373044Y-110809760D01*
X98541071Y-110883169D01*
X98720157Y-110922544D01*
X98903479Y-110926384D01*
X99084057Y-110894543D01*
X99255010Y-110828235D01*
X99409829Y-110729984D01*
X99542615Y-110603533D01*
X99563004Y-110574629D01*
X104173577Y-110574629D01*
X104243454Y-110567778D01*
X104313380Y-110561660D01*
X104317218Y-110560545D01*
X104321195Y-110560155D01*
X104388398Y-110539865D01*
X104455817Y-110520278D01*
X104459365Y-110518439D01*
X104463190Y-110517284D01*
X104525168Y-110484330D01*
X104587502Y-110452019D01*
X104590625Y-110449526D01*
X104594155Y-110447649D01*
X104648564Y-110403274D01*
X104703423Y-110359481D01*
X104708983Y-110353998D01*
X104709099Y-110353903D01*
X104709188Y-110353795D01*
X104710978Y-110352030D01*
X105135795Y-109927213D01*
X110148318Y-109927213D01*
X110171072Y-110051191D01*
X110238572Y-110221677D01*
X110239200Y-110222651D01*
X110239200Y-112141000D01*
X110246725Y-112217747D01*
X110253449Y-112294600D01*
X110254673Y-112298814D01*
X110255102Y-112303186D01*
X110277412Y-112377081D01*
X110298915Y-112451092D01*
X110300934Y-112454986D01*
X110302204Y-112459194D01*
X110338423Y-112527311D01*
X110373910Y-112595774D01*
X110376651Y-112599207D01*
X110378711Y-112603082D01*
X110427469Y-112662866D01*
X110475580Y-112723133D01*
X110481600Y-112729238D01*
X110481708Y-112729370D01*
X110481831Y-112729471D01*
X110483766Y-112731434D01*
X110852022Y-113099690D01*
X110820346Y-113382088D01*
X110820200Y-113403012D01*
X110820200Y-113723788D01*
X110848741Y-114014868D01*
X110931808Y-114290000D01*
X108623877Y-114290000D01*
X108704652Y-114035364D01*
X108737254Y-113744712D01*
X108737400Y-113723788D01*
X108737400Y-113403012D01*
X108708859Y-113111932D01*
X108624325Y-112831940D01*
X108487016Y-112573699D01*
X108302163Y-112347047D01*
X108076806Y-112160616D01*
X107819531Y-112021508D01*
X107540135Y-111935021D01*
X107249262Y-111904449D01*
X106957990Y-111930956D01*
X106677415Y-112013534D01*
X106418222Y-112149037D01*
X106190285Y-112332303D01*
X106002285Y-112556352D01*
X105861384Y-112812651D01*
X105772948Y-113091436D01*
X105740346Y-113382088D01*
X105740200Y-113403012D01*
X105740200Y-113723788D01*
X105768741Y-114014868D01*
X105851808Y-114290000D01*
X83988241Y-114290000D01*
X84018325Y-114270908D01*
X84349936Y-113955119D01*
X84613894Y-113580935D01*
X84800146Y-113162607D01*
X84901597Y-112716069D01*
X84908900Y-112193041D01*
X84819957Y-111743845D01*
X84645458Y-111320480D01*
X84392051Y-110939071D01*
X84069387Y-110614146D01*
X83689756Y-110358082D01*
X83267619Y-110180632D01*
X82819055Y-110088555D01*
X82361149Y-110085358D01*
X81911343Y-110171164D01*
X81486769Y-110342702D01*
X81103601Y-110593441D01*
X80776431Y-110913829D01*
X80710000Y-111010849D01*
X80710000Y-83992372D01*
X80735022Y-84031198D01*
X81053118Y-84360596D01*
X81429136Y-84621935D01*
X81848754Y-84805262D01*
X82295989Y-84903593D01*
X82753806Y-84913183D01*
X83204766Y-84833666D01*
X83631693Y-84668072D01*
X84018325Y-84422708D01*
X84349936Y-84106919D01*
X84613894Y-83732735D01*
X84800146Y-83314407D01*
X84901597Y-82867869D01*
X84908900Y-82344841D01*
X84819957Y-81895645D01*
X84645458Y-81472280D01*
X84392051Y-81090871D01*
X84069387Y-80765946D01*
X83986444Y-80710000D01*
X109445528Y-80710000D01*
X109445528Y-82575400D01*
X109445528Y-82575400D01*
G37*
X109445528Y-82575400D02*
X109453592Y-82676521D01*
X109506706Y-82848034D01*
X109605500Y-82997959D01*
X109742150Y-83114425D01*
X109905837Y-83188210D01*
X110083600Y-83213472D01*
X111374070Y-83213472D01*
X114098800Y-85938202D01*
X114098800Y-93782337D01*
X114093259Y-93836887D01*
X114085436Y-93906627D01*
X114085382Y-93914432D01*
X114085366Y-93914585D01*
X114085380Y-93914728D01*
X114085362Y-93917238D01*
X114085362Y-104987419D01*
X114022051Y-105079882D01*
X113949816Y-105248417D01*
X113911693Y-105427773D01*
X113910833Y-105489400D01*
X112410668Y-105489400D01*
X110131200Y-103209932D01*
X110131200Y-102455897D01*
X110138954Y-102431154D01*
X110139112Y-102429698D01*
X110139545Y-102428300D01*
X110147918Y-102348642D01*
X110156554Y-102269144D01*
X110156427Y-102267688D01*
X110156580Y-102266229D01*
X110149318Y-102186432D01*
X110142351Y-102106800D01*
X110141943Y-102105394D01*
X110141810Y-102103937D01*
X110131200Y-102067887D01*
X110131200Y-92430600D01*
X110123671Y-92353808D01*
X110116951Y-92277000D01*
X110115727Y-92272786D01*
X110115298Y-92268414D01*
X110092992Y-92194533D01*
X110071485Y-92120507D01*
X110069466Y-92116611D01*
X110068196Y-92112406D01*
X110031966Y-92044268D01*
X109996489Y-91975826D01*
X109993751Y-91972396D01*
X109991689Y-91968518D01*
X109942928Y-91908731D01*
X109894820Y-91848466D01*
X109888799Y-91842361D01*
X109888692Y-91842230D01*
X109888571Y-91842130D01*
X109886634Y-91840166D01*
X102622234Y-84575766D01*
X102562618Y-84526796D01*
X102503547Y-84477230D01*
X102499704Y-84475117D01*
X102496307Y-84472327D01*
X102428274Y-84435848D01*
X102360741Y-84398722D01*
X102356558Y-84397395D01*
X102352686Y-84395319D01*
X102278907Y-84372763D01*
X102205406Y-84349447D01*
X102201042Y-84348958D01*
X102196844Y-84347674D01*
X102120084Y-84339876D01*
X102043458Y-84331281D01*
X102034887Y-84331221D01*
X102034715Y-84331204D01*
X102034555Y-84331219D01*
X102031800Y-84331200D01*
X91414600Y-84331200D01*
X91337808Y-84338729D01*
X91261000Y-84345449D01*
X91256786Y-84346673D01*
X91252414Y-84347102D01*
X91178533Y-84369408D01*
X91104507Y-84390915D01*
X91100611Y-84392934D01*
X91096406Y-84394204D01*
X91028268Y-84430434D01*
X90959826Y-84465911D01*
X90956396Y-84468649D01*
X90952518Y-84470711D01*
X90892731Y-84519472D01*
X90832466Y-84567580D01*
X90826361Y-84573601D01*
X90826230Y-84573708D01*
X90826130Y-84573829D01*
X90824166Y-84575766D01*
X83534366Y-91865566D01*
X83485396Y-91925182D01*
X83435830Y-91984253D01*
X83433717Y-91988096D01*
X83430927Y-91991493D01*
X83394448Y-92059526D01*
X83357322Y-92127059D01*
X83355995Y-92131242D01*
X83353919Y-92135114D01*
X83331363Y-92208893D01*
X83308047Y-92282394D01*
X83307558Y-92286758D01*
X83306274Y-92290956D01*
X83298476Y-92367716D01*
X83289881Y-92444342D01*
X83289821Y-92452913D01*
X83289804Y-92453085D01*
X83289819Y-92453245D01*
X83289800Y-92456000D01*
X83289800Y-101955600D01*
X83297325Y-102032347D01*
X83304049Y-102109200D01*
X83305273Y-102113414D01*
X83305702Y-102117786D01*
X83328012Y-102191681D01*
X83349515Y-102265692D01*
X83351534Y-102269586D01*
X83352804Y-102273794D01*
X83389023Y-102341911D01*
X83424510Y-102410374D01*
X83427251Y-102413807D01*
X83429311Y-102417682D01*
X83478069Y-102477466D01*
X83526180Y-102537733D01*
X83532200Y-102543838D01*
X83532308Y-102543970D01*
X83532431Y-102544071D01*
X83534366Y-102546034D01*
X86201366Y-105213034D01*
X86709365Y-105721034D01*
X86709371Y-105721039D01*
X90417766Y-109429434D01*
X90868385Y-109880054D01*
X90928031Y-109929048D01*
X90987072Y-109978589D01*
X90990915Y-109980702D01*
X90994312Y-109983492D01*
X91062345Y-110019971D01*
X91129878Y-110057097D01*
X91134061Y-110058424D01*
X91137933Y-110060500D01*
X91211740Y-110083065D01*
X91285213Y-110106372D01*
X91289573Y-110106861D01*
X91293776Y-110108146D01*
X91370575Y-110115947D01*
X91447161Y-110124538D01*
X91455733Y-110124598D01*
X91455905Y-110124615D01*
X91456065Y-110124600D01*
X91458819Y-110124619D01*
X97905518Y-110124619D01*
X97928272Y-110248597D01*
X97995772Y-110419083D01*
X98095101Y-110573212D01*
X98222476Y-110705113D01*
X98373044Y-110809760D01*
X98541071Y-110883169D01*
X98720157Y-110922544D01*
X98903479Y-110926384D01*
X99084057Y-110894543D01*
X99255010Y-110828235D01*
X99409829Y-110729984D01*
X99542615Y-110603533D01*
X99563004Y-110574629D01*
X104173577Y-110574629D01*
X104243454Y-110567778D01*
X104313380Y-110561660D01*
X104317218Y-110560545D01*
X104321195Y-110560155D01*
X104388398Y-110539865D01*
X104455817Y-110520278D01*
X104459365Y-110518439D01*
X104463190Y-110517284D01*
X104525168Y-110484330D01*
X104587502Y-110452019D01*
X104590625Y-110449526D01*
X104594155Y-110447649D01*
X104648564Y-110403274D01*
X104703423Y-110359481D01*
X104708983Y-110353998D01*
X104709099Y-110353903D01*
X104709188Y-110353795D01*
X104710978Y-110352030D01*
X105135795Y-109927213D01*
X110148318Y-109927213D01*
X110171072Y-110051191D01*
X110238572Y-110221677D01*
X110239200Y-110222651D01*
X110239200Y-112141000D01*
X110246725Y-112217747D01*
X110253449Y-112294600D01*
X110254673Y-112298814D01*
X110255102Y-112303186D01*
X110277412Y-112377081D01*
X110298915Y-112451092D01*
X110300934Y-112454986D01*
X110302204Y-112459194D01*
X110338423Y-112527311D01*
X110373910Y-112595774D01*
X110376651Y-112599207D01*
X110378711Y-112603082D01*
X110427469Y-112662866D01*
X110475580Y-112723133D01*
X110481600Y-112729238D01*
X110481708Y-112729370D01*
X110481831Y-112729471D01*
X110483766Y-112731434D01*
X110852022Y-113099690D01*
X110820346Y-113382088D01*
X110820200Y-113403012D01*
X110820200Y-113723788D01*
X110848741Y-114014868D01*
X110931808Y-114290000D01*
X108623877Y-114290000D01*
X108704652Y-114035364D01*
X108737254Y-113744712D01*
X108737400Y-113723788D01*
X108737400Y-113403012D01*
X108708859Y-113111932D01*
X108624325Y-112831940D01*
X108487016Y-112573699D01*
X108302163Y-112347047D01*
X108076806Y-112160616D01*
X107819531Y-112021508D01*
X107540135Y-111935021D01*
X107249262Y-111904449D01*
X106957990Y-111930956D01*
X106677415Y-112013534D01*
X106418222Y-112149037D01*
X106190285Y-112332303D01*
X106002285Y-112556352D01*
X105861384Y-112812651D01*
X105772948Y-113091436D01*
X105740346Y-113382088D01*
X105740200Y-113403012D01*
X105740200Y-113723788D01*
X105768741Y-114014868D01*
X105851808Y-114290000D01*
X83988241Y-114290000D01*
X84018325Y-114270908D01*
X84349936Y-113955119D01*
X84613894Y-113580935D01*
X84800146Y-113162607D01*
X84901597Y-112716069D01*
X84908900Y-112193041D01*
X84819957Y-111743845D01*
X84645458Y-111320480D01*
X84392051Y-110939071D01*
X84069387Y-110614146D01*
X83689756Y-110358082D01*
X83267619Y-110180632D01*
X82819055Y-110088555D01*
X82361149Y-110085358D01*
X81911343Y-110171164D01*
X81486769Y-110342702D01*
X81103601Y-110593441D01*
X80776431Y-110913829D01*
X80710000Y-111010849D01*
X80710000Y-83992372D01*
X80735022Y-84031198D01*
X81053118Y-84360596D01*
X81429136Y-84621935D01*
X81848754Y-84805262D01*
X82295989Y-84903593D01*
X82753806Y-84913183D01*
X83204766Y-84833666D01*
X83631693Y-84668072D01*
X84018325Y-84422708D01*
X84349936Y-84106919D01*
X84613894Y-83732735D01*
X84800146Y-83314407D01*
X84901597Y-82867869D01*
X84908900Y-82344841D01*
X84819957Y-81895645D01*
X84645458Y-81472280D01*
X84392051Y-81090871D01*
X84069387Y-80765946D01*
X83986444Y-80710000D01*
X109445528Y-80710000D01*
X109445528Y-82575400D01*
G36*
X145953001Y-80745241D02*
X145625831Y-81065629D01*
X145367123Y-81443462D01*
X145186731Y-81864350D01*
X145091524Y-82312261D01*
X145085131Y-82770133D01*
X145167794Y-83220527D01*
X145336364Y-83646288D01*
X145584422Y-84031198D01*
X145902518Y-84360596D01*
X146278536Y-84621935D01*
X146698154Y-84805262D01*
X147145389Y-84903593D01*
X147603206Y-84913183D01*
X148054166Y-84833666D01*
X148481093Y-84668072D01*
X148867725Y-84422708D01*
X149199336Y-84106919D01*
X149290000Y-83978395D01*
X149290000Y-111012143D01*
X149241451Y-110939071D01*
X148918787Y-110614146D01*
X148539156Y-110358082D01*
X148117019Y-110180632D01*
X147668455Y-110088555D01*
X147210549Y-110085358D01*
X146760743Y-110171164D01*
X146336169Y-110342702D01*
X145953001Y-110593441D01*
X145625831Y-110913829D01*
X145367123Y-111291662D01*
X145186731Y-111712550D01*
X145091524Y-112160461D01*
X145085131Y-112618333D01*
X145167794Y-113068727D01*
X145336364Y-113494488D01*
X145584422Y-113879398D01*
X145902518Y-114208796D01*
X146019355Y-114290000D01*
X123980472Y-114290000D01*
X123980472Y-112547400D01*
X123972408Y-112446279D01*
X123919294Y-112274766D01*
X123820500Y-112124841D01*
X123683850Y-112008375D01*
X123520163Y-111934590D01*
X123342400Y-111909328D01*
X122157996Y-111909328D01*
X121192089Y-110943421D01*
X124004579Y-110943421D01*
X124074456Y-110936570D01*
X124144382Y-110930452D01*
X124148220Y-110929337D01*
X124152197Y-110928947D01*
X124219400Y-110908657D01*
X124286819Y-110889070D01*
X124290367Y-110887231D01*
X124294192Y-110886076D01*
X124356170Y-110853122D01*
X124418504Y-110820811D01*
X124421627Y-110818318D01*
X124425157Y-110816441D01*
X124479566Y-110772066D01*
X124534425Y-110728273D01*
X124539985Y-110722790D01*
X124540101Y-110722695D01*
X124540190Y-110722587D01*
X124541980Y-110720822D01*
X126014322Y-109248480D01*
X129611278Y-109248480D01*
X129734849Y-109372051D01*
X129754472Y-109478968D01*
X129821972Y-109649454D01*
X129921301Y-109803583D01*
X130048676Y-109935484D01*
X130199244Y-110040131D01*
X130367271Y-110113540D01*
X130546357Y-110152915D01*
X130729679Y-110156755D01*
X130910257Y-110124914D01*
X131081210Y-110058606D01*
X131236029Y-109960355D01*
X131368815Y-109833904D01*
X131474511Y-109684070D01*
X131549092Y-109516560D01*
X131559488Y-109470800D01*
X138455400Y-109470800D01*
X138532147Y-109463275D01*
X138609000Y-109456551D01*
X138613214Y-109455327D01*
X138617586Y-109454898D01*
X138691481Y-109432588D01*
X138765492Y-109411085D01*
X138769386Y-109409066D01*
X138773594Y-109407796D01*
X138841711Y-109371577D01*
X138910174Y-109336090D01*
X138913607Y-109333349D01*
X138917482Y-109331289D01*
X138977266Y-109282531D01*
X139037533Y-109234420D01*
X139043638Y-109228400D01*
X139043770Y-109228292D01*
X139043871Y-109228169D01*
X139045834Y-109226234D01*
X146030834Y-102241234D01*
X146079782Y-102181645D01*
X146129370Y-102122547D01*
X146131485Y-102118700D01*
X146134272Y-102115307D01*
X146170741Y-102047294D01*
X146207878Y-101979741D01*
X146209204Y-101975560D01*
X146211281Y-101971687D01*
X146233841Y-101897893D01*
X146257153Y-101824406D01*
X146257642Y-101820042D01*
X146258926Y-101815844D01*
X146266719Y-101739129D01*
X146275319Y-101662458D01*
X146275379Y-101653876D01*
X146275395Y-101653715D01*
X146275381Y-101653565D01*
X146275400Y-101650800D01*
X146275400Y-92100400D01*
X146267871Y-92023608D01*
X146261151Y-91946800D01*
X146259927Y-91942586D01*
X146259498Y-91938214D01*
X146237192Y-91864333D01*
X146215685Y-91790307D01*
X146213666Y-91786411D01*
X146212396Y-91782206D01*
X146176187Y-91714107D01*
X146140690Y-91645626D01*
X146137949Y-91642193D01*
X146135889Y-91638318D01*
X146087131Y-91578534D01*
X146039020Y-91518267D01*
X146033000Y-91512162D01*
X146032892Y-91512030D01*
X146032769Y-91511929D01*
X146030834Y-91509966D01*
X138868034Y-84347166D01*
X138808418Y-84298196D01*
X138749347Y-84248630D01*
X138745504Y-84246517D01*
X138742107Y-84243727D01*
X138674074Y-84207248D01*
X138606541Y-84170122D01*
X138602358Y-84168795D01*
X138598486Y-84166719D01*
X138524707Y-84144163D01*
X138451206Y-84120847D01*
X138446842Y-84120358D01*
X138442644Y-84119074D01*
X138365884Y-84111276D01*
X138289258Y-84102681D01*
X138280687Y-84102621D01*
X138280515Y-84102604D01*
X138280355Y-84102619D01*
X138277600Y-84102600D01*
X127584200Y-84102600D01*
X127507453Y-84110125D01*
X127430600Y-84116849D01*
X127426386Y-84118073D01*
X127422014Y-84118502D01*
X127348119Y-84140812D01*
X127274108Y-84162315D01*
X127270214Y-84164334D01*
X127266006Y-84165604D01*
X127197869Y-84201833D01*
X127129427Y-84237310D01*
X127125996Y-84240049D01*
X127122118Y-84242111D01*
X127062312Y-84290887D01*
X127002067Y-84338980D01*
X126995962Y-84345000D01*
X126995830Y-84345108D01*
X126995729Y-84345231D01*
X126993766Y-84347166D01*
X119830966Y-91509966D01*
X119781996Y-91569582D01*
X119732430Y-91628653D01*
X119730317Y-91632496D01*
X119727527Y-91635893D01*
X119691048Y-91703926D01*
X119653922Y-91771459D01*
X119652595Y-91775642D01*
X119650519Y-91779514D01*
X119627963Y-91853293D01*
X119604647Y-91926794D01*
X119604158Y-91931158D01*
X119602874Y-91935356D01*
X119595076Y-92012116D01*
X119586481Y-92088742D01*
X119586421Y-92097313D01*
X119586404Y-92097485D01*
X119586419Y-92097645D01*
X119586400Y-92100400D01*
X119586400Y-103006732D01*
X117656330Y-104936802D01*
X117656330Y-84811072D01*
X119104601Y-83362801D01*
X119149168Y-83308545D01*
X119194286Y-83254775D01*
X119196211Y-83251274D01*
X119198748Y-83248185D01*
X119231913Y-83186333D01*
X119265743Y-83124796D01*
X119266952Y-83120984D01*
X119268839Y-83117465D01*
X119289352Y-83050369D01*
X119298917Y-83020219D01*
X119387778Y-82973763D01*
X119615715Y-82790497D01*
X119803715Y-82566448D01*
X119944616Y-82310149D01*
X120033052Y-82031364D01*
X120065654Y-81740712D01*
X120065800Y-81719788D01*
X120065800Y-81399012D01*
X120037259Y-81107932D01*
X119952725Y-80827940D01*
X119890015Y-80710000D01*
X146006855Y-80710000D01*
X145953001Y-80745241D01*
X145953001Y-80745241D01*
G37*
X145953001Y-80745241D02*
X145625831Y-81065629D01*
X145367123Y-81443462D01*
X145186731Y-81864350D01*
X145091524Y-82312261D01*
X145085131Y-82770133D01*
X145167794Y-83220527D01*
X145336364Y-83646288D01*
X145584422Y-84031198D01*
X145902518Y-84360596D01*
X146278536Y-84621935D01*
X146698154Y-84805262D01*
X147145389Y-84903593D01*
X147603206Y-84913183D01*
X148054166Y-84833666D01*
X148481093Y-84668072D01*
X148867725Y-84422708D01*
X149199336Y-84106919D01*
X149290000Y-83978395D01*
X149290000Y-111012143D01*
X149241451Y-110939071D01*
X148918787Y-110614146D01*
X148539156Y-110358082D01*
X148117019Y-110180632D01*
X147668455Y-110088555D01*
X147210549Y-110085358D01*
X146760743Y-110171164D01*
X146336169Y-110342702D01*
X145953001Y-110593441D01*
X145625831Y-110913829D01*
X145367123Y-111291662D01*
X145186731Y-111712550D01*
X145091524Y-112160461D01*
X145085131Y-112618333D01*
X145167794Y-113068727D01*
X145336364Y-113494488D01*
X145584422Y-113879398D01*
X145902518Y-114208796D01*
X146019355Y-114290000D01*
X123980472Y-114290000D01*
X123980472Y-112547400D01*
X123972408Y-112446279D01*
X123919294Y-112274766D01*
X123820500Y-112124841D01*
X123683850Y-112008375D01*
X123520163Y-111934590D01*
X123342400Y-111909328D01*
X122157996Y-111909328D01*
X121192089Y-110943421D01*
X124004579Y-110943421D01*
X124074456Y-110936570D01*
X124144382Y-110930452D01*
X124148220Y-110929337D01*
X124152197Y-110928947D01*
X124219400Y-110908657D01*
X124286819Y-110889070D01*
X124290367Y-110887231D01*
X124294192Y-110886076D01*
X124356170Y-110853122D01*
X124418504Y-110820811D01*
X124421627Y-110818318D01*
X124425157Y-110816441D01*
X124479566Y-110772066D01*
X124534425Y-110728273D01*
X124539985Y-110722790D01*
X124540101Y-110722695D01*
X124540190Y-110722587D01*
X124541980Y-110720822D01*
X126014322Y-109248480D01*
X129611278Y-109248480D01*
X129734849Y-109372051D01*
X129754472Y-109478968D01*
X129821972Y-109649454D01*
X129921301Y-109803583D01*
X130048676Y-109935484D01*
X130199244Y-110040131D01*
X130367271Y-110113540D01*
X130546357Y-110152915D01*
X130729679Y-110156755D01*
X130910257Y-110124914D01*
X131081210Y-110058606D01*
X131236029Y-109960355D01*
X131368815Y-109833904D01*
X131474511Y-109684070D01*
X131549092Y-109516560D01*
X131559488Y-109470800D01*
X138455400Y-109470800D01*
X138532147Y-109463275D01*
X138609000Y-109456551D01*
X138613214Y-109455327D01*
X138617586Y-109454898D01*
X138691481Y-109432588D01*
X138765492Y-109411085D01*
X138769386Y-109409066D01*
X138773594Y-109407796D01*
X138841711Y-109371577D01*
X138910174Y-109336090D01*
X138913607Y-109333349D01*
X138917482Y-109331289D01*
X138977266Y-109282531D01*
X139037533Y-109234420D01*
X139043638Y-109228400D01*
X139043770Y-109228292D01*
X139043871Y-109228169D01*
X139045834Y-109226234D01*
X146030834Y-102241234D01*
X146079782Y-102181645D01*
X146129370Y-102122547D01*
X146131485Y-102118700D01*
X146134272Y-102115307D01*
X146170741Y-102047294D01*
X146207878Y-101979741D01*
X146209204Y-101975560D01*
X146211281Y-101971687D01*
X146233841Y-101897893D01*
X146257153Y-101824406D01*
X146257642Y-101820042D01*
X146258926Y-101815844D01*
X146266719Y-101739129D01*
X146275319Y-101662458D01*
X146275379Y-101653876D01*
X146275395Y-101653715D01*
X146275381Y-101653565D01*
X146275400Y-101650800D01*
X146275400Y-92100400D01*
X146267871Y-92023608D01*
X146261151Y-91946800D01*
X146259927Y-91942586D01*
X146259498Y-91938214D01*
X146237192Y-91864333D01*
X146215685Y-91790307D01*
X146213666Y-91786411D01*
X146212396Y-91782206D01*
X146176187Y-91714107D01*
X146140690Y-91645626D01*
X146137949Y-91642193D01*
X146135889Y-91638318D01*
X146087131Y-91578534D01*
X146039020Y-91518267D01*
X146033000Y-91512162D01*
X146032892Y-91512030D01*
X146032769Y-91511929D01*
X146030834Y-91509966D01*
X138868034Y-84347166D01*
X138808418Y-84298196D01*
X138749347Y-84248630D01*
X138745504Y-84246517D01*
X138742107Y-84243727D01*
X138674074Y-84207248D01*
X138606541Y-84170122D01*
X138602358Y-84168795D01*
X138598486Y-84166719D01*
X138524707Y-84144163D01*
X138451206Y-84120847D01*
X138446842Y-84120358D01*
X138442644Y-84119074D01*
X138365884Y-84111276D01*
X138289258Y-84102681D01*
X138280687Y-84102621D01*
X138280515Y-84102604D01*
X138280355Y-84102619D01*
X138277600Y-84102600D01*
X127584200Y-84102600D01*
X127507453Y-84110125D01*
X127430600Y-84116849D01*
X127426386Y-84118073D01*
X127422014Y-84118502D01*
X127348119Y-84140812D01*
X127274108Y-84162315D01*
X127270214Y-84164334D01*
X127266006Y-84165604D01*
X127197869Y-84201833D01*
X127129427Y-84237310D01*
X127125996Y-84240049D01*
X127122118Y-84242111D01*
X127062312Y-84290887D01*
X127002067Y-84338980D01*
X126995962Y-84345000D01*
X126995830Y-84345108D01*
X126995729Y-84345231D01*
X126993766Y-84347166D01*
X119830966Y-91509966D01*
X119781996Y-91569582D01*
X119732430Y-91628653D01*
X119730317Y-91632496D01*
X119727527Y-91635893D01*
X119691048Y-91703926D01*
X119653922Y-91771459D01*
X119652595Y-91775642D01*
X119650519Y-91779514D01*
X119627963Y-91853293D01*
X119604647Y-91926794D01*
X119604158Y-91931158D01*
X119602874Y-91935356D01*
X119595076Y-92012116D01*
X119586481Y-92088742D01*
X119586421Y-92097313D01*
X119586404Y-92097485D01*
X119586419Y-92097645D01*
X119586400Y-92100400D01*
X119586400Y-103006732D01*
X117656330Y-104936802D01*
X117656330Y-84811072D01*
X119104601Y-83362801D01*
X119149168Y-83308545D01*
X119194286Y-83254775D01*
X119196211Y-83251274D01*
X119198748Y-83248185D01*
X119231913Y-83186333D01*
X119265743Y-83124796D01*
X119266952Y-83120984D01*
X119268839Y-83117465D01*
X119289352Y-83050369D01*
X119298917Y-83020219D01*
X119387778Y-82973763D01*
X119615715Y-82790497D01*
X119803715Y-82566448D01*
X119944616Y-82310149D01*
X120033052Y-82031364D01*
X120065654Y-81740712D01*
X120065800Y-81719788D01*
X120065800Y-81399012D01*
X120037259Y-81107932D01*
X119952725Y-80827940D01*
X119890015Y-80710000D01*
X146006855Y-80710000D01*
X145953001Y-80745241D01*
G36*
X113153616Y-110147804D02*
X113207872Y-110192371D01*
X113261642Y-110237489D01*
X113265143Y-110239414D01*
X113268232Y-110241951D01*
X113330084Y-110275116D01*
X113391621Y-110308946D01*
X113395433Y-110310155D01*
X113398952Y-110312042D01*
X113466048Y-110332555D01*
X113533004Y-110353795D01*
X113536976Y-110354241D01*
X113540798Y-110355409D01*
X113550209Y-110356365D01*
X113656925Y-110430534D01*
X113824952Y-110503943D01*
X114004038Y-110543318D01*
X114023800Y-110543732D01*
X114023800Y-112160633D01*
X113810285Y-112332303D01*
X113622285Y-112556352D01*
X113589501Y-112615987D01*
X113567016Y-112573699D01*
X113382163Y-112347047D01*
X113156806Y-112160616D01*
X112899531Y-112021508D01*
X112620135Y-111935021D01*
X112329262Y-111904449D01*
X112044437Y-111930369D01*
X111909200Y-111795132D01*
X111909200Y-110215665D01*
X111965692Y-110088783D01*
X112002400Y-109927213D01*
X112933025Y-109927213D01*
X113153616Y-110147804D01*
X113153616Y-110147804D01*
G37*
X113153616Y-110147804D02*
X113207872Y-110192371D01*
X113261642Y-110237489D01*
X113265143Y-110239414D01*
X113268232Y-110241951D01*
X113330084Y-110275116D01*
X113391621Y-110308946D01*
X113395433Y-110310155D01*
X113398952Y-110312042D01*
X113466048Y-110332555D01*
X113533004Y-110353795D01*
X113536976Y-110354241D01*
X113540798Y-110355409D01*
X113550209Y-110356365D01*
X113656925Y-110430534D01*
X113824952Y-110503943D01*
X114004038Y-110543318D01*
X114023800Y-110543732D01*
X114023800Y-112160633D01*
X113810285Y-112332303D01*
X113622285Y-112556352D01*
X113589501Y-112615987D01*
X113567016Y-112573699D01*
X113382163Y-112347047D01*
X113156806Y-112160616D01*
X112899531Y-112021508D01*
X112620135Y-111935021D01*
X112329262Y-111904449D01*
X112044437Y-111930369D01*
X111909200Y-111795132D01*
X111909200Y-110215665D01*
X111965692Y-110088783D01*
X112002400Y-109927213D01*
X112933025Y-109927213D01*
X113153616Y-110147804D01*
G36*
X91824200Y-86569653D02*
X91763654Y-86710916D01*
X91725531Y-86890272D01*
X91722971Y-87073617D01*
X91756072Y-87253968D01*
X91823572Y-87424454D01*
X91922901Y-87578583D01*
X92050276Y-87710484D01*
X92200844Y-87815131D01*
X92368871Y-87888540D01*
X92547957Y-87927915D01*
X92731279Y-87931755D01*
X92911857Y-87899914D01*
X93082810Y-87833606D01*
X93237629Y-87735355D01*
X93370415Y-87608904D01*
X93476111Y-87459070D01*
X93550692Y-87291560D01*
X93591316Y-87112754D01*
X93594240Y-86903319D01*
X93558625Y-86723448D01*
X93494200Y-86567143D01*
X93494200Y-86001200D01*
X98606000Y-86001200D01*
X98606000Y-86137853D01*
X98545454Y-86279116D01*
X98507331Y-86458472D01*
X98504771Y-86641817D01*
X98537872Y-86822168D01*
X98605372Y-86992654D01*
X98704701Y-87146783D01*
X98832076Y-87278684D01*
X98982644Y-87383331D01*
X99150671Y-87456740D01*
X99329757Y-87496115D01*
X99513079Y-87499955D01*
X99693657Y-87468114D01*
X99864610Y-87401806D01*
X100019429Y-87303555D01*
X100152215Y-87177104D01*
X100257911Y-87027270D01*
X100332492Y-86859760D01*
X100373116Y-86680954D01*
X100376040Y-86471519D01*
X100340425Y-86291648D01*
X100276000Y-86135343D01*
X100276000Y-86001200D01*
X101685932Y-86001200D01*
X104838732Y-89154000D01*
X104560765Y-89431967D01*
X104530395Y-89468940D01*
X104415922Y-89515190D01*
X104262491Y-89615593D01*
X104131483Y-89743886D01*
X104027889Y-89895181D01*
X103955654Y-90063716D01*
X103917531Y-90243072D01*
X103914971Y-90426417D01*
X103948072Y-90606768D01*
X104015572Y-90777254D01*
X104114901Y-90931383D01*
X104242276Y-91063284D01*
X104392844Y-91167931D01*
X104560871Y-91241340D01*
X104739957Y-91280715D01*
X104923279Y-91284555D01*
X105103857Y-91252714D01*
X105274810Y-91186406D01*
X105429629Y-91088155D01*
X105562415Y-90961704D01*
X105668111Y-90811870D01*
X105742692Y-90644360D01*
X105745021Y-90634111D01*
X105790603Y-90578619D01*
X105840169Y-90519548D01*
X105842282Y-90515705D01*
X105845072Y-90512308D01*
X105848438Y-90506030D01*
X106019600Y-90334868D01*
X108461200Y-92776468D01*
X108461200Y-95583400D01*
X107893923Y-95583400D01*
X107745225Y-95520893D01*
X107565607Y-95484023D01*
X107382249Y-95482743D01*
X107202133Y-95517101D01*
X107032122Y-95585790D01*
X106878691Y-95686193D01*
X106747683Y-95814486D01*
X106644089Y-95965781D01*
X106571854Y-96134316D01*
X106533731Y-96313672D01*
X106531171Y-96497017D01*
X106564272Y-96677368D01*
X106631772Y-96847854D01*
X106731101Y-97001983D01*
X106858476Y-97133884D01*
X107009044Y-97238531D01*
X107177071Y-97311940D01*
X107356157Y-97351315D01*
X107539479Y-97355155D01*
X107720057Y-97323314D01*
X107891010Y-97257006D01*
X107896692Y-97253400D01*
X108461200Y-97253400D01*
X108461200Y-101425400D01*
X107309723Y-101425400D01*
X107161025Y-101362893D01*
X106981407Y-101326023D01*
X106798049Y-101324743D01*
X106617933Y-101359101D01*
X106447922Y-101427790D01*
X106294491Y-101528193D01*
X106163483Y-101656486D01*
X106059889Y-101807781D01*
X105987654Y-101976316D01*
X105949531Y-102155672D01*
X105946971Y-102339017D01*
X105980072Y-102519368D01*
X106047572Y-102689854D01*
X106146901Y-102843983D01*
X106274276Y-102975884D01*
X106424844Y-103080531D01*
X106592871Y-103153940D01*
X106771957Y-103193315D01*
X106955279Y-103197155D01*
X107135857Y-103165314D01*
X107306810Y-103099006D01*
X107312492Y-103095400D01*
X108461200Y-103095400D01*
X108461200Y-103555800D01*
X108468725Y-103632547D01*
X108475449Y-103709400D01*
X108476673Y-103713614D01*
X108477102Y-103717986D01*
X108499412Y-103791881D01*
X108520915Y-103865892D01*
X108522934Y-103869786D01*
X108524204Y-103873994D01*
X108560423Y-103942111D01*
X108595910Y-104010574D01*
X108598651Y-104014007D01*
X108600711Y-104017882D01*
X108649469Y-104077666D01*
X108697580Y-104137933D01*
X108703600Y-104144038D01*
X108703708Y-104144170D01*
X108703831Y-104144271D01*
X108705766Y-104146234D01*
X109879778Y-105320246D01*
X109806707Y-105426963D01*
X109734472Y-105595498D01*
X109696349Y-105774854D01*
X109693789Y-105958199D01*
X109726890Y-106138550D01*
X109794390Y-106309036D01*
X109887426Y-106453400D01*
X105216802Y-106453400D01*
X98448400Y-99684998D01*
X98448400Y-96984824D01*
X100185974Y-96984824D01*
X100232583Y-97496970D01*
X100377781Y-97990308D01*
X100616036Y-98446049D01*
X100938274Y-98846833D01*
X101332222Y-99177394D01*
X101782873Y-99425142D01*
X102273063Y-99580639D01*
X102784120Y-99637963D01*
X102820910Y-99638220D01*
X102846410Y-99638220D01*
X103358218Y-99588037D01*
X103850530Y-99439399D01*
X104304597Y-99197967D01*
X104703121Y-98872939D01*
X105030924Y-98476693D01*
X105275519Y-98024324D01*
X105427591Y-97533060D01*
X105481346Y-97021616D01*
X105434737Y-96509470D01*
X105289539Y-96016132D01*
X105051284Y-95560391D01*
X104729046Y-95159607D01*
X104335098Y-94829046D01*
X103884447Y-94581298D01*
X103394257Y-94425801D01*
X102883200Y-94368477D01*
X102846410Y-94368220D01*
X102820910Y-94368220D01*
X102309102Y-94418403D01*
X101816790Y-94567041D01*
X101362723Y-94808473D01*
X100964199Y-95133501D01*
X100636396Y-95529747D01*
X100391801Y-95982116D01*
X100239729Y-96473380D01*
X100185974Y-96984824D01*
X98448400Y-96984824D01*
X98448400Y-93548200D01*
X98441544Y-93478273D01*
X98435430Y-93408397D01*
X98434316Y-93404564D01*
X98433926Y-93400582D01*
X98413624Y-93333338D01*
X98394049Y-93265960D01*
X98392210Y-93262412D01*
X98391055Y-93258587D01*
X98358091Y-93196590D01*
X98325789Y-93134274D01*
X98323297Y-93131153D01*
X98321420Y-93127622D01*
X98277041Y-93073207D01*
X98233252Y-93018354D01*
X98227769Y-93012794D01*
X98227674Y-93012678D01*
X98227566Y-93012589D01*
X98225801Y-93010799D01*
X95596308Y-90381306D01*
X95639002Y-90193389D01*
X95643725Y-89855157D01*
X95586207Y-89564670D01*
X95473362Y-89290888D01*
X95309488Y-89044238D01*
X95100827Y-88834116D01*
X94855327Y-88668524D01*
X94582340Y-88553770D01*
X94292262Y-88494226D01*
X93996143Y-88492159D01*
X93705262Y-88547647D01*
X93430698Y-88658578D01*
X93182910Y-88820726D01*
X92971336Y-89027915D01*
X92804035Y-89272252D01*
X92687378Y-89544432D01*
X92625810Y-89834088D01*
X92621675Y-90130185D01*
X92675132Y-90421446D01*
X92784143Y-90696777D01*
X92944557Y-90945691D01*
X93150264Y-91158707D01*
X93393428Y-91327710D01*
X93664787Y-91446264D01*
X93954005Y-91509853D01*
X94250066Y-91516054D01*
X94531778Y-91466380D01*
X96928400Y-93863002D01*
X96928400Y-99999800D01*
X96935251Y-100069677D01*
X96941369Y-100139603D01*
X96942484Y-100143441D01*
X96942874Y-100147418D01*
X96963164Y-100214621D01*
X96982751Y-100282040D01*
X96984590Y-100285588D01*
X96985745Y-100289413D01*
X97018699Y-100351391D01*
X97051010Y-100413725D01*
X97053503Y-100416848D01*
X97055380Y-100420378D01*
X97099755Y-100474787D01*
X97143548Y-100529646D01*
X97149031Y-100535206D01*
X97149126Y-100535322D01*
X97149234Y-100535411D01*
X97150999Y-100537201D01*
X99729377Y-103115579D01*
X99582340Y-103053770D01*
X99292262Y-102994226D01*
X98996143Y-102992159D01*
X98705262Y-103047647D01*
X98430698Y-103158578D01*
X98182910Y-103320726D01*
X97971336Y-103527915D01*
X97804035Y-103772252D01*
X97687378Y-104044432D01*
X97625810Y-104334088D01*
X97621675Y-104630185D01*
X97675132Y-104921446D01*
X97683753Y-104943221D01*
X95648463Y-104943221D01*
X95594501Y-104889259D01*
X95639002Y-104693389D01*
X95643725Y-104355157D01*
X95586207Y-104064670D01*
X95473362Y-103790888D01*
X95309488Y-103544238D01*
X95100827Y-103334116D01*
X94855327Y-103168524D01*
X94582340Y-103053770D01*
X94292262Y-102994226D01*
X93996143Y-102992159D01*
X93705262Y-103047647D01*
X93430698Y-103158578D01*
X93182910Y-103320726D01*
X92971336Y-103527915D01*
X92804035Y-103772252D01*
X92687378Y-104044432D01*
X92625810Y-104334088D01*
X92621675Y-104630185D01*
X92675132Y-104921446D01*
X92784143Y-105196777D01*
X92944557Y-105445691D01*
X93150264Y-105658707D01*
X93393428Y-105827710D01*
X93664787Y-105946264D01*
X93954005Y-106009853D01*
X94250066Y-106016054D01*
X94523481Y-105967843D01*
X94796260Y-106240622D01*
X94850516Y-106285189D01*
X94904286Y-106330307D01*
X94907787Y-106332232D01*
X94910876Y-106334769D01*
X94972763Y-106367953D01*
X95034265Y-106401764D01*
X95038073Y-106402972D01*
X95041596Y-106404861D01*
X95108779Y-106425401D01*
X95175648Y-106446613D01*
X95179615Y-106447058D01*
X95183442Y-106448228D01*
X95253360Y-106455330D01*
X95323050Y-106463147D01*
X95330855Y-106463201D01*
X95331008Y-106463217D01*
X95331151Y-106463203D01*
X95333661Y-106463221D01*
X99923600Y-106463221D01*
X99993477Y-106456370D01*
X100063403Y-106450252D01*
X100067241Y-106449137D01*
X100071218Y-106448747D01*
X100138421Y-106428457D01*
X100205840Y-106408870D01*
X100209388Y-106407031D01*
X100213213Y-106405876D01*
X100275191Y-106372922D01*
X100337525Y-106340611D01*
X100340648Y-106338118D01*
X100344178Y-106336241D01*
X100398587Y-106291866D01*
X100453446Y-106248073D01*
X100459006Y-106242590D01*
X100459122Y-106242495D01*
X100459211Y-106242387D01*
X100461001Y-106240622D01*
X100645218Y-106056405D01*
X101271793Y-106056405D01*
X104064396Y-108849008D01*
X103858775Y-109054629D01*
X101469800Y-109054629D01*
X101469800Y-107687642D01*
X101526292Y-107560760D01*
X101566916Y-107381954D01*
X101569840Y-107172519D01*
X101534225Y-106992648D01*
X101464350Y-106823120D01*
X101362879Y-106670393D01*
X101233675Y-106540284D01*
X101081660Y-106437749D01*
X100912625Y-106366693D01*
X100733007Y-106329823D01*
X100549649Y-106328543D01*
X100369533Y-106362901D01*
X100199522Y-106431590D01*
X100046091Y-106531993D01*
X99915083Y-106660286D01*
X99811489Y-106811581D01*
X99739254Y-106980116D01*
X99701131Y-107159472D01*
X99698571Y-107342817D01*
X99731672Y-107523168D01*
X99799172Y-107693654D01*
X99799800Y-107694628D01*
X99799800Y-108454619D01*
X94713400Y-108454619D01*
X94713400Y-107967042D01*
X94769892Y-107840160D01*
X94810516Y-107661354D01*
X94813440Y-107451919D01*
X94777825Y-107272048D01*
X94707950Y-107102520D01*
X94606479Y-106949793D01*
X94477275Y-106819684D01*
X94325260Y-106717149D01*
X94156225Y-106646093D01*
X93976607Y-106609223D01*
X93793249Y-106607943D01*
X93613133Y-106642301D01*
X93443122Y-106710990D01*
X93289691Y-106811393D01*
X93158683Y-106939686D01*
X93055089Y-107090981D01*
X92982854Y-107259516D01*
X92944731Y-107438872D01*
X92942171Y-107622217D01*
X92975272Y-107802568D01*
X93042772Y-107973054D01*
X93043400Y-107974028D01*
X93043400Y-108454619D01*
X91804687Y-108454619D01*
X88544168Y-105194100D01*
X88784316Y-104953952D01*
X88917210Y-104902406D01*
X89072029Y-104804155D01*
X89204815Y-104677704D01*
X89310511Y-104527870D01*
X89385092Y-104360360D01*
X89425716Y-104181554D01*
X89428640Y-103972119D01*
X89393025Y-103792248D01*
X89323150Y-103622720D01*
X89221679Y-103469993D01*
X89092475Y-103339884D01*
X88940460Y-103237349D01*
X88771425Y-103166293D01*
X88591807Y-103129423D01*
X88408449Y-103128143D01*
X88228333Y-103162501D01*
X88058322Y-103231190D01*
X87904891Y-103331593D01*
X87773883Y-103459886D01*
X87670289Y-103611181D01*
X87598983Y-103777549D01*
X87363300Y-104013232D01*
X84959800Y-101609732D01*
X84959800Y-98574200D01*
X85427678Y-98574200D01*
X85561671Y-98632740D01*
X85740757Y-98672115D01*
X85924079Y-98675955D01*
X86104657Y-98644114D01*
X86275610Y-98577806D01*
X86430429Y-98479555D01*
X86563215Y-98353104D01*
X86668911Y-98203270D01*
X86743492Y-98035760D01*
X86784116Y-97856954D01*
X86787040Y-97647519D01*
X86751425Y-97467648D01*
X86681550Y-97298120D01*
X86580079Y-97145393D01*
X86450875Y-97015284D01*
X86405717Y-96984824D01*
X87785974Y-96984824D01*
X87832583Y-97496970D01*
X87977781Y-97990308D01*
X88216036Y-98446049D01*
X88538274Y-98846833D01*
X88932222Y-99177394D01*
X89382873Y-99425142D01*
X89873063Y-99580639D01*
X90384120Y-99637963D01*
X90420910Y-99638220D01*
X90446410Y-99638220D01*
X90958218Y-99588037D01*
X91450530Y-99439399D01*
X91904597Y-99197967D01*
X92303121Y-98872939D01*
X92630924Y-98476693D01*
X92875519Y-98024324D01*
X93027591Y-97533060D01*
X93081346Y-97021616D01*
X93034737Y-96509470D01*
X92889539Y-96016132D01*
X92651284Y-95560391D01*
X92329046Y-95159607D01*
X91935098Y-94829046D01*
X91484447Y-94581298D01*
X90994257Y-94425801D01*
X90483200Y-94368477D01*
X90446410Y-94368220D01*
X90420910Y-94368220D01*
X89909102Y-94418403D01*
X89416790Y-94567041D01*
X88962723Y-94808473D01*
X88564199Y-95133501D01*
X88236396Y-95529747D01*
X87991801Y-95982116D01*
X87839729Y-96473380D01*
X87785974Y-96984824D01*
X86405717Y-96984824D01*
X86298860Y-96912749D01*
X86129825Y-96841693D01*
X85950207Y-96804823D01*
X85766849Y-96803543D01*
X85586733Y-96837901D01*
X85422637Y-96904200D01*
X84959800Y-96904200D01*
X84959800Y-92801868D01*
X86461600Y-91300068D01*
X86764576Y-91603044D01*
X86819772Y-91742454D01*
X86919101Y-91896583D01*
X87046476Y-92028484D01*
X87197044Y-92133131D01*
X87365071Y-92206540D01*
X87544157Y-92245915D01*
X87727479Y-92249755D01*
X87908057Y-92217914D01*
X88079010Y-92151606D01*
X88233829Y-92053355D01*
X88366615Y-91926904D01*
X88472311Y-91777070D01*
X88546892Y-91609560D01*
X88587516Y-91430754D01*
X88590440Y-91221319D01*
X88554825Y-91041448D01*
X88484950Y-90871920D01*
X88383479Y-90719193D01*
X88254275Y-90589084D01*
X88102260Y-90486549D01*
X87942776Y-90419508D01*
X87642468Y-90119200D01*
X91760468Y-86001200D01*
X91824200Y-86001200D01*
X91824200Y-86569653D01*
X91824200Y-86569653D01*
G37*
X91824200Y-86569653D02*
X91763654Y-86710916D01*
X91725531Y-86890272D01*
X91722971Y-87073617D01*
X91756072Y-87253968D01*
X91823572Y-87424454D01*
X91922901Y-87578583D01*
X92050276Y-87710484D01*
X92200844Y-87815131D01*
X92368871Y-87888540D01*
X92547957Y-87927915D01*
X92731279Y-87931755D01*
X92911857Y-87899914D01*
X93082810Y-87833606D01*
X93237629Y-87735355D01*
X93370415Y-87608904D01*
X93476111Y-87459070D01*
X93550692Y-87291560D01*
X93591316Y-87112754D01*
X93594240Y-86903319D01*
X93558625Y-86723448D01*
X93494200Y-86567143D01*
X93494200Y-86001200D01*
X98606000Y-86001200D01*
X98606000Y-86137853D01*
X98545454Y-86279116D01*
X98507331Y-86458472D01*
X98504771Y-86641817D01*
X98537872Y-86822168D01*
X98605372Y-86992654D01*
X98704701Y-87146783D01*
X98832076Y-87278684D01*
X98982644Y-87383331D01*
X99150671Y-87456740D01*
X99329757Y-87496115D01*
X99513079Y-87499955D01*
X99693657Y-87468114D01*
X99864610Y-87401806D01*
X100019429Y-87303555D01*
X100152215Y-87177104D01*
X100257911Y-87027270D01*
X100332492Y-86859760D01*
X100373116Y-86680954D01*
X100376040Y-86471519D01*
X100340425Y-86291648D01*
X100276000Y-86135343D01*
X100276000Y-86001200D01*
X101685932Y-86001200D01*
X104838732Y-89154000D01*
X104560765Y-89431967D01*
X104530395Y-89468940D01*
X104415922Y-89515190D01*
X104262491Y-89615593D01*
X104131483Y-89743886D01*
X104027889Y-89895181D01*
X103955654Y-90063716D01*
X103917531Y-90243072D01*
X103914971Y-90426417D01*
X103948072Y-90606768D01*
X104015572Y-90777254D01*
X104114901Y-90931383D01*
X104242276Y-91063284D01*
X104392844Y-91167931D01*
X104560871Y-91241340D01*
X104739957Y-91280715D01*
X104923279Y-91284555D01*
X105103857Y-91252714D01*
X105274810Y-91186406D01*
X105429629Y-91088155D01*
X105562415Y-90961704D01*
X105668111Y-90811870D01*
X105742692Y-90644360D01*
X105745021Y-90634111D01*
X105790603Y-90578619D01*
X105840169Y-90519548D01*
X105842282Y-90515705D01*
X105845072Y-90512308D01*
X105848438Y-90506030D01*
X106019600Y-90334868D01*
X108461200Y-92776468D01*
X108461200Y-95583400D01*
X107893923Y-95583400D01*
X107745225Y-95520893D01*
X107565607Y-95484023D01*
X107382249Y-95482743D01*
X107202133Y-95517101D01*
X107032122Y-95585790D01*
X106878691Y-95686193D01*
X106747683Y-95814486D01*
X106644089Y-95965781D01*
X106571854Y-96134316D01*
X106533731Y-96313672D01*
X106531171Y-96497017D01*
X106564272Y-96677368D01*
X106631772Y-96847854D01*
X106731101Y-97001983D01*
X106858476Y-97133884D01*
X107009044Y-97238531D01*
X107177071Y-97311940D01*
X107356157Y-97351315D01*
X107539479Y-97355155D01*
X107720057Y-97323314D01*
X107891010Y-97257006D01*
X107896692Y-97253400D01*
X108461200Y-97253400D01*
X108461200Y-101425400D01*
X107309723Y-101425400D01*
X107161025Y-101362893D01*
X106981407Y-101326023D01*
X106798049Y-101324743D01*
X106617933Y-101359101D01*
X106447922Y-101427790D01*
X106294491Y-101528193D01*
X106163483Y-101656486D01*
X106059889Y-101807781D01*
X105987654Y-101976316D01*
X105949531Y-102155672D01*
X105946971Y-102339017D01*
X105980072Y-102519368D01*
X106047572Y-102689854D01*
X106146901Y-102843983D01*
X106274276Y-102975884D01*
X106424844Y-103080531D01*
X106592871Y-103153940D01*
X106771957Y-103193315D01*
X106955279Y-103197155D01*
X107135857Y-103165314D01*
X107306810Y-103099006D01*
X107312492Y-103095400D01*
X108461200Y-103095400D01*
X108461200Y-103555800D01*
X108468725Y-103632547D01*
X108475449Y-103709400D01*
X108476673Y-103713614D01*
X108477102Y-103717986D01*
X108499412Y-103791881D01*
X108520915Y-103865892D01*
X108522934Y-103869786D01*
X108524204Y-103873994D01*
X108560423Y-103942111D01*
X108595910Y-104010574D01*
X108598651Y-104014007D01*
X108600711Y-104017882D01*
X108649469Y-104077666D01*
X108697580Y-104137933D01*
X108703600Y-104144038D01*
X108703708Y-104144170D01*
X108703831Y-104144271D01*
X108705766Y-104146234D01*
X109879778Y-105320246D01*
X109806707Y-105426963D01*
X109734472Y-105595498D01*
X109696349Y-105774854D01*
X109693789Y-105958199D01*
X109726890Y-106138550D01*
X109794390Y-106309036D01*
X109887426Y-106453400D01*
X105216802Y-106453400D01*
X98448400Y-99684998D01*
X98448400Y-96984824D01*
X100185974Y-96984824D01*
X100232583Y-97496970D01*
X100377781Y-97990308D01*
X100616036Y-98446049D01*
X100938274Y-98846833D01*
X101332222Y-99177394D01*
X101782873Y-99425142D01*
X102273063Y-99580639D01*
X102784120Y-99637963D01*
X102820910Y-99638220D01*
X102846410Y-99638220D01*
X103358218Y-99588037D01*
X103850530Y-99439399D01*
X104304597Y-99197967D01*
X104703121Y-98872939D01*
X105030924Y-98476693D01*
X105275519Y-98024324D01*
X105427591Y-97533060D01*
X105481346Y-97021616D01*
X105434737Y-96509470D01*
X105289539Y-96016132D01*
X105051284Y-95560391D01*
X104729046Y-95159607D01*
X104335098Y-94829046D01*
X103884447Y-94581298D01*
X103394257Y-94425801D01*
X102883200Y-94368477D01*
X102846410Y-94368220D01*
X102820910Y-94368220D01*
X102309102Y-94418403D01*
X101816790Y-94567041D01*
X101362723Y-94808473D01*
X100964199Y-95133501D01*
X100636396Y-95529747D01*
X100391801Y-95982116D01*
X100239729Y-96473380D01*
X100185974Y-96984824D01*
X98448400Y-96984824D01*
X98448400Y-93548200D01*
X98441544Y-93478273D01*
X98435430Y-93408397D01*
X98434316Y-93404564D01*
X98433926Y-93400582D01*
X98413624Y-93333338D01*
X98394049Y-93265960D01*
X98392210Y-93262412D01*
X98391055Y-93258587D01*
X98358091Y-93196590D01*
X98325789Y-93134274D01*
X98323297Y-93131153D01*
X98321420Y-93127622D01*
X98277041Y-93073207D01*
X98233252Y-93018354D01*
X98227769Y-93012794D01*
X98227674Y-93012678D01*
X98227566Y-93012589D01*
X98225801Y-93010799D01*
X95596308Y-90381306D01*
X95639002Y-90193389D01*
X95643725Y-89855157D01*
X95586207Y-89564670D01*
X95473362Y-89290888D01*
X95309488Y-89044238D01*
X95100827Y-88834116D01*
X94855327Y-88668524D01*
X94582340Y-88553770D01*
X94292262Y-88494226D01*
X93996143Y-88492159D01*
X93705262Y-88547647D01*
X93430698Y-88658578D01*
X93182910Y-88820726D01*
X92971336Y-89027915D01*
X92804035Y-89272252D01*
X92687378Y-89544432D01*
X92625810Y-89834088D01*
X92621675Y-90130185D01*
X92675132Y-90421446D01*
X92784143Y-90696777D01*
X92944557Y-90945691D01*
X93150264Y-91158707D01*
X93393428Y-91327710D01*
X93664787Y-91446264D01*
X93954005Y-91509853D01*
X94250066Y-91516054D01*
X94531778Y-91466380D01*
X96928400Y-93863002D01*
X96928400Y-99999800D01*
X96935251Y-100069677D01*
X96941369Y-100139603D01*
X96942484Y-100143441D01*
X96942874Y-100147418D01*
X96963164Y-100214621D01*
X96982751Y-100282040D01*
X96984590Y-100285588D01*
X96985745Y-100289413D01*
X97018699Y-100351391D01*
X97051010Y-100413725D01*
X97053503Y-100416848D01*
X97055380Y-100420378D01*
X97099755Y-100474787D01*
X97143548Y-100529646D01*
X97149031Y-100535206D01*
X97149126Y-100535322D01*
X97149234Y-100535411D01*
X97150999Y-100537201D01*
X99729377Y-103115579D01*
X99582340Y-103053770D01*
X99292262Y-102994226D01*
X98996143Y-102992159D01*
X98705262Y-103047647D01*
X98430698Y-103158578D01*
X98182910Y-103320726D01*
X97971336Y-103527915D01*
X97804035Y-103772252D01*
X97687378Y-104044432D01*
X97625810Y-104334088D01*
X97621675Y-104630185D01*
X97675132Y-104921446D01*
X97683753Y-104943221D01*
X95648463Y-104943221D01*
X95594501Y-104889259D01*
X95639002Y-104693389D01*
X95643725Y-104355157D01*
X95586207Y-104064670D01*
X95473362Y-103790888D01*
X95309488Y-103544238D01*
X95100827Y-103334116D01*
X94855327Y-103168524D01*
X94582340Y-103053770D01*
X94292262Y-102994226D01*
X93996143Y-102992159D01*
X93705262Y-103047647D01*
X93430698Y-103158578D01*
X93182910Y-103320726D01*
X92971336Y-103527915D01*
X92804035Y-103772252D01*
X92687378Y-104044432D01*
X92625810Y-104334088D01*
X92621675Y-104630185D01*
X92675132Y-104921446D01*
X92784143Y-105196777D01*
X92944557Y-105445691D01*
X93150264Y-105658707D01*
X93393428Y-105827710D01*
X93664787Y-105946264D01*
X93954005Y-106009853D01*
X94250066Y-106016054D01*
X94523481Y-105967843D01*
X94796260Y-106240622D01*
X94850516Y-106285189D01*
X94904286Y-106330307D01*
X94907787Y-106332232D01*
X94910876Y-106334769D01*
X94972763Y-106367953D01*
X95034265Y-106401764D01*
X95038073Y-106402972D01*
X95041596Y-106404861D01*
X95108779Y-106425401D01*
X95175648Y-106446613D01*
X95179615Y-106447058D01*
X95183442Y-106448228D01*
X95253360Y-106455330D01*
X95323050Y-106463147D01*
X95330855Y-106463201D01*
X95331008Y-106463217D01*
X95331151Y-106463203D01*
X95333661Y-106463221D01*
X99923600Y-106463221D01*
X99993477Y-106456370D01*
X100063403Y-106450252D01*
X100067241Y-106449137D01*
X100071218Y-106448747D01*
X100138421Y-106428457D01*
X100205840Y-106408870D01*
X100209388Y-106407031D01*
X100213213Y-106405876D01*
X100275191Y-106372922D01*
X100337525Y-106340611D01*
X100340648Y-106338118D01*
X100344178Y-106336241D01*
X100398587Y-106291866D01*
X100453446Y-106248073D01*
X100459006Y-106242590D01*
X100459122Y-106242495D01*
X100459211Y-106242387D01*
X100461001Y-106240622D01*
X100645218Y-106056405D01*
X101271793Y-106056405D01*
X104064396Y-108849008D01*
X103858775Y-109054629D01*
X101469800Y-109054629D01*
X101469800Y-107687642D01*
X101526292Y-107560760D01*
X101566916Y-107381954D01*
X101569840Y-107172519D01*
X101534225Y-106992648D01*
X101464350Y-106823120D01*
X101362879Y-106670393D01*
X101233675Y-106540284D01*
X101081660Y-106437749D01*
X100912625Y-106366693D01*
X100733007Y-106329823D01*
X100549649Y-106328543D01*
X100369533Y-106362901D01*
X100199522Y-106431590D01*
X100046091Y-106531993D01*
X99915083Y-106660286D01*
X99811489Y-106811581D01*
X99739254Y-106980116D01*
X99701131Y-107159472D01*
X99698571Y-107342817D01*
X99731672Y-107523168D01*
X99799172Y-107693654D01*
X99799800Y-107694628D01*
X99799800Y-108454619D01*
X94713400Y-108454619D01*
X94713400Y-107967042D01*
X94769892Y-107840160D01*
X94810516Y-107661354D01*
X94813440Y-107451919D01*
X94777825Y-107272048D01*
X94707950Y-107102520D01*
X94606479Y-106949793D01*
X94477275Y-106819684D01*
X94325260Y-106717149D01*
X94156225Y-106646093D01*
X93976607Y-106609223D01*
X93793249Y-106607943D01*
X93613133Y-106642301D01*
X93443122Y-106710990D01*
X93289691Y-106811393D01*
X93158683Y-106939686D01*
X93055089Y-107090981D01*
X92982854Y-107259516D01*
X92944731Y-107438872D01*
X92942171Y-107622217D01*
X92975272Y-107802568D01*
X93042772Y-107973054D01*
X93043400Y-107974028D01*
X93043400Y-108454619D01*
X91804687Y-108454619D01*
X88544168Y-105194100D01*
X88784316Y-104953952D01*
X88917210Y-104902406D01*
X89072029Y-104804155D01*
X89204815Y-104677704D01*
X89310511Y-104527870D01*
X89385092Y-104360360D01*
X89425716Y-104181554D01*
X89428640Y-103972119D01*
X89393025Y-103792248D01*
X89323150Y-103622720D01*
X89221679Y-103469993D01*
X89092475Y-103339884D01*
X88940460Y-103237349D01*
X88771425Y-103166293D01*
X88591807Y-103129423D01*
X88408449Y-103128143D01*
X88228333Y-103162501D01*
X88058322Y-103231190D01*
X87904891Y-103331593D01*
X87773883Y-103459886D01*
X87670289Y-103611181D01*
X87598983Y-103777549D01*
X87363300Y-104013232D01*
X84959800Y-101609732D01*
X84959800Y-98574200D01*
X85427678Y-98574200D01*
X85561671Y-98632740D01*
X85740757Y-98672115D01*
X85924079Y-98675955D01*
X86104657Y-98644114D01*
X86275610Y-98577806D01*
X86430429Y-98479555D01*
X86563215Y-98353104D01*
X86668911Y-98203270D01*
X86743492Y-98035760D01*
X86784116Y-97856954D01*
X86787040Y-97647519D01*
X86751425Y-97467648D01*
X86681550Y-97298120D01*
X86580079Y-97145393D01*
X86450875Y-97015284D01*
X86405717Y-96984824D01*
X87785974Y-96984824D01*
X87832583Y-97496970D01*
X87977781Y-97990308D01*
X88216036Y-98446049D01*
X88538274Y-98846833D01*
X88932222Y-99177394D01*
X89382873Y-99425142D01*
X89873063Y-99580639D01*
X90384120Y-99637963D01*
X90420910Y-99638220D01*
X90446410Y-99638220D01*
X90958218Y-99588037D01*
X91450530Y-99439399D01*
X91904597Y-99197967D01*
X92303121Y-98872939D01*
X92630924Y-98476693D01*
X92875519Y-98024324D01*
X93027591Y-97533060D01*
X93081346Y-97021616D01*
X93034737Y-96509470D01*
X92889539Y-96016132D01*
X92651284Y-95560391D01*
X92329046Y-95159607D01*
X91935098Y-94829046D01*
X91484447Y-94581298D01*
X90994257Y-94425801D01*
X90483200Y-94368477D01*
X90446410Y-94368220D01*
X90420910Y-94368220D01*
X89909102Y-94418403D01*
X89416790Y-94567041D01*
X88962723Y-94808473D01*
X88564199Y-95133501D01*
X88236396Y-95529747D01*
X87991801Y-95982116D01*
X87839729Y-96473380D01*
X87785974Y-96984824D01*
X86405717Y-96984824D01*
X86298860Y-96912749D01*
X86129825Y-96841693D01*
X85950207Y-96804823D01*
X85766849Y-96803543D01*
X85586733Y-96837901D01*
X85422637Y-96904200D01*
X84959800Y-96904200D01*
X84959800Y-92801868D01*
X86461600Y-91300068D01*
X86764576Y-91603044D01*
X86819772Y-91742454D01*
X86919101Y-91896583D01*
X87046476Y-92028484D01*
X87197044Y-92133131D01*
X87365071Y-92206540D01*
X87544157Y-92245915D01*
X87727479Y-92249755D01*
X87908057Y-92217914D01*
X88079010Y-92151606D01*
X88233829Y-92053355D01*
X88366615Y-91926904D01*
X88472311Y-91777070D01*
X88546892Y-91609560D01*
X88587516Y-91430754D01*
X88590440Y-91221319D01*
X88554825Y-91041448D01*
X88484950Y-90871920D01*
X88383479Y-90719193D01*
X88254275Y-90589084D01*
X88102260Y-90486549D01*
X87942776Y-90419508D01*
X87642468Y-90119200D01*
X91760468Y-86001200D01*
X91824200Y-86001200D01*
X91824200Y-86569653D01*
G36*
X128095400Y-86315653D02*
X128034854Y-86456916D01*
X127996731Y-86636272D01*
X127994171Y-86819617D01*
X128027272Y-86999968D01*
X128094772Y-87170454D01*
X128194101Y-87324583D01*
X128321476Y-87456484D01*
X128472044Y-87561131D01*
X128640071Y-87634540D01*
X128819157Y-87673915D01*
X129002479Y-87677755D01*
X129183057Y-87645914D01*
X129354010Y-87579606D01*
X129508829Y-87481355D01*
X129641615Y-87354904D01*
X129747311Y-87205070D01*
X129821892Y-87037560D01*
X129862516Y-86858754D01*
X129865440Y-86649319D01*
X129829825Y-86469448D01*
X129765400Y-86313143D01*
X129765400Y-85772600D01*
X134902600Y-85772600D01*
X134902600Y-85909253D01*
X134842054Y-86050516D01*
X134803931Y-86229872D01*
X134801371Y-86413217D01*
X134834472Y-86593568D01*
X134901972Y-86764054D01*
X135001301Y-86918183D01*
X135128676Y-87050084D01*
X135279244Y-87154731D01*
X135447271Y-87228140D01*
X135626357Y-87267515D01*
X135809679Y-87271355D01*
X135990257Y-87239514D01*
X136161210Y-87173206D01*
X136316029Y-87074955D01*
X136448815Y-86948504D01*
X136554511Y-86798670D01*
X136629092Y-86631160D01*
X136669716Y-86452354D01*
X136672640Y-86242919D01*
X136637025Y-86063048D01*
X136572600Y-85906743D01*
X136572600Y-85772600D01*
X137931732Y-85772600D01*
X141084532Y-88925400D01*
X140833135Y-89176797D01*
X140687122Y-89235790D01*
X140533691Y-89336193D01*
X140402683Y-89464486D01*
X140299089Y-89615781D01*
X140226854Y-89784316D01*
X140188731Y-89963672D01*
X140186171Y-90147017D01*
X140219272Y-90327368D01*
X140286772Y-90497854D01*
X140386101Y-90651983D01*
X140513476Y-90783884D01*
X140664044Y-90888531D01*
X140832071Y-90961940D01*
X141011157Y-91001315D01*
X141194479Y-91005155D01*
X141375057Y-90973314D01*
X141546010Y-90907006D01*
X141700829Y-90808755D01*
X141833615Y-90682304D01*
X141939311Y-90532470D01*
X142013892Y-90364960D01*
X142016004Y-90355664D01*
X142265400Y-90106268D01*
X144605400Y-92446268D01*
X144605400Y-95380200D01*
X144165123Y-95380200D01*
X144016425Y-95317693D01*
X143836807Y-95280823D01*
X143653449Y-95279543D01*
X143473333Y-95313901D01*
X143303322Y-95382590D01*
X143149891Y-95482993D01*
X143018883Y-95611286D01*
X142915289Y-95762581D01*
X142843054Y-95931116D01*
X142804931Y-96110472D01*
X142802371Y-96293817D01*
X142835472Y-96474168D01*
X142902972Y-96644654D01*
X143002301Y-96798783D01*
X143129676Y-96930684D01*
X143280244Y-97035331D01*
X143448271Y-97108740D01*
X143627357Y-97148115D01*
X143810679Y-97151955D01*
X143991257Y-97120114D01*
X144162210Y-97053806D01*
X144167892Y-97050200D01*
X144605400Y-97050200D01*
X144605400Y-101304932D01*
X143154400Y-102755932D01*
X142878490Y-102480022D01*
X142815550Y-102327320D01*
X142714079Y-102174593D01*
X142584875Y-102044484D01*
X142432860Y-101941949D01*
X142263825Y-101870893D01*
X142084207Y-101834023D01*
X141900849Y-101832743D01*
X141720733Y-101867101D01*
X141550722Y-101935790D01*
X141397291Y-102036193D01*
X141266283Y-102164486D01*
X141162689Y-102315781D01*
X141090454Y-102484316D01*
X141052331Y-102663672D01*
X141049771Y-102847017D01*
X141082872Y-103027368D01*
X141150372Y-103197854D01*
X141249701Y-103351983D01*
X141377076Y-103483884D01*
X141527644Y-103588531D01*
X141695671Y-103661940D01*
X141699518Y-103662786D01*
X141973532Y-103936800D01*
X138109532Y-107800800D01*
X137766400Y-107800800D01*
X137766400Y-107230442D01*
X137822892Y-107103560D01*
X137863516Y-106924754D01*
X137866440Y-106715319D01*
X137830825Y-106535448D01*
X137760950Y-106365920D01*
X137659479Y-106213193D01*
X137530275Y-106083084D01*
X137378260Y-105980549D01*
X137209225Y-105909493D01*
X137029607Y-105872623D01*
X136846249Y-105871343D01*
X136666133Y-105905701D01*
X136496122Y-105974390D01*
X136342691Y-106074793D01*
X136211683Y-106203086D01*
X136108089Y-106354381D01*
X136035854Y-106522916D01*
X135997731Y-106702272D01*
X135995171Y-106885617D01*
X136028272Y-107065968D01*
X136095772Y-107236454D01*
X136096400Y-107237428D01*
X136096400Y-107800800D01*
X131460266Y-107800800D01*
X131295688Y-107636222D01*
X131232748Y-107483520D01*
X131131277Y-107330793D01*
X131002073Y-107200684D01*
X130850058Y-107098149D01*
X130681023Y-107027093D01*
X130501405Y-106990223D01*
X130318047Y-106988943D01*
X130137931Y-107023301D01*
X129967920Y-107091990D01*
X129814489Y-107192393D01*
X129683481Y-107320686D01*
X129579887Y-107471981D01*
X129507652Y-107640516D01*
X129488955Y-107728480D01*
X126797722Y-107728480D01*
X127975202Y-106551000D01*
X133858000Y-106551000D01*
X133927877Y-106544149D01*
X133997803Y-106538031D01*
X134001641Y-106536916D01*
X134005618Y-106536526D01*
X134072821Y-106516236D01*
X134140240Y-106496649D01*
X134143788Y-106494810D01*
X134147613Y-106493655D01*
X134209591Y-106460701D01*
X134271925Y-106428390D01*
X134275048Y-106425897D01*
X134278578Y-106424020D01*
X134332987Y-106379645D01*
X134387846Y-106335852D01*
X134393406Y-106330369D01*
X134393522Y-106330274D01*
X134393611Y-106330166D01*
X134395401Y-106328401D01*
X135015941Y-105707861D01*
X135222665Y-105753313D01*
X135518726Y-105759514D01*
X135810354Y-105708092D01*
X136086439Y-105601006D01*
X136336467Y-105442333D01*
X136550913Y-105238119D01*
X136721610Y-104996141D01*
X136842055Y-104725616D01*
X136907662Y-104436849D01*
X136912385Y-104098617D01*
X136854867Y-103808130D01*
X136742022Y-103534348D01*
X136578148Y-103287698D01*
X136369487Y-103077576D01*
X136123987Y-102911984D01*
X135851000Y-102797230D01*
X135560922Y-102737686D01*
X135264803Y-102735619D01*
X134973922Y-102791107D01*
X134699358Y-102902038D01*
X134451570Y-103064186D01*
X134239996Y-103271375D01*
X134072695Y-103515712D01*
X133956038Y-103787892D01*
X133894470Y-104077548D01*
X133890335Y-104373645D01*
X133938442Y-104635756D01*
X133543198Y-105031000D01*
X131697020Y-105031000D01*
X131721610Y-104996141D01*
X131842055Y-104725616D01*
X131907662Y-104436849D01*
X131912385Y-104098617D01*
X131854867Y-103808130D01*
X131742022Y-103534348D01*
X131578148Y-103287698D01*
X131369487Y-103077576D01*
X131123987Y-102911984D01*
X130851000Y-102797230D01*
X130560922Y-102737686D01*
X130266571Y-102735631D01*
X130939721Y-102062481D01*
X130984288Y-102008225D01*
X131029406Y-101954455D01*
X131031331Y-101950954D01*
X131033868Y-101947865D01*
X131067033Y-101886013D01*
X131100863Y-101824476D01*
X131102072Y-101820664D01*
X131103959Y-101817145D01*
X131124472Y-101750049D01*
X131145712Y-101683093D01*
X131146158Y-101679121D01*
X131147326Y-101675299D01*
X131154418Y-101605475D01*
X131162246Y-101535691D01*
X131162301Y-101527876D01*
X131162315Y-101527733D01*
X131162302Y-101527600D01*
X131162320Y-101525080D01*
X131162320Y-96728284D01*
X136454634Y-96728284D01*
X136501243Y-97240430D01*
X136646441Y-97733768D01*
X136884696Y-98189509D01*
X137206934Y-98590293D01*
X137600882Y-98920854D01*
X138051533Y-99168602D01*
X138541723Y-99324099D01*
X139052780Y-99381423D01*
X139089570Y-99381680D01*
X139115070Y-99381680D01*
X139626878Y-99331497D01*
X140119190Y-99182859D01*
X140573257Y-98941427D01*
X140971781Y-98616399D01*
X141299584Y-98220153D01*
X141544179Y-97767784D01*
X141696251Y-97276520D01*
X141750006Y-96765076D01*
X141703397Y-96252930D01*
X141558199Y-95759592D01*
X141319944Y-95303851D01*
X140997706Y-94903067D01*
X140603758Y-94572506D01*
X140153107Y-94324758D01*
X139662917Y-94169261D01*
X139151860Y-94111937D01*
X139115070Y-94111680D01*
X139089570Y-94111680D01*
X138577762Y-94161863D01*
X138085450Y-94310501D01*
X137631383Y-94551933D01*
X137232859Y-94876961D01*
X136905056Y-95273207D01*
X136660461Y-95725576D01*
X136508389Y-96216840D01*
X136454634Y-96728284D01*
X131162320Y-96728284D01*
X131162320Y-91052850D01*
X131336467Y-90942333D01*
X131550913Y-90738119D01*
X131721610Y-90496141D01*
X131842055Y-90225616D01*
X131907662Y-89936849D01*
X131912385Y-89598617D01*
X131854867Y-89308130D01*
X131742022Y-89034348D01*
X131578148Y-88787698D01*
X131369487Y-88577576D01*
X131123987Y-88411984D01*
X130851000Y-88297230D01*
X130560922Y-88237686D01*
X130264803Y-88235619D01*
X129973922Y-88291107D01*
X129699358Y-88402038D01*
X129451570Y-88564186D01*
X129239996Y-88771375D01*
X129072695Y-89015712D01*
X128956038Y-89287892D01*
X128894470Y-89577548D01*
X128890335Y-89873645D01*
X128943792Y-90164906D01*
X129052803Y-90440237D01*
X129213217Y-90689151D01*
X129418924Y-90902167D01*
X129642320Y-91057431D01*
X129642320Y-101210278D01*
X123129198Y-107723400D01*
X116877378Y-107723400D01*
X116778860Y-107656949D01*
X116609825Y-107585893D01*
X116430207Y-107549023D01*
X116246849Y-107547743D01*
X116066733Y-107582101D01*
X115896722Y-107650790D01*
X115743291Y-107751193D01*
X115612283Y-107879486D01*
X115594161Y-107905953D01*
X115531306Y-107905514D01*
X115506438Y-107910258D01*
X115505528Y-107909142D01*
X115457420Y-107848877D01*
X115451399Y-107842772D01*
X115451292Y-107842641D01*
X115451171Y-107842541D01*
X115449234Y-107840577D01*
X115032137Y-107423480D01*
X114972521Y-107374510D01*
X114968947Y-107371511D01*
X114978116Y-107331154D01*
X114979526Y-107230184D01*
X114984457Y-107229314D01*
X115155410Y-107163006D01*
X115161092Y-107159400D01*
X117449600Y-107159400D01*
X117526347Y-107151875D01*
X117603200Y-107145151D01*
X117607414Y-107143927D01*
X117611786Y-107143498D01*
X117685681Y-107121188D01*
X117759692Y-107099685D01*
X117763586Y-107097666D01*
X117767794Y-107096396D01*
X117835911Y-107060177D01*
X117904374Y-107024690D01*
X117907807Y-107021949D01*
X117911682Y-107019889D01*
X117971466Y-106971131D01*
X118031733Y-106923020D01*
X118037838Y-106917000D01*
X118037970Y-106916892D01*
X118038071Y-106916769D01*
X118040034Y-106914834D01*
X121011834Y-103943034D01*
X121060804Y-103883418D01*
X121110370Y-103824347D01*
X121112483Y-103820504D01*
X121115273Y-103817107D01*
X121151752Y-103749074D01*
X121182065Y-103693933D01*
X121710566Y-104222434D01*
X121771302Y-104272323D01*
X121831660Y-104322612D01*
X121834227Y-104324011D01*
X121836493Y-104325873D01*
X121905809Y-104363039D01*
X121974740Y-104400622D01*
X121977534Y-104401497D01*
X121980114Y-104402881D01*
X122055259Y-104425855D01*
X122130246Y-104449354D01*
X122133157Y-104449670D01*
X122135956Y-104450526D01*
X122214142Y-104458469D01*
X122292256Y-104466955D01*
X122295171Y-104466700D01*
X122298085Y-104466996D01*
X122376357Y-104459597D01*
X122454600Y-104452751D01*
X122457410Y-104451935D01*
X122460325Y-104451659D01*
X122494068Y-104441600D01*
X124340478Y-104441600D01*
X124474471Y-104500140D01*
X124653557Y-104539515D01*
X124836879Y-104543355D01*
X125017457Y-104511514D01*
X125188410Y-104445206D01*
X125343229Y-104346955D01*
X125476015Y-104220504D01*
X125581711Y-104070670D01*
X125656292Y-103903160D01*
X125696916Y-103724354D01*
X125699840Y-103514919D01*
X125664225Y-103335048D01*
X125594350Y-103165520D01*
X125492879Y-103012793D01*
X125363675Y-102882684D01*
X125211660Y-102780149D01*
X125042625Y-102709093D01*
X124863007Y-102672223D01*
X124679649Y-102670943D01*
X124499533Y-102705301D01*
X124335437Y-102771600D01*
X122621468Y-102771600D01*
X121256400Y-101406532D01*
X121256400Y-98320200D01*
X121749678Y-98320200D01*
X121883671Y-98378740D01*
X122062757Y-98418115D01*
X122246079Y-98421955D01*
X122426657Y-98390114D01*
X122597610Y-98323806D01*
X122752429Y-98225555D01*
X122885215Y-98099104D01*
X122990911Y-97949270D01*
X123065492Y-97781760D01*
X123106116Y-97602954D01*
X123109040Y-97393519D01*
X123073425Y-97213648D01*
X123003550Y-97044120D01*
X122902079Y-96891393D01*
X122772875Y-96761284D01*
X122723951Y-96728284D01*
X124054634Y-96728284D01*
X124101243Y-97240430D01*
X124246441Y-97733768D01*
X124484696Y-98189509D01*
X124806934Y-98590293D01*
X125200882Y-98920854D01*
X125651533Y-99168602D01*
X126141723Y-99324099D01*
X126652780Y-99381423D01*
X126689570Y-99381680D01*
X126715070Y-99381680D01*
X127226878Y-99331497D01*
X127719190Y-99182859D01*
X128173257Y-98941427D01*
X128571781Y-98616399D01*
X128899584Y-98220153D01*
X129144179Y-97767784D01*
X129296251Y-97276520D01*
X129350006Y-96765076D01*
X129303397Y-96252930D01*
X129158199Y-95759592D01*
X128919944Y-95303851D01*
X128597706Y-94903067D01*
X128203758Y-94572506D01*
X127753107Y-94324758D01*
X127262917Y-94169261D01*
X126751860Y-94111937D01*
X126715070Y-94111680D01*
X126689570Y-94111680D01*
X126177762Y-94161863D01*
X125685450Y-94310501D01*
X125231383Y-94551933D01*
X124832859Y-94876961D01*
X124505056Y-95273207D01*
X124260461Y-95725576D01*
X124108389Y-96216840D01*
X124054634Y-96728284D01*
X122723951Y-96728284D01*
X122620860Y-96658749D01*
X122451825Y-96587693D01*
X122272207Y-96550823D01*
X122088849Y-96549543D01*
X121908733Y-96583901D01*
X121744637Y-96650200D01*
X121256400Y-96650200D01*
X121256400Y-92446268D01*
X122694700Y-91007968D01*
X123086576Y-91399844D01*
X123141772Y-91539254D01*
X123241101Y-91693383D01*
X123368476Y-91825284D01*
X123519044Y-91929931D01*
X123687071Y-92003340D01*
X123866157Y-92042715D01*
X124049479Y-92046555D01*
X124230057Y-92014714D01*
X124401010Y-91948406D01*
X124555829Y-91850155D01*
X124688615Y-91723704D01*
X124794311Y-91573870D01*
X124868892Y-91406360D01*
X124909516Y-91227554D01*
X124912440Y-91018119D01*
X124876825Y-90838248D01*
X124806950Y-90668720D01*
X124705479Y-90515993D01*
X124576275Y-90385884D01*
X124424260Y-90283349D01*
X124264776Y-90216308D01*
X123875568Y-89827100D01*
X127930068Y-85772600D01*
X128095400Y-85772600D01*
X128095400Y-86315653D01*
X128095400Y-86315653D01*
G37*
X128095400Y-86315653D02*
X128034854Y-86456916D01*
X127996731Y-86636272D01*
X127994171Y-86819617D01*
X128027272Y-86999968D01*
X128094772Y-87170454D01*
X128194101Y-87324583D01*
X128321476Y-87456484D01*
X128472044Y-87561131D01*
X128640071Y-87634540D01*
X128819157Y-87673915D01*
X129002479Y-87677755D01*
X129183057Y-87645914D01*
X129354010Y-87579606D01*
X129508829Y-87481355D01*
X129641615Y-87354904D01*
X129747311Y-87205070D01*
X129821892Y-87037560D01*
X129862516Y-86858754D01*
X129865440Y-86649319D01*
X129829825Y-86469448D01*
X129765400Y-86313143D01*
X129765400Y-85772600D01*
X134902600Y-85772600D01*
X134902600Y-85909253D01*
X134842054Y-86050516D01*
X134803931Y-86229872D01*
X134801371Y-86413217D01*
X134834472Y-86593568D01*
X134901972Y-86764054D01*
X135001301Y-86918183D01*
X135128676Y-87050084D01*
X135279244Y-87154731D01*
X135447271Y-87228140D01*
X135626357Y-87267515D01*
X135809679Y-87271355D01*
X135990257Y-87239514D01*
X136161210Y-87173206D01*
X136316029Y-87074955D01*
X136448815Y-86948504D01*
X136554511Y-86798670D01*
X136629092Y-86631160D01*
X136669716Y-86452354D01*
X136672640Y-86242919D01*
X136637025Y-86063048D01*
X136572600Y-85906743D01*
X136572600Y-85772600D01*
X137931732Y-85772600D01*
X141084532Y-88925400D01*
X140833135Y-89176797D01*
X140687122Y-89235790D01*
X140533691Y-89336193D01*
X140402683Y-89464486D01*
X140299089Y-89615781D01*
X140226854Y-89784316D01*
X140188731Y-89963672D01*
X140186171Y-90147017D01*
X140219272Y-90327368D01*
X140286772Y-90497854D01*
X140386101Y-90651983D01*
X140513476Y-90783884D01*
X140664044Y-90888531D01*
X140832071Y-90961940D01*
X141011157Y-91001315D01*
X141194479Y-91005155D01*
X141375057Y-90973314D01*
X141546010Y-90907006D01*
X141700829Y-90808755D01*
X141833615Y-90682304D01*
X141939311Y-90532470D01*
X142013892Y-90364960D01*
X142016004Y-90355664D01*
X142265400Y-90106268D01*
X144605400Y-92446268D01*
X144605400Y-95380200D01*
X144165123Y-95380200D01*
X144016425Y-95317693D01*
X143836807Y-95280823D01*
X143653449Y-95279543D01*
X143473333Y-95313901D01*
X143303322Y-95382590D01*
X143149891Y-95482993D01*
X143018883Y-95611286D01*
X142915289Y-95762581D01*
X142843054Y-95931116D01*
X142804931Y-96110472D01*
X142802371Y-96293817D01*
X142835472Y-96474168D01*
X142902972Y-96644654D01*
X143002301Y-96798783D01*
X143129676Y-96930684D01*
X143280244Y-97035331D01*
X143448271Y-97108740D01*
X143627357Y-97148115D01*
X143810679Y-97151955D01*
X143991257Y-97120114D01*
X144162210Y-97053806D01*
X144167892Y-97050200D01*
X144605400Y-97050200D01*
X144605400Y-101304932D01*
X143154400Y-102755932D01*
X142878490Y-102480022D01*
X142815550Y-102327320D01*
X142714079Y-102174593D01*
X142584875Y-102044484D01*
X142432860Y-101941949D01*
X142263825Y-101870893D01*
X142084207Y-101834023D01*
X141900849Y-101832743D01*
X141720733Y-101867101D01*
X141550722Y-101935790D01*
X141397291Y-102036193D01*
X141266283Y-102164486D01*
X141162689Y-102315781D01*
X141090454Y-102484316D01*
X141052331Y-102663672D01*
X141049771Y-102847017D01*
X141082872Y-103027368D01*
X141150372Y-103197854D01*
X141249701Y-103351983D01*
X141377076Y-103483884D01*
X141527644Y-103588531D01*
X141695671Y-103661940D01*
X141699518Y-103662786D01*
X141973532Y-103936800D01*
X138109532Y-107800800D01*
X137766400Y-107800800D01*
X137766400Y-107230442D01*
X137822892Y-107103560D01*
X137863516Y-106924754D01*
X137866440Y-106715319D01*
X137830825Y-106535448D01*
X137760950Y-106365920D01*
X137659479Y-106213193D01*
X137530275Y-106083084D01*
X137378260Y-105980549D01*
X137209225Y-105909493D01*
X137029607Y-105872623D01*
X136846249Y-105871343D01*
X136666133Y-105905701D01*
X136496122Y-105974390D01*
X136342691Y-106074793D01*
X136211683Y-106203086D01*
X136108089Y-106354381D01*
X136035854Y-106522916D01*
X135997731Y-106702272D01*
X135995171Y-106885617D01*
X136028272Y-107065968D01*
X136095772Y-107236454D01*
X136096400Y-107237428D01*
X136096400Y-107800800D01*
X131460266Y-107800800D01*
X131295688Y-107636222D01*
X131232748Y-107483520D01*
X131131277Y-107330793D01*
X131002073Y-107200684D01*
X130850058Y-107098149D01*
X130681023Y-107027093D01*
X130501405Y-106990223D01*
X130318047Y-106988943D01*
X130137931Y-107023301D01*
X129967920Y-107091990D01*
X129814489Y-107192393D01*
X129683481Y-107320686D01*
X129579887Y-107471981D01*
X129507652Y-107640516D01*
X129488955Y-107728480D01*
X126797722Y-107728480D01*
X127975202Y-106551000D01*
X133858000Y-106551000D01*
X133927877Y-106544149D01*
X133997803Y-106538031D01*
X134001641Y-106536916D01*
X134005618Y-106536526D01*
X134072821Y-106516236D01*
X134140240Y-106496649D01*
X134143788Y-106494810D01*
X134147613Y-106493655D01*
X134209591Y-106460701D01*
X134271925Y-106428390D01*
X134275048Y-106425897D01*
X134278578Y-106424020D01*
X134332987Y-106379645D01*
X134387846Y-106335852D01*
X134393406Y-106330369D01*
X134393522Y-106330274D01*
X134393611Y-106330166D01*
X134395401Y-106328401D01*
X135015941Y-105707861D01*
X135222665Y-105753313D01*
X135518726Y-105759514D01*
X135810354Y-105708092D01*
X136086439Y-105601006D01*
X136336467Y-105442333D01*
X136550913Y-105238119D01*
X136721610Y-104996141D01*
X136842055Y-104725616D01*
X136907662Y-104436849D01*
X136912385Y-104098617D01*
X136854867Y-103808130D01*
X136742022Y-103534348D01*
X136578148Y-103287698D01*
X136369487Y-103077576D01*
X136123987Y-102911984D01*
X135851000Y-102797230D01*
X135560922Y-102737686D01*
X135264803Y-102735619D01*
X134973922Y-102791107D01*
X134699358Y-102902038D01*
X134451570Y-103064186D01*
X134239996Y-103271375D01*
X134072695Y-103515712D01*
X133956038Y-103787892D01*
X133894470Y-104077548D01*
X133890335Y-104373645D01*
X133938442Y-104635756D01*
X133543198Y-105031000D01*
X131697020Y-105031000D01*
X131721610Y-104996141D01*
X131842055Y-104725616D01*
X131907662Y-104436849D01*
X131912385Y-104098617D01*
X131854867Y-103808130D01*
X131742022Y-103534348D01*
X131578148Y-103287698D01*
X131369487Y-103077576D01*
X131123987Y-102911984D01*
X130851000Y-102797230D01*
X130560922Y-102737686D01*
X130266571Y-102735631D01*
X130939721Y-102062481D01*
X130984288Y-102008225D01*
X131029406Y-101954455D01*
X131031331Y-101950954D01*
X131033868Y-101947865D01*
X131067033Y-101886013D01*
X131100863Y-101824476D01*
X131102072Y-101820664D01*
X131103959Y-101817145D01*
X131124472Y-101750049D01*
X131145712Y-101683093D01*
X131146158Y-101679121D01*
X131147326Y-101675299D01*
X131154418Y-101605475D01*
X131162246Y-101535691D01*
X131162301Y-101527876D01*
X131162315Y-101527733D01*
X131162302Y-101527600D01*
X131162320Y-101525080D01*
X131162320Y-96728284D01*
X136454634Y-96728284D01*
X136501243Y-97240430D01*
X136646441Y-97733768D01*
X136884696Y-98189509D01*
X137206934Y-98590293D01*
X137600882Y-98920854D01*
X138051533Y-99168602D01*
X138541723Y-99324099D01*
X139052780Y-99381423D01*
X139089570Y-99381680D01*
X139115070Y-99381680D01*
X139626878Y-99331497D01*
X140119190Y-99182859D01*
X140573257Y-98941427D01*
X140971781Y-98616399D01*
X141299584Y-98220153D01*
X141544179Y-97767784D01*
X141696251Y-97276520D01*
X141750006Y-96765076D01*
X141703397Y-96252930D01*
X141558199Y-95759592D01*
X141319944Y-95303851D01*
X140997706Y-94903067D01*
X140603758Y-94572506D01*
X140153107Y-94324758D01*
X139662917Y-94169261D01*
X139151860Y-94111937D01*
X139115070Y-94111680D01*
X139089570Y-94111680D01*
X138577762Y-94161863D01*
X138085450Y-94310501D01*
X137631383Y-94551933D01*
X137232859Y-94876961D01*
X136905056Y-95273207D01*
X136660461Y-95725576D01*
X136508389Y-96216840D01*
X136454634Y-96728284D01*
X131162320Y-96728284D01*
X131162320Y-91052850D01*
X131336467Y-90942333D01*
X131550913Y-90738119D01*
X131721610Y-90496141D01*
X131842055Y-90225616D01*
X131907662Y-89936849D01*
X131912385Y-89598617D01*
X131854867Y-89308130D01*
X131742022Y-89034348D01*
X131578148Y-88787698D01*
X131369487Y-88577576D01*
X131123987Y-88411984D01*
X130851000Y-88297230D01*
X130560922Y-88237686D01*
X130264803Y-88235619D01*
X129973922Y-88291107D01*
X129699358Y-88402038D01*
X129451570Y-88564186D01*
X129239996Y-88771375D01*
X129072695Y-89015712D01*
X128956038Y-89287892D01*
X128894470Y-89577548D01*
X128890335Y-89873645D01*
X128943792Y-90164906D01*
X129052803Y-90440237D01*
X129213217Y-90689151D01*
X129418924Y-90902167D01*
X129642320Y-91057431D01*
X129642320Y-101210278D01*
X123129198Y-107723400D01*
X116877378Y-107723400D01*
X116778860Y-107656949D01*
X116609825Y-107585893D01*
X116430207Y-107549023D01*
X116246849Y-107547743D01*
X116066733Y-107582101D01*
X115896722Y-107650790D01*
X115743291Y-107751193D01*
X115612283Y-107879486D01*
X115594161Y-107905953D01*
X115531306Y-107905514D01*
X115506438Y-107910258D01*
X115505528Y-107909142D01*
X115457420Y-107848877D01*
X115451399Y-107842772D01*
X115451292Y-107842641D01*
X115451171Y-107842541D01*
X115449234Y-107840577D01*
X115032137Y-107423480D01*
X114972521Y-107374510D01*
X114968947Y-107371511D01*
X114978116Y-107331154D01*
X114979526Y-107230184D01*
X114984457Y-107229314D01*
X115155410Y-107163006D01*
X115161092Y-107159400D01*
X117449600Y-107159400D01*
X117526347Y-107151875D01*
X117603200Y-107145151D01*
X117607414Y-107143927D01*
X117611786Y-107143498D01*
X117685681Y-107121188D01*
X117759692Y-107099685D01*
X117763586Y-107097666D01*
X117767794Y-107096396D01*
X117835911Y-107060177D01*
X117904374Y-107024690D01*
X117907807Y-107021949D01*
X117911682Y-107019889D01*
X117971466Y-106971131D01*
X118031733Y-106923020D01*
X118037838Y-106917000D01*
X118037970Y-106916892D01*
X118038071Y-106916769D01*
X118040034Y-106914834D01*
X121011834Y-103943034D01*
X121060804Y-103883418D01*
X121110370Y-103824347D01*
X121112483Y-103820504D01*
X121115273Y-103817107D01*
X121151752Y-103749074D01*
X121182065Y-103693933D01*
X121710566Y-104222434D01*
X121771302Y-104272323D01*
X121831660Y-104322612D01*
X121834227Y-104324011D01*
X121836493Y-104325873D01*
X121905809Y-104363039D01*
X121974740Y-104400622D01*
X121977534Y-104401497D01*
X121980114Y-104402881D01*
X122055259Y-104425855D01*
X122130246Y-104449354D01*
X122133157Y-104449670D01*
X122135956Y-104450526D01*
X122214142Y-104458469D01*
X122292256Y-104466955D01*
X122295171Y-104466700D01*
X122298085Y-104466996D01*
X122376357Y-104459597D01*
X122454600Y-104452751D01*
X122457410Y-104451935D01*
X122460325Y-104451659D01*
X122494068Y-104441600D01*
X124340478Y-104441600D01*
X124474471Y-104500140D01*
X124653557Y-104539515D01*
X124836879Y-104543355D01*
X125017457Y-104511514D01*
X125188410Y-104445206D01*
X125343229Y-104346955D01*
X125476015Y-104220504D01*
X125581711Y-104070670D01*
X125656292Y-103903160D01*
X125696916Y-103724354D01*
X125699840Y-103514919D01*
X125664225Y-103335048D01*
X125594350Y-103165520D01*
X125492879Y-103012793D01*
X125363675Y-102882684D01*
X125211660Y-102780149D01*
X125042625Y-102709093D01*
X124863007Y-102672223D01*
X124679649Y-102670943D01*
X124499533Y-102705301D01*
X124335437Y-102771600D01*
X122621468Y-102771600D01*
X121256400Y-101406532D01*
X121256400Y-98320200D01*
X121749678Y-98320200D01*
X121883671Y-98378740D01*
X122062757Y-98418115D01*
X122246079Y-98421955D01*
X122426657Y-98390114D01*
X122597610Y-98323806D01*
X122752429Y-98225555D01*
X122885215Y-98099104D01*
X122990911Y-97949270D01*
X123065492Y-97781760D01*
X123106116Y-97602954D01*
X123109040Y-97393519D01*
X123073425Y-97213648D01*
X123003550Y-97044120D01*
X122902079Y-96891393D01*
X122772875Y-96761284D01*
X122723951Y-96728284D01*
X124054634Y-96728284D01*
X124101243Y-97240430D01*
X124246441Y-97733768D01*
X124484696Y-98189509D01*
X124806934Y-98590293D01*
X125200882Y-98920854D01*
X125651533Y-99168602D01*
X126141723Y-99324099D01*
X126652780Y-99381423D01*
X126689570Y-99381680D01*
X126715070Y-99381680D01*
X127226878Y-99331497D01*
X127719190Y-99182859D01*
X128173257Y-98941427D01*
X128571781Y-98616399D01*
X128899584Y-98220153D01*
X129144179Y-97767784D01*
X129296251Y-97276520D01*
X129350006Y-96765076D01*
X129303397Y-96252930D01*
X129158199Y-95759592D01*
X128919944Y-95303851D01*
X128597706Y-94903067D01*
X128203758Y-94572506D01*
X127753107Y-94324758D01*
X127262917Y-94169261D01*
X126751860Y-94111937D01*
X126715070Y-94111680D01*
X126689570Y-94111680D01*
X126177762Y-94161863D01*
X125685450Y-94310501D01*
X125231383Y-94551933D01*
X124832859Y-94876961D01*
X124505056Y-95273207D01*
X124260461Y-95725576D01*
X124108389Y-96216840D01*
X124054634Y-96728284D01*
X122723951Y-96728284D01*
X122620860Y-96658749D01*
X122451825Y-96587693D01*
X122272207Y-96550823D01*
X122088849Y-96549543D01*
X121908733Y-96583901D01*
X121744637Y-96650200D01*
X121256400Y-96650200D01*
X121256400Y-92446268D01*
X122694700Y-91007968D01*
X123086576Y-91399844D01*
X123141772Y-91539254D01*
X123241101Y-91693383D01*
X123368476Y-91825284D01*
X123519044Y-91929931D01*
X123687071Y-92003340D01*
X123866157Y-92042715D01*
X124049479Y-92046555D01*
X124230057Y-92014714D01*
X124401010Y-91948406D01*
X124555829Y-91850155D01*
X124688615Y-91723704D01*
X124794311Y-91573870D01*
X124868892Y-91406360D01*
X124909516Y-91227554D01*
X124912440Y-91018119D01*
X124876825Y-90838248D01*
X124806950Y-90668720D01*
X124705479Y-90515993D01*
X124576275Y-90385884D01*
X124424260Y-90283349D01*
X124264776Y-90216308D01*
X123875568Y-89827100D01*
X127930068Y-85772600D01*
X128095400Y-85772600D01*
X128095400Y-86315653D01*
M02*
