M48
;DRILL file {KiCad 4.0.2-stable} date 28.03.2016 14:36:12
;FORMAT={3:3/ absolute / metric / suppress leading zeros}
FMAT,2
METRIC,TZ
T1C0.400
T2C1.016
T3C1.100
T4C2.500
T5C3.300
%
G90
G05
M71
T1
X85852Y-97739
X87655Y-91313
X88494Y-104064
X92659Y-86995
X93878Y-107544
X98831Y-109990
X99441Y-86563
X100635Y-107264
X104851Y-90348
X106883Y-102260
X107467Y-96418
X110630Y-105880
X111074Y-109792
X111938Y-111531
X113314Y-103429
X114017Y-108014
X114046Y-107213
X114046Y-108813
X114115Y-109610
X114732Y-106324
X114845Y-105533
X115616Y-108841
X115634Y-110985
X115641Y-105618
X116271Y-105118
X116332Y-108483
X116586Y-109803
X116891Y-105624
X118059Y-103429
X119304Y-110183
X122174Y-97485
X123977Y-91110
X124765Y-103607
X128930Y-86741
X130403Y-107925
X130658Y-109220
X135738Y-86335
X136931Y-106807
X141122Y-90068
X141986Y-102768
X143739Y-96215
T2
X107239Y-113563
X109779Y-113563
X110947Y-81559
X112319Y-113563
X113487Y-81559
X114859Y-113563
X116027Y-81559
X117399Y-113563
X118567Y-81559
X119939Y-113563
X122479Y-113563
T3
X94134Y-90003
X94134Y-104503
X96634Y-104503
X99134Y-90003
X99134Y-104503
X130402Y-89747
X130402Y-104247
X132902Y-104247
X135402Y-89747
X135402Y-104247
T4
X90434Y-97003
X102834Y-97003
X126702Y-96747
X139102Y-96747
T5
X82574Y-82574
X82574Y-112422
X147423Y-82574
X147423Y-112422
T0
M30
