G04 #@! TF.FileFunction,Paste,Top*
%FSLAX46Y46*%
G04 Gerber Fmt 4.6, Leading zero omitted, Abs format (unit mm)*
G04 Created by KiCad (PCBNEW 4.0.2-stable) date 01.05.2016 06:04:37*
%MOMM*%
G01*
G04 APERTURE LIST*
%ADD10C,0.100000*%
%ADD11R,1.000000X1.600000*%
%ADD12R,1.397000X0.431800*%
%ADD13R,1.600000X1.000000*%
G04 APERTURE END LIST*
D10*
G36*
X114642244Y-93968654D02*
X114142244Y-93102628D01*
X115527884Y-92302628D01*
X116027884Y-93168654D01*
X114642244Y-93968654D01*
X114642244Y-93968654D01*
G37*
G36*
X113042244Y-91197372D02*
X112542244Y-90331346D01*
X113927884Y-89531346D01*
X114427884Y-90397372D01*
X113042244Y-91197372D01*
X113042244Y-91197372D01*
G37*
G36*
X110312116Y-96468654D02*
X109812116Y-95602628D01*
X111197756Y-94802628D01*
X111697756Y-95668654D01*
X110312116Y-96468654D01*
X110312116Y-96468654D01*
G37*
G36*
X108712116Y-93697372D02*
X108212116Y-92831346D01*
X109597756Y-92031346D01*
X110097756Y-92897372D01*
X108712116Y-93697372D01*
X108712116Y-93697372D01*
G37*
D11*
X114517300Y-122019060D03*
X111517300Y-122019060D03*
D12*
X115783360Y-119908320D03*
X115783360Y-119273320D03*
X115783360Y-118612920D03*
X115783360Y-117977920D03*
X115783360Y-117317520D03*
X115783360Y-116669820D03*
X115783360Y-116022120D03*
X110195360Y-116022120D03*
X110195360Y-116669820D03*
X110195360Y-117317520D03*
X110195360Y-117977920D03*
X110195360Y-118625620D03*
X110195360Y-119273320D03*
X110195360Y-119921020D03*
D10*
G36*
X94754182Y-119393048D02*
X93281938Y-118543048D01*
X93731938Y-117763626D01*
X95204182Y-118613626D01*
X94754182Y-119393048D01*
X94754182Y-119393048D01*
G37*
G36*
X96204182Y-116881574D02*
X94731938Y-116031574D01*
X95181938Y-115252152D01*
X96654182Y-116102152D01*
X96204182Y-116881574D01*
X96204182Y-116881574D01*
G37*
D13*
X116500000Y-101600000D03*
X116500000Y-98400000D03*
X111500000Y-101600000D03*
X111500000Y-98400000D03*
D10*
G36*
X112542244Y-109668654D02*
X113042244Y-108802628D01*
X114427884Y-109602628D01*
X113927884Y-110468654D01*
X112542244Y-109668654D01*
X112542244Y-109668654D01*
G37*
G36*
X114142244Y-106897372D02*
X114642244Y-106031346D01*
X116027884Y-106831346D01*
X115527884Y-107697372D01*
X114142244Y-106897372D01*
X114142244Y-106897372D01*
G37*
G36*
X108212116Y-107168654D02*
X108712116Y-106302628D01*
X110097756Y-107102628D01*
X109597756Y-107968654D01*
X108212116Y-107168654D01*
X108212116Y-107168654D01*
G37*
G36*
X109812116Y-104397372D02*
X110312116Y-103531346D01*
X111697756Y-104331346D01*
X111197756Y-105197372D01*
X109812116Y-104397372D01*
X109812116Y-104397372D01*
G37*
G36*
X105469025Y-114651428D02*
X106335051Y-114151428D01*
X107135051Y-115537068D01*
X106269025Y-116037068D01*
X105469025Y-114651428D01*
X105469025Y-114651428D01*
G37*
G36*
X108240307Y-113051428D02*
X109106333Y-112551428D01*
X109906333Y-113937068D01*
X109040307Y-114437068D01*
X108240307Y-113051428D01*
X108240307Y-113051428D01*
G37*
G36*
X102969025Y-110321300D02*
X103835051Y-109821300D01*
X104635051Y-111206940D01*
X103769025Y-111706940D01*
X102969025Y-110321300D01*
X102969025Y-110321300D01*
G37*
G36*
X105740307Y-108721300D02*
X106606333Y-108221300D01*
X107406333Y-109606940D01*
X106540307Y-110106940D01*
X105740307Y-108721300D01*
X105740307Y-108721300D01*
G37*
D11*
X98400000Y-116500000D03*
X101600000Y-116500000D03*
X98400000Y-111500000D03*
X101600000Y-111500000D03*
D10*
G36*
X90331346Y-112542244D02*
X91197372Y-113042244D01*
X90397372Y-114427884D01*
X89531346Y-113927884D01*
X90331346Y-112542244D01*
X90331346Y-112542244D01*
G37*
G36*
X93102628Y-114142244D02*
X93968654Y-114642244D01*
X93168654Y-116027884D01*
X92302628Y-115527884D01*
X93102628Y-114142244D01*
X93102628Y-114142244D01*
G37*
G36*
X92831346Y-108212116D02*
X93697372Y-108712116D01*
X92897372Y-110097756D01*
X92031346Y-109597756D01*
X92831346Y-108212116D01*
X92831346Y-108212116D01*
G37*
G36*
X95602628Y-109812116D02*
X96468654Y-110312116D01*
X95668654Y-111697756D01*
X94802628Y-111197756D01*
X95602628Y-109812116D01*
X95602628Y-109812116D01*
G37*
G36*
X85357756Y-106031346D02*
X85857756Y-106897372D01*
X84472116Y-107697372D01*
X83972116Y-106831346D01*
X85357756Y-106031346D01*
X85357756Y-106031346D01*
G37*
G36*
X86957756Y-108802628D02*
X87457756Y-109668654D01*
X86072116Y-110468654D01*
X85572116Y-109602628D01*
X86957756Y-108802628D01*
X86957756Y-108802628D01*
G37*
G36*
X89687884Y-103531346D02*
X90187884Y-104397372D01*
X88802244Y-105197372D01*
X88302244Y-104331346D01*
X89687884Y-103531346D01*
X89687884Y-103531346D01*
G37*
G36*
X91287884Y-106302628D02*
X91787884Y-107168654D01*
X90402244Y-107968654D01*
X89902244Y-107102628D01*
X91287884Y-106302628D01*
X91287884Y-106302628D01*
G37*
D13*
X83500000Y-98400000D03*
X83500000Y-101600000D03*
X88500000Y-98400000D03*
X88500000Y-101600000D03*
D10*
G36*
X87457756Y-90331346D02*
X86957756Y-91197372D01*
X85572116Y-90397372D01*
X86072116Y-89531346D01*
X87457756Y-90331346D01*
X87457756Y-90331346D01*
G37*
G36*
X85857756Y-93102628D02*
X85357756Y-93968654D01*
X83972116Y-93168654D01*
X84472116Y-92302628D01*
X85857756Y-93102628D01*
X85857756Y-93102628D01*
G37*
G36*
X91787884Y-92831346D02*
X91287884Y-93697372D01*
X89902244Y-92897372D01*
X90402244Y-92031346D01*
X91787884Y-92831346D01*
X91787884Y-92831346D01*
G37*
G36*
X90187884Y-95602628D02*
X89687884Y-96468654D01*
X88302244Y-95668654D01*
X88802244Y-94802628D01*
X90187884Y-95602628D01*
X90187884Y-95602628D01*
G37*
G36*
X93968654Y-85357756D02*
X93102628Y-85857756D01*
X92302628Y-84472116D01*
X93168654Y-83972116D01*
X93968654Y-85357756D01*
X93968654Y-85357756D01*
G37*
G36*
X91197372Y-86957756D02*
X90331346Y-87457756D01*
X89531346Y-86072116D01*
X90397372Y-85572116D01*
X91197372Y-86957756D01*
X91197372Y-86957756D01*
G37*
G36*
X96468654Y-89687884D02*
X95602628Y-90187884D01*
X94802628Y-88802244D01*
X95668654Y-88302244D01*
X96468654Y-89687884D01*
X96468654Y-89687884D01*
G37*
G36*
X93697372Y-91287884D02*
X92831346Y-91787884D01*
X92031346Y-90402244D01*
X92897372Y-89902244D01*
X93697372Y-91287884D01*
X93697372Y-91287884D01*
G37*
D11*
X101600000Y-83500000D03*
X98400000Y-83500000D03*
X101600000Y-88500000D03*
X98400000Y-88500000D03*
D10*
G36*
X109668654Y-87457756D02*
X108802628Y-86957756D01*
X109602628Y-85572116D01*
X110468654Y-86072116D01*
X109668654Y-87457756D01*
X109668654Y-87457756D01*
G37*
G36*
X106897372Y-85857756D02*
X106031346Y-85357756D01*
X106831346Y-83972116D01*
X107697372Y-84472116D01*
X106897372Y-85857756D01*
X106897372Y-85857756D01*
G37*
G36*
X107168654Y-91787884D02*
X106302628Y-91287884D01*
X107102628Y-89902244D01*
X107968654Y-90402244D01*
X107168654Y-91787884D01*
X107168654Y-91787884D01*
G37*
G36*
X104397372Y-90187884D02*
X103531346Y-89687884D01*
X104331346Y-88302244D01*
X105197372Y-88802244D01*
X104397372Y-90187884D01*
X104397372Y-90187884D01*
G37*
M02*
