G04 #@! TF.FileFunction,Soldermask,Top*
%FSLAX46Y46*%
G04 Gerber Fmt 4.6, Leading zero omitted, Abs format (unit mm)*
G04 Created by KiCad (PCBNEW 4.0.2-stable) date 01.05.2016 06:04:37*
%MOMM*%
G01*
G04 APERTURE LIST*
%ADD10C,0.100000*%
%ADD11C,3.600000*%
%ADD12C,2.150000*%
%ADD13O,4.400000X4.400000*%
%ADD14R,2.127200X2.432000*%
%ADD15O,2.127200X2.432000*%
%ADD16R,1.400000X2.000000*%
%ADD17R,1.797000X0.831800*%
%ADD18R,2.000000X1.400000*%
G04 APERTURE END LIST*
D10*
D11*
X114500000Y-82500000D03*
X85560240Y-82438140D03*
D12*
X97500000Y-107500000D03*
X102500000Y-107500000D03*
X100000000Y-107500000D03*
X102500000Y-93000000D03*
X97500000Y-93000000D03*
D13*
X106200000Y-100000000D03*
X93800000Y-100000000D03*
D14*
X105500000Y-122000000D03*
D15*
X102960000Y-122000000D03*
X100420000Y-122000000D03*
X97880000Y-122000000D03*
X95340000Y-122000000D03*
X92800000Y-122000000D03*
X90260000Y-122000000D03*
D10*
G36*
X114569039Y-94241859D02*
X113869039Y-93029423D01*
X115601089Y-92029423D01*
X116301089Y-93241859D01*
X114569039Y-94241859D01*
X114569039Y-94241859D01*
G37*
G36*
X112969039Y-91470577D02*
X112269039Y-90258141D01*
X114001089Y-89258141D01*
X114701089Y-90470577D01*
X112969039Y-91470577D01*
X112969039Y-91470577D01*
G37*
G36*
X110238911Y-96741859D02*
X109538911Y-95529423D01*
X111270961Y-94529423D01*
X111970961Y-95741859D01*
X110238911Y-96741859D01*
X110238911Y-96741859D01*
G37*
G36*
X108638911Y-93970577D02*
X107938911Y-92758141D01*
X109670961Y-91758141D01*
X110370961Y-92970577D01*
X108638911Y-93970577D01*
X108638911Y-93970577D01*
G37*
D16*
X114517300Y-122019060D03*
X111517300Y-122019060D03*
D17*
X115783360Y-119908320D03*
X115783360Y-119273320D03*
X115783360Y-118612920D03*
X115783360Y-117977920D03*
X115783360Y-117317520D03*
X115783360Y-116669820D03*
X115783360Y-116022120D03*
X110195360Y-116022120D03*
X110195360Y-116669820D03*
X110195360Y-117317520D03*
X110195360Y-117977920D03*
X110195360Y-118625620D03*
X110195360Y-119273320D03*
X110195360Y-119921020D03*
D10*
G36*
X94827387Y-119666254D02*
X93008733Y-118616254D01*
X93658733Y-117490420D01*
X95477387Y-118540420D01*
X94827387Y-119666254D01*
X94827387Y-119666254D01*
G37*
G36*
X96277387Y-117154780D02*
X94458733Y-116104780D01*
X95108733Y-114978946D01*
X96927387Y-116028946D01*
X96277387Y-117154780D01*
X96277387Y-117154780D01*
G37*
D18*
X116500000Y-101600000D03*
X116500000Y-98400000D03*
X111500000Y-101600000D03*
X111500000Y-98400000D03*
D10*
G36*
X112269039Y-109741859D02*
X112969039Y-108529423D01*
X114701089Y-109529423D01*
X114001089Y-110741859D01*
X112269039Y-109741859D01*
X112269039Y-109741859D01*
G37*
G36*
X113869039Y-106970577D02*
X114569039Y-105758141D01*
X116301089Y-106758141D01*
X115601089Y-107970577D01*
X113869039Y-106970577D01*
X113869039Y-106970577D01*
G37*
G36*
X107938911Y-107241859D02*
X108638911Y-106029423D01*
X110370961Y-107029423D01*
X109670961Y-108241859D01*
X107938911Y-107241859D01*
X107938911Y-107241859D01*
G37*
G36*
X109538911Y-104470577D02*
X110238911Y-103258141D01*
X111970961Y-104258141D01*
X111270961Y-105470577D01*
X109538911Y-104470577D01*
X109538911Y-104470577D01*
G37*
G36*
X105195820Y-114578223D02*
X106408256Y-113878223D01*
X107408256Y-115610273D01*
X106195820Y-116310273D01*
X105195820Y-114578223D01*
X105195820Y-114578223D01*
G37*
G36*
X107967102Y-112978223D02*
X109179538Y-112278223D01*
X110179538Y-114010273D01*
X108967102Y-114710273D01*
X107967102Y-112978223D01*
X107967102Y-112978223D01*
G37*
G36*
X102695820Y-110248095D02*
X103908256Y-109548095D01*
X104908256Y-111280145D01*
X103695820Y-111980145D01*
X102695820Y-110248095D01*
X102695820Y-110248095D01*
G37*
G36*
X105467102Y-108648095D02*
X106679538Y-107948095D01*
X107679538Y-109680145D01*
X106467102Y-110380145D01*
X105467102Y-108648095D01*
X105467102Y-108648095D01*
G37*
D16*
X98400000Y-116500000D03*
X101600000Y-116500000D03*
X98400000Y-111500000D03*
X101600000Y-111500000D03*
D10*
G36*
X90258141Y-112269039D02*
X91470577Y-112969039D01*
X90470577Y-114701089D01*
X89258141Y-114001089D01*
X90258141Y-112269039D01*
X90258141Y-112269039D01*
G37*
G36*
X93029423Y-113869039D02*
X94241859Y-114569039D01*
X93241859Y-116301089D01*
X92029423Y-115601089D01*
X93029423Y-113869039D01*
X93029423Y-113869039D01*
G37*
G36*
X92758141Y-107938911D02*
X93970577Y-108638911D01*
X92970577Y-110370961D01*
X91758141Y-109670961D01*
X92758141Y-107938911D01*
X92758141Y-107938911D01*
G37*
G36*
X95529423Y-109538911D02*
X96741859Y-110238911D01*
X95741859Y-111970961D01*
X94529423Y-111270961D01*
X95529423Y-109538911D01*
X95529423Y-109538911D01*
G37*
G36*
X85430961Y-105758141D02*
X86130961Y-106970577D01*
X84398911Y-107970577D01*
X83698911Y-106758141D01*
X85430961Y-105758141D01*
X85430961Y-105758141D01*
G37*
G36*
X87030961Y-108529423D02*
X87730961Y-109741859D01*
X85998911Y-110741859D01*
X85298911Y-109529423D01*
X87030961Y-108529423D01*
X87030961Y-108529423D01*
G37*
G36*
X89761089Y-103258141D02*
X90461089Y-104470577D01*
X88729039Y-105470577D01*
X88029039Y-104258141D01*
X89761089Y-103258141D01*
X89761089Y-103258141D01*
G37*
G36*
X91361089Y-106029423D02*
X92061089Y-107241859D01*
X90329039Y-108241859D01*
X89629039Y-107029423D01*
X91361089Y-106029423D01*
X91361089Y-106029423D01*
G37*
D18*
X83500000Y-98400000D03*
X83500000Y-101600000D03*
X88500000Y-98400000D03*
X88500000Y-101600000D03*
D10*
G36*
X87730961Y-90258141D02*
X87030961Y-91470577D01*
X85298911Y-90470577D01*
X85998911Y-89258141D01*
X87730961Y-90258141D01*
X87730961Y-90258141D01*
G37*
G36*
X86130961Y-93029423D02*
X85430961Y-94241859D01*
X83698911Y-93241859D01*
X84398911Y-92029423D01*
X86130961Y-93029423D01*
X86130961Y-93029423D01*
G37*
G36*
X92061089Y-92758141D02*
X91361089Y-93970577D01*
X89629039Y-92970577D01*
X90329039Y-91758141D01*
X92061089Y-92758141D01*
X92061089Y-92758141D01*
G37*
G36*
X90461089Y-95529423D02*
X89761089Y-96741859D01*
X88029039Y-95741859D01*
X88729039Y-94529423D01*
X90461089Y-95529423D01*
X90461089Y-95529423D01*
G37*
G36*
X94241859Y-85430961D02*
X93029423Y-86130961D01*
X92029423Y-84398911D01*
X93241859Y-83698911D01*
X94241859Y-85430961D01*
X94241859Y-85430961D01*
G37*
G36*
X91470577Y-87030961D02*
X90258141Y-87730961D01*
X89258141Y-85998911D01*
X90470577Y-85298911D01*
X91470577Y-87030961D01*
X91470577Y-87030961D01*
G37*
G36*
X96741859Y-89761089D02*
X95529423Y-90461089D01*
X94529423Y-88729039D01*
X95741859Y-88029039D01*
X96741859Y-89761089D01*
X96741859Y-89761089D01*
G37*
G36*
X93970577Y-91361089D02*
X92758141Y-92061089D01*
X91758141Y-90329039D01*
X92970577Y-89629039D01*
X93970577Y-91361089D01*
X93970577Y-91361089D01*
G37*
D16*
X101600000Y-83500000D03*
X98400000Y-83500000D03*
X101600000Y-88500000D03*
X98400000Y-88500000D03*
D10*
G36*
X109741859Y-87730961D02*
X108529423Y-87030961D01*
X109529423Y-85298911D01*
X110741859Y-85998911D01*
X109741859Y-87730961D01*
X109741859Y-87730961D01*
G37*
G36*
X106970577Y-86130961D02*
X105758141Y-85430961D01*
X106758141Y-83698911D01*
X107970577Y-84398911D01*
X106970577Y-86130961D01*
X106970577Y-86130961D01*
G37*
G36*
X107241859Y-92061089D02*
X106029423Y-91361089D01*
X107029423Y-89629039D01*
X108241859Y-90329039D01*
X107241859Y-92061089D01*
X107241859Y-92061089D01*
G37*
G36*
X104470577Y-90461089D02*
X103258141Y-89761089D01*
X104258141Y-88029039D01*
X105470577Y-88729039D01*
X104470577Y-90461089D01*
X104470577Y-90461089D01*
G37*
D14*
X91000000Y-80000000D03*
D15*
X93540000Y-80000000D03*
X96080000Y-80000000D03*
X98620000Y-80000000D03*
X101160000Y-80000000D03*
X103700000Y-80000000D03*
X106240000Y-80000000D03*
X108780000Y-80000000D03*
X111320000Y-80000000D03*
D11*
X85560240Y-120438140D03*
M02*
