M48
;DRILL file {KiCad 4.0.2-stable} date 01.05.2016 06:04:41
;FORMAT={3:3/ absolute / metric / suppress leading zeros}
FMAT,2
METRIC,TZ
T1C0.400
T2C1.016
T3C1.100
T4C2.500
T5C3.200
%
G90
G05
M71
T1
X100020Y-85971
X100051Y-114013
X106971Y-117637
X107691Y-117984
X108740Y-117976
X109411Y-121387
X111605Y-116050
X111622Y-117645
X111679Y-116847
X112277Y-118105
X113269Y-118950
X113315Y-117986
X114230Y-118909
X114280Y-116020
X114470Y-119949
T2
X90260Y-122000
X91000Y-80000
X92800Y-122000
X93540Y-80000
X95340Y-122000
X96080Y-80000
X97880Y-122000
X98620Y-80000
X100420Y-122000
X101160Y-80000
X102960Y-122000
X103700Y-80000
X105500Y-122000
X106240Y-80000
X108780Y-80000
X111320Y-80000
T3
X97500Y-93000
X97500Y-107500
X100000Y-107500
X102500Y-93000
X102500Y-107500
T4
X93800Y-100000
X106200Y-100000
T5
X85560Y-82438
X85560Y-120438
X114500Y-82500
T0
M30
